<svg id="shapes" xmlns="http://www.w3.org/2000/svg" viewBox="0 0 400 457"><defs><style>.cls-1{fill:#7ca4ae;}</style></defs><path class="cls-1" d="M231.85,364.21c-12.22-.35-24.29-3.26-35.34-10.3A59.45,59.45,0,0,0,183,347.46c-11.83-3.84-21.53-10.74-30.95-18.67-12.8-10.78-20-24.14-22.21-40.49-.38-2.8-1.05-5.57-1.39-8.38-.53-4.33-1.36-8.25-6.79-8.89a3.7,3.7,0,0,1-2.75-2.72c-3.56-11.46-12.56-19.92-17-30.95-1.75-4.38-3.32-8.66-3.8-13.33a29.23,29.23,0,0,1,.87-10.4c.92-3.62,3-6,6.75-6.42,3-.34,3.86-1.4,3.44-4.52-1.5-11.38-2.63-22.82-4-34.22a31.45,31.45,0,0,1,1.16-12.86c3.3-11.1,4.07-22.6,5.29-34,1.32-12.28,6-23.53,9.57-35.12,1.45-4.74,6.16-7.74,10.09-10.81,17-13.31,35.79-23.62,55.53-32.35,9.53-4.21,18.48-5,28.43-1.36,17.82,6.59,35.59,13.07,52.18,22.57,11.66,6.68,18.3,17.06,22.33,29,2.8,8.3,6.75,14.91,13.85,19.92,4,2.8,7,6.71,9.83,10.6,5.17,7.05,5.19,12.68-.56,19.51-3.5,4.16-4.27,8.43-3.41,13.41a39.52,39.52,0,0,1-2,20.16c-2.15,6.05-1.31,12.16-1,18.29a2.84,2.84,0,0,0,.62,1.86c6.71,5.82,4.93,13.32,3.83,20.46-4.78,30.91-7.63,62.2-16.39,92.37-2.88,9.91-8.5,18.79-14.51,27.21-3.38,4.74-7.24,9.14-10.94,13.65-.94,1.14-1.91,2.7-3.16,3.09C254.82,357.45,244.92,365,231.85,364.21Z"/></svg>