<svg id="shapes" xmlns="http://www.w3.org/2000/svg" viewBox="0 0 400 457"><defs><style>.cls-1{fill:#7ca4ae;}</style></defs><path class="cls-1" d="M288.19,115.68c0,3,.22,6-.06,9-.41,4.46.57,8.18,4.21,11.07,2.11,1.68,2.29,3.83,2.15,6.62-.49,9.31-.32,18.65-.46,28,0,2.78,1.45,4.1,3.89,5.08,10.21,4.08,20.3,8.44,30.07,13.5a63.18,63.18,0,0,1,17.26,13.45c4.05,4.37,3.37,8.18-2.17,10.46A63.42,63.42,0,0,1,320.31,218a190.17,190.17,0,0,1-32.87-2c-3.34-.5-4.3.34-4.55,3.7-.57,7.8-2,16.23-5.39,22.55-5.06,9.36-6.5,19.44-9.8,29.07-3.41,10-8.23,18.86-15.56,26.42-6.46,6.65-11.23,15-19.57,19.79-1.29.75-1,2.34-1.54,3.53-2.67,6.46-4,13.29-10,18.39s-12.91,5-19.62,4.62c-3.19-.2-6.53-.53-9.79-.73-10.06-.59-15.08-4.81-16.58-14.91-.5-3.37-1.71-6.73-.63-10.36.86-2.9-1.91-4.28-3.64-6-18.84-18.95-32.2-41-38.32-67.23A67.94,67.94,0,0,1,130.86,231c-.33-14.15-.83-28.3-1.06-42.45-.09-5.26-2-8.31-7.2-10.43-20.51-8.37-41-16.83-58.92-30.34a38.74,38.74,0,0,1-8.19-8c-2.56-3.51-1.66-6.27,2-8.19,4.23-2.23,8.9-2.67,13.58-2.79,16.2-.43,32.24,1.73,48.26,3.66,4.6.55,7.3-.34,8.83-4.79,1.77-5.19,3.89-10.26,5.72-15.44,8.85-25,24.18-45.75,42.66-64.38,4.91-5,11.22-7.68,17.54-10.31,2.31-.95,4.68-1.11,6.55.75,5.74,5.68,13.17,6.53,20.45,6.31,15.9-.49,30.23,3.95,43.66,12C274.08,62.23,279.42,71,283,80.84,287.09,92.05,289.24,103.66,288.19,115.68Z"/></svg>