<svg id="shapes" xmlns="http://www.w3.org/2000/svg" viewBox="0 0 400 457"><defs><style>.cls-1{fill:#7ca4ae;}</style></defs><path class="cls-1" d="M370.51,324.39c-3-1.4-4.65-4.23-6.91-6.41-1.14-1.11-1.86-2.67,0-3.73,3-1.62,1.55-3.42.59-5.42-1.41-3-3.52-5.42-4.68-8.66-4.05-11.25-2-22.31-.31-33.54,1.08-7,2.26-14.15,1.05-21.34-2-12.13-6.95-23.21-12.29-34.17-7.82-16-17-31.31-26.3-46.5-9.39-15.34-18.66-30.77-28.29-46-7-11.06-17.17-18.84-28.2-25.63-16-9.86-32.74-17.87-51.72-20-6.57-.73-13.09-1-19.48-3.36a21.49,21.49,0,0,0-5-1.17H189l-.37,0c-20.66-2.19-54,11-54,11h0a19.21,19.21,0,0,0-2,.89c-12.49,5.49-22.49,14.56-31.38,24.32-15,16.53-25.41,36.32-33.36,57.05-6.25,16.32-9.52,33.65-13.27,50.73-2,9.16-4.35,18.06-8.85,26.39a33.46,33.46,0,0,0-3.86,20.25c1.53,13.17-.34,25.58-9.73,35.92-3.46,3.81-4.92,8.47-5.56,13.6-2,15.92-1.26,30.94,12,42.48,2.76,2.4,2.55,5.58,2.12,8.8-.53,3.94-2.5,7.39-4.34,11.82,4.87-2.24,7-5.57,8.65-9.46.92-2.21,2.16-4.41,5.17-3.44,2.85.93,3,3.23,2.46,5.73-.3,1.48-1.23,3.07.45,4.75a9.45,9.45,0,0,0,1.27-1.84c1.14-3.29,3.16-5.06,6.82-4.07,3.41.92,4.82,3,4.4,6.68a33.49,33.49,0,0,0,.43,7c.88,8.83,8.26,17.46,16.47,19.3,4.77,1.07,6.3-.06,6.08-4.55-.17-3.38,2-2.68,3.47-1.63,3.13,2.13,6.65,2.93,10.18,3.93,9,2.59,18.41,2.71,27.62,4,8,1.16,14.9,4.46,19,12,.57,1,1,2.25,2.42,2.15s2.33-1.18,3-2.36c4.22-7.36,1.53-18.37-5-23.52-16-12.58-15.53-12.24-9.07-29.71,2.19-5.91,3.17-11.79,1.76-18.08-1.78-8-6.85-14-11.24-20.42-6.52-9.59-5.75-19.79,1.8-27.26,2.39-2.36,3.67-2.31,4.88.92,1.63,4.35,2.66,8.91,5.11,13a53.29,53.29,0,0,0,23.18,20.71c14.9,7.14,30.82,10.76,46.91,4.56,23.73-9.15,43.19-23.58,53.82-47.75.72-1.65,1.25-3.62,4-5.3-2.17,12.53,1.82,22.92,6.88,33,1.7,3.37,1.51,6.07,0,9.38-5.13,11-5.43,21.79,1.41,32.33,2.23,3.43,5.37,5.91,8.25,8.64A15,15,0,0,1,292,370.3,32.91,32.91,0,0,0,296.33,384c1.44,2.45,2.46,3.45,4.17-.08,2.18-4.49,9.67-6.87,13.35-3.93A31,31,0,0,1,324,394.28c.88,2.55-.41,7.49,3.61,6.87,3.76-.57,2.23-5.19,2.27-8.21a4.89,4.89,0,0,0-.17-1c-1.44-8.35-1.43-8.35,5.91-13.07,1-.63,1.92-1.33,2.91-1.95,11.66-7.31,14.54-18.19,13-31.1-.84-7-4.11-12.56-8.66-17.59-3.26-3.6-3.22-7.49-1.16-11.57.85-1.66,2.33-3.18,3.59-.71,5.28,10.26,15.89,8.69,24.57,11.4.95.3,2.26.34,2.65-.72C373.13,325,371.45,324.83,370.51,324.39Z"/></svg>