<svg id="shapes" xmlns="http://www.w3.org/2000/svg" viewBox="0 0 400 457"><defs><style>.cls-1{fill:#7ca4ae;}</style></defs><path class="cls-1" d="M274.14,266c-1,3.6-2.18,7.17-3.05,10.82a76.25,76.25,0,0,1-18.17,34.05c-12.43,13.56-27.66,22.92-46.66,24.12-10.63.68-19.18-4.89-27.36-10.71A92.84,92.84,0,0,1,164,311.75a17.1,17.1,0,0,0-.4,11c3.6,14.64,1.15,29.06-1.15,43.51-.4,2.52-1.33,4.44-4.14,4.88-3.62.58-7.27,1.56-10.58-1-.88-.67-.88-1.59-.8-2.67.51-6.82-4.32-10.3-10.82-7.81-2,.77-3.85,2-5.86,2.78-5.89,2.28-10.19.52-12.29-5.36-.77-2.15-1.58-3.07-3.84-2.67a7.32,7.32,0,0,1-6.13-1.62c-5.48-5-10.84-10.22-15.94-15.62-2.15-2.28-1.07-4.8,1.49-6.26,3.65-2.07,4.93-5.45,5-9.22.08-6.06.94-12.22-2.11-18-1.71-3.23-1.39-6.58,0-10.11,3-7.49,5.84-14.94,13.2-19.42,2-1.24,1.88-2.82.66-4.65-2.66-4-2.32-8-.54-12.33,4.6-11.23,4.55-22.94,1.13-34.31-3.84-12.79-3.3-25.65-2.63-38.63.85-16.55,5.48-32.48,8.09-48.74.92-5.73,3.78-10.72,6.67-15.53,6.29-10.44,13.76-20.12,23-28,12.33-10.54,27.75-14,43.19-17,16.63-3.21,32.92-.61,48.8,4.16,9.39,2.82,17.9,8,26.19,13.33,7.29,4.69,14.45,9.58,21.91,14,11.17,6.6,17.51,16.58,20.88,28.71,5.92,21.34,11.35,42.8,18.82,63.7,3.2,9,8.19,15.81,16.51,20.37,7.3,4,11.46,10.45,13.72,18.28,2.11,7.33,1.72,14.21-3.71,20.1a11.17,11.17,0,0,0-3.19,9.55,12.84,12.84,0,0,1-4.41,11.64c-3.35,3.11-5.17,7.3-7.3,11.27-1.59,2.95-.87,4.87,2,6.58,7,4.18,7.54,8.39,2.34,14.44-3.26,3.78-6.5,7.58-9.6,11.48a11.91,11.91,0,0,0,4.71,18.22c3.34,1.47,6.51,3.36,9.87,4.8s2.78,3.34.73,5.25c-3.74,3.47-7.41,6.87-12.92,7.74-4.3.69-10,1.1-7.74,8.32.08.27,0,.84-.21.94-5.42,2.86-7.62,8.91-12.34,12.44a2.75,2.75,0,0,1-2.35.46c-9.7-5.28-21.35-6.37-30.1-13.56-8.24-6.78-11.39-15.78-11.46-26.45-.14-23.87,4.55-47.4,4.4-71.25,0-1.12,0-2.23,0-3.35Z"/></svg>