<svg id="shapes" xmlns="http://www.w3.org/2000/svg" viewBox="0 0 400 457"><defs><style>.cls-1{fill:#7ca4ae;}</style></defs><path class="cls-1" d="M270.43,292.29c-4.5,8.89-11.54,13.9-16.89,20.41a68.51,68.51,0,0,1-33.25,22.06c-9.86,3.08-19.46,1-28.69-2.9-12.33-5.25-22.42-13.59-31.6-23.19-4.46-4.66-5.89-4.08-7.59,2.1-2.15,7.79-.67,14.11,5.66,19.72,5.8,5.14,11.11,10.87,12.46,19.28.59,3.7,4.48,5.63,7.3,7.91,9.13,7.36,11.8,16.49,8.08,27.8-.91,2.74-1.67,5.7,3.08,4.83,2-.38,3.76-.24,4.53,1.89.7,1.95-.24,3.55-1.62,4.92a7.5,7.5,0,0,1-5,2.07,28.53,28.53,0,0,1-13.65-2.1c-4.55-1.87-5.57-4.92-4.41-9.13.61-2.22,1.89-4.24,2.59-6.45,1-3.25-.29-5.69-3.41-6.74-3.91-1.31-4.22,2.08-4.37,4.33-.63,9.51-6,10.23-12.92,10-3.74-.14-6-2-5.55-6.06.17-1.72.67-3.56-1.61-4-1.94-.4-3,1.1-3.82,2.62a27.52,27.52,0,0,0-1.47,3.17c-4.25,11.13-17,12.3-24.08,8.19-1.6-.93-3.28-2.13-5.1-1.72-7.92,1.76-15.85.16-23.76.33-4.1.09-8.33.49-10.64-3.62-2.13-3.79-2.65-7.85.81-11.53a4.18,4.18,0,0,0,1.16-3.16c-1.57-5.91.69-12.43-2.82-18-1.43-2.26-.54-4.11.59-6,2.43-4.17,1.66-5.71-3.22-6.22-6.84-.72-13.19,1.21-19.37,3.86-1.83.78-3.65,1.6-5.42,2.5-3.84,1.94-7.2,4.28-7.29,9.22,0,1,.1,2.15-1.11,2.52-1.43.43-2.07-.75-2.71-1.7a6.92,6.92,0,0,1-.77-5.74c1.2-5.19,4.6-8.68,8.5-12,2.5-2.11,5.82-3.89,5.95-8.69-4.56,2.54-7.36,6-10.5,9.09A25.42,25.42,0,0,1,26,348.82c-1.6.35-3.58.39-4.31-1.53-.66-1.73.94-2.66,2.09-3.59,8.73-7,9.78-15.62,3-24.65-4-5.36-3-17.72-.26-23.66,6.11-13.11,14.89-25.91,6.73-41.78-4.79-9.32-2-18.18,5.24-25.56a90,90,0,0,1,8.62-8.31c7.78-6,9.95-13.72,7.65-23a115,115,0,0,1-3.14-17.16c-.5-5.38.76-9.77,5.1-12.68,7.3-4.9,11.17-11.53,12.2-20.18.79-6.63,5.22-11.32,10.38-14.68A36.3,36.3,0,0,0,94.4,111.61C98.34,99,107.38,91.75,119,87.22a106,106,0,0,0,25.77-14c13.33-10,28.87-14.53,45.2-12.08a111.51,111.51,0,0,1,37.72,12.71c8.66,4.84,18,6.44,27.54,8,17.23,2.82,32.64,10,47,19.74a94.75,94.75,0,0,1,24,23c2,2.76,3.23,5.48,2.05,8.78-3,8.33-.65,15,6.2,20.28a8.27,8.27,0,0,1,3.3,7c-.26,6,1.88,11.45,4,16.89,1.46,3.8,1.68,7.07-2.5,9.43-2.85,1.6-2.39,4.51-2.1,7.17.61,5.8,3.7,10.65,6.26,15.69,2.42,4.78,1.76,9.49,1.73,14.67-.06,7.36-3.3,12.39-6.05,18.39-4.78,10.42,1.33,19.27,6.31,27.88,1.91,3.31,4.15,6.39,5.7,9.94,3,6.88,2.63,12.86-2.6,18.89-6.86,7.94-5.56,17.4-2.7,26.5,1.33,4.23,3.73,8.16,5.94,12.06a8,8,0,0,1-1.1,10.1c-2.42,2.71-8.9,3.43-11.71,1.53s-2.41-3.89.12-5.93,3.68-4.47.7-7.08c-1.53-1.35-3.09-1.81-4.69.19-3.67,4.61-10.69,5.46-13,11.88-.62,1.75-3.67,2.06-5.92,1.7s-4.26-.8-6.38-1.23c-4.17-.85-7.12.25-8.5,4.7-1.27,4.1-3.63,7.42-7.78,9.26-3.35,1.48-5.79.6-7.67-2.37s-.16-4.68,2.16-6.09c2.71-1.65,2.69-3.75,1.62-6.44a86.92,86.92,0,0,1-3.22-10,9.48,9.48,0,0,0-5-6.41c-11.44-6.14-13.27-14.34-10.51-27.62C271.78,300.6,270.92,297.29,270.43,292.29Z"/></svg>