<svg id="shapes" xmlns="http://www.w3.org/2000/svg" viewBox="0 0 400 457"><defs><style>.cls-1{fill:#7ca4ae;}</style></defs><path class="cls-1" d="M143.53,292.48c-1.1,3.63-.12,6.06.61,8.36a66,66,0,0,1,.51,37.87,28.22,28.22,0,0,1-2.87,6.88c-2.88,5-3,10.1-.23,14.77,4.25,7.27.4,18.14-6,22-3.19,1.89-4.4,4.28-4,7.78,1.28,11.22-2.87,20.41-10.31,28.53A15.42,15.42,0,0,0,116.9,430c.26,6.86-2.2,12.27-9.06,15-2.13.85-3.92,2.52-6,3.54-8.9,4.37-10.84,4.16-17.94-2.71-4.68-4.52-9.75-5.94-15.93-3.65a27.09,27.09,0,0,1-14.18,1.73c-4.29-.72-7.83-2.09-9.68-6.65-1.75-4.34-6-4.86-10.07-5-3.31-.14-6.64.37-9.94.14-6.11-.43-9.77-3.86-10.62-9.84A26.88,26.88,0,0,1,15.31,408c3.5-8.2,5.4-16.2,2.88-25.59C16,374.07,15,365.68,10.57,357.89c-3.55-6.22-1.11-13.17,1-19.84,3-9.24,4.25-18.7,1.18-28.36-1.27-4-4.43-6.55-6.29-10.1-5.82-11-3-21.91-.49-33.07,1.78-7.93,7.24-13,12.4-18.27,4.69-4.75,5.2-9.83,3.41-15.53-3-9.46-2.81-19.1-1.7-28.7,1.31-11.24,7.48-20.12,15-28.11,2.06-2.17,4.4-4.09,6.34-6.37,3.43-4,5.77-8.52,4.45-14.13-.19-.8-.15-1.66-.27-2.48-1.68-11.76,2.14-20.2,12.86-26.53a82.38,82.38,0,0,0,26.81-25.74c3.08-4.67,7.83-6.61,12.22-9.11,8-4.57,12-11.23,11.81-20.4a11.88,11.88,0,0,1,6.67-11.38c5.4-3,10.91-5.57,17.18-6.35,7.59-.94,13.86-4,17.53-11.37,2.05-4.12,5.66-6.74,10.12-8.4,7.43-2.75,14.31-5.85,20.15-12.1,9.28-9.93,21.08-10.28,32.48-2.95,3.92,2.51,7.78,5.12,11.68,7.67,2.59,1.7,5,1.53,7.91.18A51.8,51.8,0,0,1,269,23.24c8.52,2.3,13.18,9.23,18.71,15.12,2.2,2.34,4.35,4.41,7.44,5.61,4.65,1.81,7.34,5.71,9,10.2a8,8,0,0,0,6.31,5.63c11.4,2.62,18.58,9.75,22.06,20.84a23.31,23.31,0,0,0,2.37,5.49c11.27,17.86,15.79,38,19.35,58.38.87,4.93,2.81,8.84,7.31,11.82,6.76,4.49,11,10.67,11.16,19.45.05,4.18-1.88,7.3-3.28,10.79a1.85,1.85,0,0,1-2,1.14c-1.27-.16-1.5-1.18-1.54-2.2-.05-1.67,0-3.33,0-5,.09-6.79-1.55-9.08-7.67-11.79-3.19-1.42-4.73-.86-4.79,2.75a41.47,41.47,0,0,0,2.48,15.67c4.12,10.86,11.55,19.37,19.4,27.57a96.25,96.25,0,0,1,14.53,19.54c4.23,7.5,3.25,14.7.86,22.11-1.47,4.59-3.34,9.06-5.24,13.5-1,2.39-1,4.46.58,6.52.41.52.66,1.17,1.09,1.67,8.55,10,9.7,21.63,7,33.86-1.2,5.45-.2,10.57.63,15.81,2.78,17.53,4.25,35-.24,52.56-.88,3.44-1.91,6.68-4.17,9.49a45.33,45.33,0,0,0-7.54,14.53c-1.54,4.69-2.44,8.93-.6,14,2.23,6.08-2.6,11.94-9.26,12.1a9,9,0,0,0-7.42,3.44c-4.06,5.63-10,7.09-16.17,7.32A32,32,0,0,0,330.23,448c-9,6.78-19.18,4.25-28.82.14-2-.85-3.71-2.24-5.68-3.09-2.91-1.26-6.18-1.52-8.38.94-3.08,3.44-7,3.49-10.94,3.79-5,.4-9.86-.88-11.71-5.75-1.76-4.63-1.95-10.09,1.91-14.13,7.72-8.09,7.23-20.38,2.29-28.15-2.55-4-5.45-8-4.94-13.3.25-2.52.71-4.58,3.22-5.64s3.86-3.52,5.51-5.61c1.95-2.48,2.07-4.73.08-7.17-2.69-3.3-2.93-6.75-1.11-10.67,2.72-5.86,2.8-10.94-1.49-17-5.85-8.29-3.05-18,.21-26.84,1-2.77,1.69-5.16,1.14-8.13A37.68,37.68,0,0,1,275,282.58a26.46,26.46,0,0,0,2.64-9.55,3.37,3.37,0,0,0-2.08-3.66c-1.73-.66-2.1,1.24-2.73,2.25-2.57,4.09-5,8.26-7.5,12.4-10,16.64-22.28,31.14-39.45,40.75-12.73,7.13-25.72,8.83-39.53,2.29C169.47,319.08,154.88,308.53,143.53,292.48Z"/></svg>