<svg id="shapes" xmlns="http://www.w3.org/2000/svg" viewBox="0 0 400 457"><defs><style>.cls-1{fill:#7ca4ae;}</style></defs><path class="cls-1" d="M284.51,338.32c-2.38,2.1-2.31,4.76-2.93,7.75-1.12,5.33,1.58,11.89-3.94,16.13-1.05.82-1.48,2.12-.45,3,3.87,3.43,2.11,7.84,1.71,11.63a259.52,259.52,0,0,0-1.52,31.89,24.15,24.15,0,0,1,0,4c-.29,1.91-.4,4.6-3.27,3.84-2.3-.61-1.34-2.59-1.05-4.52.64-4.28-.47-8.58-.23-13,1.23-22.58,3.87-45.09,3.9-67.74,0-3.87-1.17-7.38-1.61-11A100,100,0,0,0,273.2,356c.38,2.91-1.64,5-3.28,7.06-3.49,4.42-4.59,9.24-2.43,14.51,3.42,8.34-1.84,15.12-3.88,22.46a2.49,2.49,0,0,1-3.22,1.68,1.84,1.84,0,0,1-.84-2.92c6.26-8.22,2.77-17.36,2.41-26.13-.17-4.08.52-7.56,3.16-10.62,2.84-3.28,3.33-7.07,2.78-11.23-1.16-8.79-1.82-17.58,1.64-26.1a4.9,4.9,0,0,0,.36-1.45c.18-2.45,1.07-5.86-1.66-6.61-2.17-.6-2.43,3-3.36,4.77-6.21,11.9-14.66,22.12-23.38,32.22-6.79,7.85-14.7,14.4-22.37,21.28-11.67,10.47-34.58,12.87-48.64,3.69-18.08-11.81-32.61-27.15-42.75-46.42-3.33-6.32-3.65-13.44-5.14-20.25-.32-1.47-.55-3-.89-4.41-.26-1.09-.33-2.48-1.84-2.61s-2.09,1.05-2.47,2.12c-1.2,3.4-2.21,6.74-7.1,5.84-1.26-.23-1.38,1.65-1.65,2.74-2.09,8.51-2.92,17.09-.87,25.71,2.57,10.8.25,21.6,0,32.37-.3,15.47-.37,30.93.09,46.37.12,4.07-2.17,5.53-4.58,5.55s-1.53-3.19-1.53-5c0-16.48.74-32.94,1.51-49.4.1-2.12,1.33-5.86-1.2-6S100.35,368.8,100,371a51.69,51.69,0,0,0-.08,15.9c.87,7.09-.83,13.94-2.2,20.78A19.38,19.38,0,0,0,99,419.79c1,2.34,1.26,4.81-1.14,6.23s-4-1-5.28-2.5C87.94,417.9,89,411.44,90.25,405c-3.58,4.19-4.38,7-3.57,12.43.4,2.7,1,5.89-2.54,6.54s-4-2.62-4.63-5.24c-1.26-5.39-1-10.39,2.33-15.25,3.82-5.6,3-12.42-1.38-17.94-7.23-9.06-7.81-19.9-1-29.32A20.5,20.5,0,0,0,83,338.26a47.08,47.08,0,0,1,3.25-32.6,34.66,34.66,0,0,0,2.21-8.15c1.68-8.33,3.54-16.51,7.21-24.33,3.33-7.1,4.3-15.05,4.71-22.87a44.6,44.6,0,0,1,2.82-14.61,19.5,19.5,0,0,0,1.05-10.81c-2.3-13.09,1.22-25.51,4.58-37.82,1.6-5.87,7.46-9.22,11.42-13.65a12.54,12.54,0,0,0,3.42-8.37,17,17,0,0,1,5.86-12.76c2-1.78,4.33-4.07,2.19-6.78-1.95-2.48-4.59-.19-6.88.41a5.78,5.78,0,0,0-1.71,1c-1,.69-1.87,2.38-3.31.92s-1.29-2.94-.12-4.52a33.07,33.07,0,0,1,6.32-7c2.16-1.65,3.64-3.85,5.32-5.91.77-.94,1.65-2.29,1.07-3.16-2.73-4.15-1.16-10-6.31-13.43-4.38-2.94-6.2-7.53-4.33-13.56,2.48-8,6-15.94,5-24.76-.39-3.62,2.38-5.13,5.41-6.2,1.67-.59,4-1.36,2.93-3.72s-3-.59-4.26.12a30.85,30.85,0,0,1-11.35,3.49,17.6,17.6,0,0,0-8.7,3.44c-1.26,1-3.17,2-4.5.55-1.58-1.79.1-3.4,1.29-4.73a10.8,10.8,0,0,1,5.4-3.48c5.41-1.25,10.17-4,15.27-6a15.27,15.27,0,0,0,6.93-4.65c2.62-3.33,6.78-3.09,10.37-4.22,13.26-4.18,25.17-10.23,31.24-23.87.77-1.72,1.61-3.21,3.45-4.05A56.51,56.51,0,0,1,196,17.78c4.49-.62,7.35.72,7.91,5.78.41,3.62,2,6.75,6.06,7.65.8.18,1.9.63,2.4.29,5.18-3.58,12.62-3.81,15.71-10.4,1-2.08,2.52-2.32,4.43-2.41,4.2-.19,8.56-.62,11.76-3.47,4.25-3.79,8-2,10.72,1.06,5,5.73,12.44,9,16.1,16.06,1,1.91,3.36,2,5.23,2.57C285.8,38,287,40.43,287.66,50.16c.51,7.05.31,14.28,5.47,20.74,3.61,4.5,3.4,11.31,3.35,17.34-.05,7,.24,7.47,7.1,7.65a12.89,12.89,0,0,1,11.7,7.25c4.64,9,10.05,17.56,12.31,27.69,1.39,6.26.79,11.29-4.12,15.85-5.92,5.48-5.75,6.43-.38,12,4.94,5.1,5.68,11.31,1.11,18.28-4.83,7.37-4.89,13.49.65,20.87,5.24,7,2.59,15.33.17,23.05a1.64,1.64,0,0,1-1.86,1.31A1.9,1.9,0,0,1,321.5,220c.05-2,.37-4,.45-6,.14-3.5.12-6.78-2.69-9.73-1.39-1.46-1.26-4.34-1.94-6.53-1.43-4.57-4-8-9.08-8.87s-6.87-4.16-6.46-9.4c.47-6.11,2.93-11.23,6.29-16.06,2.23-3.19,1.41-4.22-2.28-4.37-7.12-.29-11.72,2.49-14.05,9.41a35.29,35.29,0,0,0-.23,22c2.69,9,4,18.18.81,27.39a9,9,0,0,0,1.48,8.92c5.79,7.63,6.75,15.62,2.24,24.27-3.68,7.06-3.31,14.13-.52,21.65,3.51,9.43,3.57,19.39,3.57,29.5,0,12.07-4.61,23.55-3.49,35.59.9,9.6,3.15,19.05,3.06,28.78a35.76,35.76,0,0,1-2.57,14.12c-2.68,6.26-2.48,12.33,2.28,17.73a2.92,2.92,0,0,1,.29.4c1.67,2.61,2.86,5.33,1.29,8.41a1.89,1.89,0,0,1-2.53,1c-2.95-1.33-3.7-4.05-4.2-6.92-.2-1.13-.25-2.47-.89-3.31-5.3-7-4.32-14-.11-21,2.72-4.5,1.92-9.35,1.61-14.13A46.09,46.09,0,0,0,284.51,338.32ZM92.15,398.06c3.95-6.26,4.07-7.87,0-15-3.48-6.09-4.53-12-.43-18.21,1.82-2.77,3-5.91,4.66-8.81a11,11,0,0,0,1-8.22A5,5,0,0,0,92.57,344c-2.39-.07-1.72,2.52-1.91,3.92-.83,6.17-3.75,11.32-7.43,16.11-3.36,4.35-3.7,8.22-.08,13C87.8,383.08,93.53,389,92.15,398.06ZM286,308.46c.26.58-1.91,3.33.78,4.39,1.34.53,2.73-1.23,3.19-2.62,2.74-8.28,4.27-16.65,1-25.19-.95-2.53-2.19-2.21-3.22-.13-2.55,5.16-5.74,10.17-3,16.4C285.54,303.06,285.47,305.18,286,308.46ZM307.5,175c-.25,3.52,0,5.45,1.51,7,1.12,1.11,2.53,2.31,3.66.48,2.7-4.37,5-9,5.12-14.29a3,3,0,0,0-2-3.09c-1.35-.52-2.19.28-3.05,1.07C309.71,168.93,307.78,172.28,307.5,175ZM101,336.1c-2-6.35-1.17-11.68.18-17a5.85,5.85,0,0,0-.14-2.45c-.57-2.7-1.77-3.46-3.9-1.17C91.41,321.67,90.34,330.33,101,336.1ZM95.35,305c7.28-2.33,10.69-12.93,6.24-18.53-1.25-1.57-2.49-1.89-3.15.37A80.33,80.33,0,0,0,95.35,305Z"/></svg>