<svg id="shapes" xmlns="http://www.w3.org/2000/svg" viewBox="0 0 400 457"><defs><style>.cls-1{fill:#7ca4ae;}</style></defs><path class="cls-1" d="M80.41,80.88c3.44-.47,6.23.88,8.77,3,9.18,7.5,19.35,13.59,29,20.49,1.34,1,3,1.55,4.35,2.44,3.72,2.34,5,.69,5.34-3,.88-8.94,1.62-17.91,2.9-26.8,3.55-24.75,14.63-45.29,34.3-61.13,5.44-4.38,10.88-8.08,17.89-9.31,8.86-1.55,17,1.77,22,9.36,2.11,3.23,4.16,6.32,8.46,7.16,6.76,1.33,7.65,1,10.67-5.17,2.88-5.9,8.44-7.75,14.71-4.37A69.71,69.71,0,0,1,259,29.53c11,13,20.57,27.11,26,43.42,3.55,10.64,4.21,21.84,4.17,33.07,0,6.35.49,12.59,5.63,17.51,2,1.88,3.57,2.59,6.12,1.67,13.33-4.82,25.44-11.59,35.21-22.08,2.21-2.37,3.77-5.08,3.74-8.46s1.91-3.91,4.62-3a47.59,47.59,0,0,1,13.37,6.63c7,5.31,8.88,12.48,7.83,20.82-1.83,14.51-9.07,26.6-16.74,38.6a99.29,99.29,0,0,1-35.55,33.57c-3.06,1.73-3.47,4-3.19,7.05,2.65,29.59,7.18,58.75,17,87,4,11.49,4.11,23.76,4.33,35.94.13,6.61,1,13.22.59,19.88a49.47,49.47,0,0,1-1.35,9.37c-5,19.5-7.5,39.39-9.73,59.34-.71,6.37,3.4,10.11,7.12,14.13a27.66,27.66,0,0,1,2.86,2.75,4.34,4.34,0,0,1,.55,4.72c-1.09,1.87-3,1.23-4.5.72-5.85-1.92-10.83-5.16-14.16-10.47a54.12,54.12,0,0,1-5.88-13.21c-.71-2.34-.64-5.55-4.23-4.93a6.15,6.15,0,0,0-5.45,6.23c-.12,3.49-.06,7-.2,10.49-.5,12.42-6.49,21-16.91,24.64-2.22.77-4.28,1.29-5.66-1.17s.11-4.08,2.2-5.19c3.73-2,5.34-5.32,6.19-9.2,1.25-5.77-.25-8.44-6.08-8.92-8.46-.69-11.67-7-13.73-13.32-2.59-8-.9-15.58,5.6-21.95,5.69-5.59,10.89-11.7,16.95-16.95,3-2.61,4.26-6.3,5.68-9.85a2.81,2.81,0,0,0-.43-3.28c-1.06-.93-2.21-.08-3.26.31a8.13,8.13,0,0,0-1.74,1c-22.19,15.19-47.5,19.94-73.62,21.75-10.3.72-20.62,1-30.95,1.12-14.4.18-20.26,13.33-14.39,24.1,3,5.58,5.06,11.85,7.91,17.65a14.15,14.15,0,0,1,1.17,7.82c-.43,4-2.26,6.48-6.43,7-4.95.62-9.86,1.69-14.87.39-1.91-.5-3.95-1.26-3.57-3.39.4-2.29,2.32-.6,3.63-.61,3.27,0,5-2,4.78-5.06-.28-4.45-1.65-8.62-6-10.86-8.24-4.27-12.75-11.42-17.28-19.29-7.51-13-12.66-27.22-22-39.51-6.48-8.55-10.91-19.65-9.53-31.38,1-8.59-2.69-16.33-3.69-24.56-1.93-15.71-3.6-31.38-2.37-47.24a22.75,22.75,0,0,1,3.12-9.89,19.86,19.86,0,0,0,1.83-16.79c-3.21-10.23-3.7-20.94-4.71-31.53-.32-3.3-1.57-5.26-4.62-6.26-22.49-7.35-36.75-24.05-48.33-43.39a57.77,57.77,0,0,1-8-28.12c-.35-12.85,5.53-22.66,16.94-29C63,84.91,71.28,81.59,80.41,80.88Z"/></svg>