<?xml version="1.0" encoding="utf-8"?>
<!-- Generator: Adobe Illustrator 24.3.0, SVG Export Plug-In . SVG Version: 6.00 Build 0)  -->
<svg version="1.1" id="shapes" xmlns="http://www.w3.org/2000/svg" xmlns:xlink="http://www.w3.org/1999/xlink" x="0px" y="0px"
	 width="400px" height="457px" viewBox="0 0 400 457" style="enable-background:new 0 0 400 457;" xml:space="preserve">
<style type="text/css">
	.st0{fill:#7CA4AE;}
</style>
<g>
	<path class="st0" d="M323.6,432.3c-4.2,1.2-7.5,1-10.8,0.8c-6.6-0.3-13.3-0.7-19.9-1.2c-3.7-0.3-7.1-1.4-10-4
		c-7-6.4-14.8-11.9-18-22.3c-3.3,6.1-5.2,11.6-5.6,17.4c-0.2,3.1-1.1,3.4-3.6,1.7c-4.1-2.9-5.3-7.3-5.7-11.8
		c-0.8-10.1,0.2-20.1,4.7-29.3c3.6-7.3,2.7-14.1-0.9-21c-5.2-10.1-10.5-20.1-11.5-31.7c-0.4-4.8,0.4-9.6,0.3-15.7
		c-6.1,6.4-12.3,11-18.9,15.2c-13.5,8.5-27.6,8.8-41.3,1.6c-17-8.8-30.4-21.9-41.2-37.7c-1.1-1.7-2-3.5-3.4-4.9
		c-6-6.2-8.7-13.6-8.8-22.1c0-3.4-0.8-5.3-5.2-4.1c-1.2,0.3-7,3.5-5.8-3.2c0.2-0.9-1.1-1.2-1.8-1.4c-4.8-0.8-6-4.7-5.7-8.4
		c0.4-4.2-0.5-7.9-2-11.6c-2.8-6.8-4.4-13.5-2-20.8c1.5-4.6-0.2-9.2-2-13.6c-0.9-2.4-1.9-4.7-1.5-7.2c1.5-10.8,0.7-21.6,0.1-32.4
		c-0.5-8.8,0.7-17.3,3.6-25.6c6.6-19,14.8-37.2,28.6-52.2c4.8-5.2,10.7-9.1,17.8-10.6c2.2-0.5,4.1-1.1,5.5-3
		c8.9-12.2,21.9-16.2,36.1-17.4C208,54.7,220,59,232,64.5c28.2,12.9,46,36.1,61.8,61.3c12,19.1,18.3,40.2,22,62.2
		c1.2,7.4,2.5,14.8,2.3,22.3c-0.1,3.7,1.4,6.8,3.6,9.6c3.6,4.8,6.9,9.8,10.6,14.5c9.5,12.2,11.1,27.3,15.1,41.4
		c1.5,5.2,3.9,10.3,3.6,16c-0.7,14-5.8,26.6-12.1,38.8c-2.7,5.2-1.7,10.3-1.7,15.6c0,1.6,1.2,2.3,2.7,2.3c1.8,0,3.7,0.1,5.5-0.2
		c10-1.6,18.6,1.6,25.2,9c7,7.9,10.8,17.4,11.3,29.2c-5.2-3.4-8.5-8.5-16-9.6c4.3,4.3,6.8,8.2,8.5,12.6c2.9,7.6,0.8,14.4-2.6,21
		c-1.6,3-2.8,1.2-3.4-0.9c-1.9-6.1-5.4-11-10.3-15c-1-0.8-2-1.8-3.2-2.3c-1.6-0.7-3.3-2.5-5-1.2c-1.5,1.1-0.4,3.1-0.2,4.7
		c1.7,11.6-2.2,19.3-12.7,24.6c-4.5,2.3-9,4.3-14.1,4.7c-1.4,0.1-3.4-0.5-4,1.3c-0.5,1.6,1,2.7,2.2,3.6
		C321.8,430.5,322.3,431.1,323.6,432.3z"/>
</g>
</svg>
