<svg id="shapes" xmlns="http://www.w3.org/2000/svg" viewBox="0 0 400 457"><defs><style>.cls-1{fill:#7ca4ae;}</style></defs><path class="cls-1" d="M135.62,293.23c.5,8.67,1,16.44,1.38,24.21.08,1.63.43,4-1.26,4.49-2,.6-2.05-2.12-3.11-3.24a2.62,2.62,0,0,1-.27-.43c-1.44-2.34-3.65-5.13-6.1-4s-.9,4.47-.25,6.79c1.29,4.6,3.37,8.71,7.74,11.22,1,.54,2.4.95,1.73,2.51-.52,1.22-1.77,1.36-3,1.44-6.8.42-13.22-1.34-19.51-3.56S99.16,319.14,99.47,312.3c.11-2.54,2.1-4.08,3.47-5.92,5-6.73,5.08-7.5.82-14.65-2.69-4.54-5.05-9.15-1.89-14.46.7-1.18,1.33-2.45.34-3.7s-2.16-.59-3.25-.24c-1.54.48-2.71,1.4-2.53,3.22.09,1,.59,1.94.61,2.92.06,2,.33,4.33-2.24,4.9-2.11.48-3.7-.58-4.89-2.57-5.19-8.69-4.37-23.23,2-31.13a38.44,38.44,0,0,1,4.87-5c6.56-5.64,4.7-10,.5-16.64-1.42-2.23-3.91-1.28-6-1.61-1.46-.24-3.43-.69-3.39-2.35,0-1.85,2-1.13,3.25-1.24,3.8-.35,6-2.17,4-5.88-3.34-6.17-2.74-12.13-.26-18.25,1.76-4.34,3.29-8.2-3-10.77-3.9-1.58-3.36-4.54.57-6.28.91-.4,1.92-.6,2.79-1.07,1.82-1,4.49-1.33,4.52-4.06S97,175,95.42,174c-3.24-2-5.29-4.61-3.91-8.7.27-.8.73-1.6,1.67-1.65a1.38,1.38,0,0,1,1.59,1.5c-.34,2.89.74,4.46,3.74,4.6,2.35.11,4.39-.5,5.49-2.68a6.25,6.25,0,0,0-.54-7,16.53,16.53,0,0,1-1.88-2.9c-.44-.91-.57-2.39,1-2,4.91,1.33,5.16-2.65,6.07-5.36,2.31-6.88,2.19-14.1,1.94-21.23a16.61,16.61,0,0,1,4-11.94,82.36,82.36,0,0,1,12-12,9.87,9.87,0,0,0,3.35-4.26c5-12.69,14.09-21.49,25.89-27.86,3.78-2,7.42-4.14,9.75-8.2C168,60,173,59.3,177.33,59c9.28-.74,18.62-.84,27.93-1.19,14.52-.54,26.86,5.47,38.56,13.1a17.71,17.71,0,0,0,8.62,3.32c10.56.83,18.14,7.75,26.39,13.32,15.57,10.53,25.08,24.95,27.9,43.57,1,6.38,2.39,12.76.72,19.32-1.51,5.91,2.53,8.57,7.09,10.36,3.48,1.36,5.09,3.48,4.63,7.2-.26,2.14-.94,3.6-3.38,4.27-4.26,1.17-4.77,3.46-1.79,6.65a25,25,0,0,0,2.21,2c4.28,3.56,4.3,3.6-.49,5.76-2.17,1-1.42,2.86-1.33,4.34.57,9,1.34,17.91,2,26.87s-.71,17.25-6.72,24.38a26.34,26.34,0,0,0-3.23,5.61c-2.45,5-.93,9.93,3.91,12.88a34.46,34.46,0,0,0,7.86,3.12,35.81,35.81,0,0,1,6.92,2.76c1.78,1,3.17,2.83,2.27,5s-3.15,3-5.45,2.4c-2.74-.68-5.4-1.68-8.09-2.57-2.46-.81-4.12-.62-3.16,2.6,1.06,3.55.52,6-3.47,7.42-2.64.94-2.3,3.18-.14,4.55a10,10,0,0,0,9.09,1.08,14.74,14.74,0,0,1,4.78-1.23c3,0,3.84,1.74,2.25,4.28a8.78,8.78,0,0,1-6.78,3.8c-5.63.65-11.3,1.07-16.69-1.44-1.14-.53-2.37-1.63-3.64-.33s-.55,2.52-.14,3.77c1.85,5.74,14.81,11.8,20.38,9.58,1-.41,1.84-1.08,1.68-2.16s-1.47-1-2.39-1.33c-1.85-.63-5.25,1.55-5.35-1.37-.08-2.1,3.6-2.49,5.8-2.88,3.28-.58,6.95-1.06,8.68,2.85,1.89,4.32-1.37,6.55-4.32,8.4-8,5.06-18,3.29-26-4.38-2-2-3.89-4.16-6.08-5.93-2.67-2.15-4.84-1.21-5.08,2.2-.4,5.58.77,10.65,5.87,14a29.24,29.24,0,0,0,4.26,2.6c4,1.72,7.58,3.91,7.47,8.88-.1,4.54-4.36,8.74-9.72,10.12-11.1,2.85-16.73-1.64-16.31-13.16.18-4.81.7-9.61,1-14.42.05-.79,0-1.93-.44-2.33-.93-.8-1.79.21-2.61.72a1.71,1.71,0,0,0-.39.32c-13.19,15-31.91,16.84-49.7,20.46-11.84,2.41-23.44-.92-34.86-4-13.64-3.64-26.51-8.49-36.32-19.63C147.45,299.91,141.81,296.67,135.62,293.23Zm-25.49-6.6c.28,1.85-.61,4.23,2,5,2.32.71,4.21-.5,5.81-2,3.66-3.48,5.53-13.42,3.52-18.14-1.43-3.36-3.82-3.76-5.81-.63A33.45,33.45,0,0,0,110.13,286.63Z"/></svg>