<svg id="shapes" xmlns="http://www.w3.org/2000/svg" viewBox="0 0 400 457"><defs><style>.cls-1{fill:#7ca4ae;}</style></defs><path class="cls-1" d="M136.81,322.09c2.26,12.11.71,26.18,8.13,38.5,1.39,2.31,3.22,4.22,4.6,6.46,1.15,1.87,3,4.12.8,6.3-1.89,1.84-4.05.49-6-.42-3.88-1.83-5.65-5.49-7.79-8.85-.66-1-.85-3.06-2.47-2.61s-1.67,2.33-1.63,3.84c.06,2,.37,4,.33,6,0,1.76-.75,3.35-2.78,3.57-1.8.2-2.61-1.15-3.26-2.58a2.32,2.32,0,0,0-.18-.46c-1.25-1.73-.07-5.4-3.41-5.29s-4.86,3.21-5.37,5.86c-2,10-3.13,20.05,3.57,29.13,2.07,2.81,5.79,6.4,2.08,9.53-3.32,2.81-5.64-1.84-8.09-3.73-2.23-1.71-4.38-3.6-4.86-6.69-.16-1-.7-2.05-2-1.84-1.54.25-1.5,1.54-1.37,2.74.42,4.13.8,8.27,1.3,12.4.59,5,0,9.7-3.41,13.63-2.78,3.22-7.11,2.78-8.57-.74-.87-2.1-.7-3.66,1.76-4.83,5-2.39,5.78-5.8,2.46-10.22a26.07,26.07,0,0,1-4.26-7.29c-.51-1.52-1.3-2.81-3-2.93s-2.47,1.4-3.1,2.77A29.9,29.9,0,0,1,88.75,408c-1.7,2.69-4.11,2.72-6.43,1s-1.6-3.83.25-5.46c3.94-3.47,4.55-7.93,4.07-12.76-.18-1.71-.71-3.37-2.47-4.05s-2.63.92-3.52,2.06c-2,2.52-4.45,5.1-7.26,1.86-2.41-2.8-.53-5.68,2.23-7.55,3.39-2.3,3.86-5.33,3.17-9.16C77,364,76.5,354.08,80.93,344.52a14.66,14.66,0,0,0,1.61-8.73,3.36,3.36,0,0,0-2.78-3.11c-1.74-.27-2.39,1.25-2.57,2.49C75.56,346,71,356.31,72.38,367.54c.26,2.18.54,4.73-2.5,5-2.65.24-3.73-1.89-4.08-4.19a29.66,29.66,0,0,1,2.13-15.67,55.28,55.28,0,0,0,3.67-17,31.91,31.91,0,0,1,2.81-10.58,32.53,32.53,0,0,0,2.18-19c-1.73-10-1.66-20.14-4.65-30-1.9-6.28.45-13.1-.11-19.82C69.48,228,75.18,201,87.07,175.34c3.22-7,6.65-13.73,7.22-21.61.38-5.18,3.18-9.4,6.88-12.95a12.9,12.9,0,0,0,4.44-10.14c-.2-6.86,3.45-12,8.11-16.54,5.09-4.95,10.88-9.18,13.2-16.49.92-2.88,4-4.24,6.86-5.44a76.25,76.25,0,0,0,23.94-15.89c3.81-3.77,12.95-5.22,17.8-2.38s9.71,2.49,14.36.62c8.44-3.39,17.43-4.13,26.15-6.17,4.15-1,8.27-.09,12.37.57,11.57,1.86,23.16,1.49,34.76.35,8.37-.82,16.5-.71,24.31,3.3,3.54,1.83,5.31,4.13,4.24,7.85-.71,2.49.47,3.66,1.54,5.6,2.44,4.45,3.61,8.85,10.5,8.82,3.48,0,4.84,10.15,1.74,14.19-2.69,3.51-2.43,6.26.28,9.29.44.49.71,1.13,1.12,1.65a57.42,57.42,0,0,1,12.55,29.35c.91,7.37,3.6,14.52,5.67,21.72,7.82,27.22,14.13,54.74,17.38,82.93.8,7,3.65,13.49,5.92,20.1,2.43,7.08,5.13,14.07,7.85,21.06a27,27,0,0,0,8.41,11.59c5.86,4.64,7.63,11.06,8.25,18,.12,1.34.31,3-1.35,3.31-1.51.31-2.44-1-2.81-2.33-.81-2.88-1.26-5.86-2.18-8.7-1.05-3.28-2.26-5.88-6.67-3-4.25,2.8-14.14.33-17.89-3.71-.76-.81-1.14-2.44-2.48-2.13-1.65.38-1.19,2.14-1.42,3.38-1.11,6-1.28,11.48,5.51,14.88,3.39,1.7,2.12,4.95,0,7.2-3.3,3.53-2.65,7.67-2.25,11.8.2,2.06,1.76,3.05,3.52,3.84,1.38.62,2.76,1.43,2.48,3.3-.24,1.6-1.55,2.11-2.91,2.27-2.55.3-3.3,1.85-3.21,4.16q.41,11,.75,21.91c.12,3.62,1.73,6,5.39,6.76,1.51.32,3.1.72,3.27,2.54.2,2.06-1.5,2.89-3,3.47-4.17,1.58-3.64,3.65-.8,6.07a35.34,35.34,0,0,0,4.65,3.77c5.51,3.26,9.94,7.07,10.15,14.23,0,1.37,1.78,2.69,2.77,4,.68.92,1.76,1.81,1,3.06s-2.28,1.21-3.6.84a6.53,6.53,0,0,1-4.89-4.52,21.38,21.38,0,0,0-9.23-12.05c-5.57-3.49-8.4-9.33-12.75-13.84-1.55-1.61-3.06-4.26-5.68-3.16-2.82,1.19-2.24,4.37-1.91,6.68.75,5.25,1.3,10.71,3.21,15.58,3.05,7.82,3.89,16.15,6.56,24a16.39,16.39,0,0,1,.46,3.46c.24,2.19-.25,4.2-2.63,4.69s-3.23-1.58-3.53-3.35c-.94-5.34-6.24-8.54-6.65-14.19a3.17,3.17,0,0,0-3.74-2.61c-2.14.43-1.33,2.26-1.39,3.68-.19,4.41-2.66,6-6.62,4.11a21.88,21.88,0,0,1-7.12-5.38c-1.56-1.76-3.23-2-5.24-.52-6.47,4.76-11.2,4.7-15.5-.07s-4.22-13-.05-18c5-6,4.38-13.34,4.74-20.42.09-1.76-1.36-2.62-2.89-3a47.53,47.53,0,0,0-4.91-.69c-2.35-.26-4.45-1.1-4.5-3.74a4,4,0,0,1,4.13-4.2c4.91-.14,5.76-2.65,4.94-6.91-1.51-7.78.35-15.2,2.77-22.55,1.84-5.57,3.13-11.24,2.18-17.17-.37-2.31-.74-5-3.75-5.11-2.66-.1-4.08,2-4.9,4.3-1,2.82-1.83,5.71-2.78,8.55a10.05,10.05,0,0,1-2.73,4.68c-2.23,2-4.77,3.07-7.08.77s-.55-4.82,1.35-6.38c4.16-3.42,5.1-8,5.25-12.91a7.52,7.52,0,0,0-3.7-7.18c-2.9-1.59-4.53,1.44-6.16,3-3.6,3.44-6.74,7.36-10.23,10.92a32.81,32.81,0,0,1-22.47,10.21c-12.73.76-25.18-.43-37.69-2.29-12.26-1.83-22.46-7.6-31.93-15.28-7.66-6.21-13.91-13.82-21.17-20.4-1.12-1-2.14-3.14-4-2.12-1.54.82-1.54,2.82-1.66,4.49C137.53,311.55,137.21,316.2,136.81,322.09Zm215.28-17.55c-.48-14.15-13-23.36-15.17-36.82C336.33,282.25,340.69,294.8,352.09,304.54ZM89.21,265.13c-1.11-7.17-2.11-14.07-3.3-20.94-.46-2.63-.53-7.08-3.42-6.65-2.4.36-2.92,5.08-2.29,8,1.62,7.24,4.55,14.21,4.12,21.85a2.35,2.35,0,0,0,.36.92c.42.9.78,1.93,2,2s1.59-1,1.84-2S89,266,89.21,265.13Zm237-42.4C325,226.82,324,230.39,323,234c-1.48,5.14,1.55,8.9,4,12.79a2.43,2.43,0,0,0,3.09,1c1.11-.58.41-1.76.25-2.69a82.72,82.72,0,0,1-1.54-16.32C328.78,226.83,328.26,225.11,326.18,222.73Z"/></svg>