<svg id="shapes" xmlns="http://www.w3.org/2000/svg" viewBox="0 0 400 457"><defs><style>.cls-1{fill:#7ca4ae;}</style></defs><path class="cls-1" d="M125.41,279.13c-.62,4.12.76,7.6,1.84,11.37,1.41,4.95,3.32,10.54,1.41,15.89-.52,1.45-.21,4.63-3.18,4.27-2.63-.33-5.32-1.35-5.81-4.41-.26-1.62-1.59-2.51-1.86-4,.75-1.7,2.17.65,3.1-.75-1-1.93-3.6-2.8-3.25-6.06.43-4-.06-4.35,3.49-6.8l.39-.27c-2.44-3.38,3.56-7.78-1.37-11-2.47-1.58-2.79-3.67-1.61-6.55.67-1.65,1.08-1.75,2.32-1.13.86.43,1.92,1.37,2-.47,0-.88,1.09-3.11-1.55-2.44-2.36.6-2.33-1.2-2.74-2.56a16.31,16.31,0,0,1-.34-7.91c1.6-8.55,1.58-17.2,1.64-25.85,0-3.8.83-7.17,4-9.75s2.19-6.15,1.48-9.3A164,164,0,0,1,123,151.94c1.81-12.65,6.41-24.89,12.24-36.25a30.19,30.19,0,0,1,17-14.61,6.68,6.68,0,0,0,3.95-3.5c3.29-6.33,12.87-11.33,19.9-10.26,4.62.7,8.92,1.09,12.37-3a5.32,5.32,0,0,1,4.1-1.59c10.3-.05,20.56-1.74,30.89-.81a18,18,0,0,1,6.22,1.68c1.19.57,2.6,1.47,3.78.65,3.91-2.72,7.58-.49,9.19,2.06,2.95,4.67,8.48,5.2,12.09,9.13,2.67,2.92,8.69,4.09,13.14,6.23a15.24,15.24,0,0,1,6.88,6.24,38.8,38.8,0,0,0,5.57,7.66,31.81,31.81,0,0,1,9.38,18.33c1.41,10.2,6.34,19.49,7.11,30a140.57,140.57,0,0,1-2.44,38.17c-1,4.9-.3,10-2.21,14.74a2.08,2.08,0,0,0,.92,2.6c4.08,2.87,3.76,7.37,3.53,11.37-.53,9-1.55,17.91-1.33,26.92a1.38,1.38,0,0,1,0,.5,13.24,13.24,0,0,0,1.41,13.12c2,2.73.9,4.77-.64,6.7-2.23,2.8-1.78,5.3-.35,8.29,3.87,8.1,2.3,19.81-3,24.6-.95.86-1.74,2.24-3.34,1.56s-1.55-2.28-1.44-3.47c.68-7.56-1.32-15.35,2-22.69.52-1.17,1.49-2.6,0-3.62s-2.24.59-3.34,1.25c-3.64,2.21-4.54,5.72-5.56,9.53-9.09,34-31.07,51.66-65.2,53-23.62.95-45.54-7.8-62.43-25.61-7.76-8.18-11.73-18.48-13.61-29.56-.73-4.3-1-8.33-7.67-6.09C128,286.58,127.05,282.07,125.41,279.13Z"/></svg>