<?xml version="1.0" encoding="utf-8"?>
<!-- Generator: Adobe Illustrator 24.3.0, SVG Export Plug-In . SVG Version: 6.00 Build 0)  -->
<svg version="1.1" id="shapes" xmlns="http://www.w3.org/2000/svg" xmlns:xlink="http://www.w3.org/1999/xlink" x="0px" y="0px"
	 width="400px" height="457px" viewBox="0 0 400 457" style="enable-background:new 0 0 400 457;" xml:space="preserve">
<style type="text/css">
	.st0{fill:#7CA4AE;}
</style>
<path class="st0" d="M335.9,340.6c-0.1-0.8-0.3-1.7-0.6-2.7c0,0,0-0.1,0-0.1c-0.4-1.4-0.8-2.9-1.4-4.4c-1.7-5.2-4.1-11.7-7.2-15
	c0,0,0,0-0.1-0.1c-4.4-6.3-10.9-8.8-19.9-7.9c-2.4,0.2-4.9,0.3-3.6-3.2c3.4-8.8,5.5-18.1,9.7-26.7c3.1-6.3,8-11.9,8.6-19.5
	c0.5-5.8,0.5-11.7,2.5-17.3c1.8-5.3,2.5-10.6,1.6-16.2c-0.7-4.4-0.2-8.9,1.2-13.3c3.4-11.5,4-23.1-0.1-34.7
	c-1.2-3.3-1.7-6.8-0.7-10.3c0.9-3.1,0.3-6.2-0.8-9.3c-1.5-4.4-2.8-9-1.6-13.7c2.5-9.8-1.9-22.7-10-28.5c-4.2-3-6.9-6.5-6.3-12.1
	c0.6-5.5-2.2-10-4.8-14.4c-0.7-1.2-1.6-2.5-3-2.2c-3.5,0.8-4.2-1.1-4.7-3.9c-0.2-1.4-1.1-3-2.1-3.9c-3.1-2.6-5.5-5.4-6-9.8
	c-0.3-2.4-2.6-3.8-5-4.3c-2.2-0.5-3.8-1.5-5-3.6c-3.6-6.4-3.9-6.4-10-2c-1.5,1.1-3.1,2.3-5,1.3c-1.8-1-1.4-2.9-1.2-4.5
	c0.3-2.8-0.1-5.4-2-7.5c-1.4-1.6-2.9-1.8-3.4,0.9c-0.2,1.1-0.1,2.3-0.4,3.5c-0.4,1.9-0.5,4.3-3,4.7c-2,0.3-3.3-1.3-4.1-3
	c-0.3-0.6-0.7-1.4-1.2-1.5c-6.4-1.1-10.6-7-17.3-7.6c-2.3-0.2-3.3-0.7-3.4,2.1c-0.1,2.7-0.7,5.4-3.3,6.9c-4.9,2.8-8.6-4.6-13.7-1.8
	c-0.7,0.4-2.5-0.5-2.8-1.7c-1.3-5.2-4.8-4.7-8.6-3.6c-1.7,0.5-3.3,0-4.9-0.5c-3.1-0.9-5.8-0.3-8.7,1.1c-5.7,2.9-10.9,6.5-15.7,10.6
	c-3.1,2.6-6.2,3.9-9.7,0.7c-1.5-1.4-3.4-1.4-5.2-0.9c-12.9,3-25.7,6.5-38.2,10.9c-7.7,2.8-11.4,9-10.2,17.2c0.5,4-1,7.2-3.1,10.2
	c-2.9,4.1-5.8,8.3-6.7,13.3c-1,5.4-3.3,10-7.1,14c-4.5,4.7-4.1,9.9-1.1,15.1c1.1,2,2.4,4,3.6,6c2,3.4,2.5,7,0.5,10.5
	c-1.8,3.1-1.8,6.1-0.4,9.1c4,8.6,1.6,17.3,0.1,25.7c-2.9,16.2-0.5,31.4,6.7,45.8c1.4,2.8,2.6,4.7-0.1,7.3c-1.3,1.3-1.6,3.3-1.2,5.2
	c1.1,5.4,1.6,11,4.1,15.9c7,14,10.9,28.9,13,44.4c0.7,5.2,0,8-5.4,10.2c-9.2,3.7-16.5,10-19.3,20.2c-0.1,0.3-0.2,0.7-0.3,1.2
	c0,0.1,0,0.1,0,0.2c-1.2,5.1-1.8,14.8,0.8,19.6c0,0,0,0,0,0c3.7,9.6,15.6,20.5,25.4,20.1c9.7-0.5,18.4-2.7,25.4-9.8
	c2.4-2.4,4.1-2.5,7,0c6.4,5.6,11.6,12.2,17.2,18.4c15.9,17.4,42.8,18.2,60.8,6.2c20.2-13.4,37-30.4,51.8-49.4
	c1.1-1.4,1.9-3.9,3.9-3.3c2.2,0.6,1.8,3.3,2.1,5.2c1.3,8.4,2.6,16.3,8.5,23.5c8.7,10.6,20.4,10.5,31.4,5.4c4.7-2.2,7.4-6.2,9.5-10.5
	C335.9,359.5,337.7,350.2,335.9,340.6z M128.2,376.4c-9.5,6.1-27.1,4.6-32.3-9.6c-1.1-2.9-2.2-5.7-3-8.7c-0.2-1-0.4-2-0.7-3
	c-0.1-1,0-2.2-0.7-3c-0.6-3.1-0.8-6.6,0.6-11.2c2.4-6.5,7.5-10.9,12.8-14.8c6.8-5,10.2-3.6,12.3,4.4c2.7,10.4,7.2,19.9,14.1,28.4
	C139.5,368.8,139.3,369.2,128.2,376.4z M322.5,372.9c-8.5,8.8-21.6,8.6-28.6-1.5c-4.6-6.6-8.8-13.4-7.3-22.8
	c1.9-11.9,0.8-24.6,14.3-30.9c0.3-0.1,0.5-0.5,0.7-0.7c1.5-2.1,3.7-2.7,6.1-2.8c5.9-0.1,11.2,1.1,15.5,5.5c3.3,3.3,9.7,13,9.5,29.6
	C331.8,358.1,329,366.2,322.5,372.9z"/>
</svg>
