<svg id="shapes" xmlns="http://www.w3.org/2000/svg" viewBox="0 0 400 457"><defs><style>.cls-1{fill:#7ca4ae;}</style></defs><path class="cls-1" d="M313.82,205.81c9.2.78,13.1,6.22,10.5,14.38C319.6,235,312,248.56,305.7,262.71c-2.25,5.09-7.73,6-12.52,5.15-5.31-.95-6.65,1.2-7.3,5.73-2.17,15.17-8.11,28.42-20.09,38.48-4.72,4-9.14,8.31-14.09,11.93-7.9,5.79-16.17,11.07-24.45,16.34-21,13.35-53.35,2.8-64-13.6-4.66-7.16-11.62-12.35-16.82-19.05-10.06-12.95-16.7-27.19-15.6-44.13.2-3.22-.75-5.29-4.23-6.19a9.48,9.48,0,0,1-6.94-7.27c-3.66-15.85-7.81-31.67-6.83-48.17.25-4.27.35-8.75,5.92-10.31,2.72-.77,1.74-3.69,1.73-5.7a287.47,287.47,0,0,1,6.91-62.43c2.78-12.93,8.29-24.94,12.19-37.5a12.35,12.35,0,0,0,.92-2.31c.35-4.11,1.58-6,6.27-4.07,3.12,1.3,4.73-.66,4.8-4.21.07-3.08-1.06-7.23,4.72-7.11,1.55,0,1.16-3.14,2-4.74,1.21-2.3,2-4,5.1-1.75s4.91.48,5-3,.58-8.2,3.57-9.39c4.94-2,6.52-6.66,10.06-9.64,3.1-2.6,6.27-.46,9.34-1.09,1.26-.25.61,1.83.36,2.9-2.19,9.17.51,11.92,9.56,9.62a65.65,65.65,0,0,0,6.56-2.33c1.24-.46,2.61-1.37,3.81-.68,5.37,3.06,10.58,1.11,16,.11,2.28-.42,6.62-3.25,6.71,2.88,0,1.21,1.68,1.43,2.9,1.23,1.8-.3,3.6-.66,5.39-1C247,50.51,251.47,48,255,53.07a3,3,0,0,0,2.32.71c4.92-.35,8.63,0,8.46,6.78-.07,2.68,4.26,3.17,6.9,3.29a37.23,37.23,0,0,0,9.38-1c3.37-.72,5.5,0,6.36,3.55.95,3.89,4.74,6.93,3,11.7-.59,1.65,1.73,1.66,2.89,2,5.2,1.29,8.63,4.12,9.1,9.79a2.53,2.53,0,0,0,.39,1.43c9.71,10.46,7.75,24.3,10.45,36.73,3.22,14.84,3.78,30.05,4.73,45.15A76.06,76.06,0,0,1,313.82,205.81Z"/></svg>