<svg id="shapes" xmlns="http://www.w3.org/2000/svg" viewBox="0 0 400 457"><defs><style>.cls-1{fill:#7ca4ae;}</style></defs><path class="cls-1" d="M273.88,280.67c-10.31,16.06-24.69,27.09-40.37,36.86-21,13.1-41.27,10.83-61.19-2.3-3.74-2.47-7.27-5.25-10.93-7.85-.19-.14-.59,0-1.19.07,1.2,4.28,3.71,7.8,5.92,11.42,7.41,12.09,13.08,24.67,12.72,39.31-.15,6.27-2.23,12.09-3.7,18.05a17.61,17.61,0,0,0-.12,9.28c3.56,13.07,1.2,24.86-7.06,35.77-6.14,8.11-12.18,16.21-19.74,23.09-2.41,2.2-4.19,5.08-6.93,8.47a56,56,0,0,1-1.86-13.33c-.09-2.93,1.09-7-4.52-5.19a2,2,0,0,1-1.7-.69c-.61-.84,0-1.67.72-2.09,5.82-3.5,3.5-7.17.3-10.91-.76-.88-1.42-1.85-2.14-2.76-5.09-6.34-6.15-6.27-11.79-.24-3.24,3.45-7.17,6.22-10,10.3-.44-5.94,2.21-10.78,5.2-15.13,2.76-4,2.82-6.4-1.48-9.1-13.92-8.78-16.44-22.25-14-37.13,1.19-7.23-.78-12.75-5.83-17.54-3.16-3-6.25-6-7.41-10.41-.49-1.88-2-3.42-4-3.26-7.24.55-14.7.33-21,4.89-5.24,3.78-6.61,8.88-2.89,14.23,4.22,6.07,8.35,12.79,17.44,12.06a1.94,1.94,0,0,1,2.34,2c0,1.24-.94,1.61-1.92,1.94a9.14,9.14,0,0,1-5.38,0c-9-2.44-19.31-13.89-20.68-23.16-1.4-9.49,4.18-16.79,14.9-19.6,3-.8,6.2-1,9.05-2.64,1.73-1,2.52-2.09,2-4-5.43-18.54-1.22-37,.42-55.47.63-7.17,1-14.29-.5-21.39-3.75-18.47-1.85-36.77,1.31-55.09,1.94-11.28,6.49-21.67,10.21-32.34,3.78-10.87,7.2-21.76,8.9-33.22,1.58-10.6,7.29-19.56,13-28.38,8-12.4,18.85-22.37,29.34-32.53,3.8-3.68,9.42-5.46,14.19-8.14,7.67-4.32,15.21-8.72,21.48-15.18,9.81-10.11,22.58-9.69,35.06-8.07,24.33,3.17,44.71,15.32,63.82,29.87,3.91,3,5.8,7.7,7.85,12a108.35,108.35,0,0,0,6.81,11.6c10.85,17.08,20.06,34.91,24.75,54.8,1.84,7.8,6.59,14.48,8.42,22.39,1.5,6.52,3.14,12.94,2.72,19.68a14.33,14.33,0,0,0,2.77,9.34c4.23,6.17,8.3,12.47,12.34,18.77,5,7.77,7.55,16,3.69,25-.93,2.18.07,3.91.92,5.67,2.15,4.5,4.48,8.92,6.61,13.43,5.83,12.33,5.82,25.11,2.61,38-3.77,15.22-9,30-14.29,44.71-2.88,8-2.33,9.72,4.65,14.66S356.6,362.84,363,368.61c8.12,7.31,8.36,18,9.1,27.79,1,13.79.21,27.46-5.51,40.66-3.85,8.88-10,14.19-18.54,17.52-1.42.55-1.45.48-5.06-.12,4.42-7.66,9.79-14.68,13.14-22.81,3.79-9.19,6.55-18.67,3.69-28.66-1.46-5.1-3.5-10.11-9-12.51-2.74-1.2-3.68-.29-3.27,2.56,2.08,14.38-1.17,28.11-5.12,41.74a13.79,13.79,0,0,1-5.89,8.36c-2.42,1.52-3.71,1.36-3.62-1.83a16.73,16.73,0,0,0,0-2c-.24-2.41,1-6.14-1.39-6.84-2.65-.77-2.21,3.36-3.61,5-5.56,6.7-12,11.42-21.3,10.81-3-.19-3.93-1.09-2.45-4,7.71-15.19,4.93-30.79,1.42-46.33-.49-2.2-1.72-5.38-4.63-5.11-2.52.24-3.8,2.78-4.57,5.36a18.2,18.2,0,0,0,.38,11.73c3.49,9.77,2,18.83-4.73,28.29-.56-4.92-.67-8.83-2.13-12.43-.89-2.2-.54-5.49-3.77-5.84s-4.78,2.29-6,4.55c-4.84,8.94-9.3,18.12-10.57,28.37-.44,3.53-1.23,4-4.14,2.15a17.82,17.82,0,0,1-6.71-7.88,51,51,0,0,1-2.8-35.31c1.55-5.51,5.78-9.7,8.94-14.34A23.26,23.26,0,0,0,269.3,382c-.78-9.89.7-19.05,6.76-27.44,4.45-6.16,1.46-12.83-.95-19-1.08-2.73-3.32-5-4.74-7.61-1.59-2.93-2.83-2.06-4.23,0-5.91,8.82-14,14.94-23.42,19.63a64.06,64.06,0,0,0-13.3,8.74c-9.07,7.8-8.85,18.27-8.07,28.88.15,2,2.18,4.81,0,5.84-2,1-3.44-2-4.76-3.61-6.59-8.14-7-17.67-5.72-27.42.49-3.91,2.66-7,5.63-9.7,8.25-7.5,16.7-14.62,26.32-20.42,14.23-8.57,21.8-22.43,27.57-37.41C271.88,288.69,272.74,284.63,273.88,280.67ZM156.66,391.78c.19-3.6-.16-7-2.12-10.14-4.49-7.19-9.7-13.55-18.15-16.24-1.61-.51-3.29-2.79-4.85-1-1.1,1.23.36,3.21,1.14,4.57,4.69,8.22,4.92,16.7,2.13,25.55a32.48,32.48,0,0,1-3.88,8.61c-1.6,2.34-1.42,4,1,5.84a25.91,25.91,0,0,1,8.52,10.26c.71,1.66,2,3.05,3.63.8C150.37,411.51,156,402.73,156.66,391.78Zm5.55-39.65c.23-10-12.5-27-21.94-29.39a2.6,2.6,0,0,0-2.34.26c-2.88,2.08-4.05,13-1.39,15.3,6.89,6,14.67,10.8,22.29,15.79C161.18,355.62,162.15,354.62,162.21,352.13Zm-53.37,27.15c-.72,8.76,3.79,14.82,10.09,20,1.22,1,2.08,1.11,3.41,0,7.69-6.45,6.66-21.55-2.11-26.65-2.91-1.7-6.21-6-8.81-4.33C108.35,370.24,108.85,375.36,108.84,379.28Zm55.44,10.55c-1.91,14-7.11,25.5-15.9,35.26-3.57,4-4.19,8.26-3.13,13.7,1.89-1.68,3.51-3,4-4.91,1.8-6.62,6.41-11.59,9.78-17.28a147.48,147.48,0,0,0,7.14-13.13C168.27,399,168.1,394.53,164.28,389.83Z"/></svg>