<svg id="shapes" xmlns="http://www.w3.org/2000/svg" viewBox="0 0 400 457"><defs><style>.cls-1{fill:#7ca4ae;}</style></defs><path class="cls-1" d="M141.34,292.74c-.6,10.77.18,20.34.81,29.91a3.47,3.47,0,0,0,2.52,3.26c4.51,1.85,5.21,5.65.93,7.74-5.76,2.81-5.44,7.5-5.09,12.07,1.76,22.51,2.63,45.1,5.44,67.52a148.34,148.34,0,0,0,4.88,23.69c-14.94-.05-22.59-10.06-28.75-21.94-2.28,2.43.88,5.15-1.78,6.09-2.49.88-4.31-1.23-6.12-2.64-4-3.15-6.2-7.78-9.15-11.78-11.64-15.8-23.75-31.29-34.65-47.59C57.09,339.2,51.75,317.7,58.7,293.71c11-38,24.17-75.34,37.41-112.61,8.7-24.5,22-46.75,43-63.14,18.88-14.79,39.8-23.41,64.83-20.08,17.84,2.37,31.91,10.18,43.62,23.41,6.94,7.84,14.32,15.29,21.35,23.06,13.86,15.32,22.62,32.4,25.59,53.35,3.44,24.19,5.23,48.55,8.86,72.68,2.42,16.1,5.68,32.07,8.29,48.14,3.14,19.31,8,38.42,6.81,58.27a22.54,22.54,0,0,1-4,12.06c-1,1.39-2.11,2.92-3.86,2.91-4.56-.05-7.64,2.92-10.12,5.72-6.55,7.42-15.92,7.6-24.26,10.38a6.23,6.23,0,0,1-5.68-1.29c-3.87-3.05-8.21-3.89-13.09-3.79-6.76.14-10.3-5.11-8.35-11.81,2-7,5.07-13.72,6.18-21a48.23,48.23,0,0,0-.32-18.77c-2.45-10.35-4.63-20.78-4-31.54.22-3.83-1.24-4-3.9-1.89-21.91,17.07-45.64,13.87-69.12,4.91-11.16-4.26-20.46-12.33-28.57-21.35C146.94,298.73,144.55,296.2,141.34,292.74Z"/></svg>