<?xml version="1.0" encoding="utf-8"?>
<!-- Generator: Adobe Illustrator 24.3.0, SVG Export Plug-In . SVG Version: 6.00 Build 0)  -->
<svg version="1.1" id="shapes" xmlns="http://www.w3.org/2000/svg" xmlns:xlink="http://www.w3.org/1999/xlink" x="0px" y="0px"
	 width="400px" height="457px" viewBox="0 0 400 457" style="enable-background:new 0 0 400 457;" xml:space="preserve">
<style type="text/css">
	.st0{fill:#7CA4AE;}
</style>
<g>
	<path class="st0" d="M345.3,418.8c1.8,5.8,3.7,10.7,4,16c0.3,5.7-0.5,6.7-6.1,5.3c-12.7-2.9-23.3-8.7-28.7-21.5
		c-1.4-3.2-3-6.3-5.7-8.7c-1-0.9-2.1-2-3.5-1.1c-1.1,0.8-0.5,2.2-0.2,3.3c1.8,5.8,5.1,10.8,8.6,15.7c0.4,0.5,0.7,1.1,1.8,2.7
		c-6.7-0.7-11.3-3.6-15.9-6.5c-10.2-6.7-16.7-16.5-20.2-27.7c-2.5-7.8-2.7-16.4-3-24.6c-0.2-5.2-1.6-8.1-6.3-11.1
		c-12.3-7.7-19-19.7-21.8-33.8c-1.4-7-2.3-14.1-3.5-21.5c-3.5,1.5-5.8,4.4-8.3,6.8c-14.4,14.1-31.7,17.1-51,15.7
		c-21.3-1.5-38-11.8-53.8-24.8c-2.9-2.4-5.2-5.6-8.3-9c2.5,8.9,5.5,16.9,7.1,25.3c1.6,8.7,2.1,17.5,2.4,26.3
		c0.1,2.2-0.3,4.3-1.2,6.3c-0.6,1.5-2.1,3-3.4,2c-4.6-3.4-4.8,0.9-5.7,3.2c-3,8.5-8.7,14.4-16.4,18.7c-2.8,1.5-4.3,2.3-4.9-2.4
		c-2.1-14.9-6-29.4-12.9-42.8c-3.6-7.1-8.2-13.7-12-20.7c-5.5-10-6.7-21.4-8.8-32.6c-2.9-16,2.7-30.6,6.3-45.6
		c5.5-23.3,12.4-46.3,18.1-69.6c5.8-23.7,15.5-45.7,33.3-63.2c3.4-3.4,7.1-6.6,11.4-8.8c8.3-4.2,15.5-9.9,22.9-15.7
		c10-7.9,22.5-8,34.8-7.5c18.4,0.7,34.9,6.8,49.4,17.6c8.6,6.4,16.9,13.6,23.5,22.2c20.1,26.4,36.4,55.1,52.1,84.3
		c11.5,21.5,17.3,44.7,22.4,68c2.9,13.4,2.9,27.4,4.5,41.1c1.1,9.7,1.9,19.7,5.3,28.9c3.7,10,5.1,20.3,5.5,30.8
		c0.2,4.3,1.7,7.2,5.4,9.3c3.3,1.9,6.2,4.5,9.3,6.7c4.3,3.1,4,7.9,4.4,12.2c0.5,5.8,0.1,11.7,0.1,17.5c0,1,0.2,2.2-0.8,2.7
		c-1.5,0.7-2-0.9-2.5-1.8c-2.8-4.8-6.9-8-12-10.1c-4.1-1.7-5-1-4.5,3.5c1.2,10.7,7.9,17.6,16,23.6c1.8,1.3,5.7,1.9,5.1,3.8
		c-0.8,2.6-4.4,3.1-7.2,3.4c-7.5,1-14.2-0.3-19.3-6.7C349.6,422.6,348.4,420.3,345.3,418.8z"/>
</g>
</svg>
