<svg id="shapes" xmlns="http://www.w3.org/2000/svg" viewBox="0 0 400 457"><defs><style>.cls-1{fill:#7ca4ae;}</style></defs><path class="cls-1" d="M323.15,402.93c-6.16-1.72-9.78-5.9-13.35-10a49.79,49.79,0,0,1-8.08-12c-1.05-2.3-2.08-2.2-3.31,0-3.43,6.18-2.49,12.2.55,18.12,1.36,2.64,3,5.14,4.63,7.94-7-.86-16.3-9.47-18.66-16.45-1-2.86-.37-7.52-3.57-8.09-2.87-.5-5,3.41-6.83,5.92-8,11-7.57,22.95-3.55,35.19.76,2.32,2,4.49,3.58,8a17.1,17.1,0,0,1-6.69-6.49A186.33,186.33,0,0,1,246.34,383c-3.55-10.07-4.16-20-.78-30.3,3.1-9.44,7.85-18,12.89-26.4a91.09,91.09,0,0,0,7.6-16c-2.35-.51-3.32,1-4.41,2.07-13.35,13-29,22.87-44.54,32.71-10.61,6.7-33.9,3.29-43.12-5-9.55-8.54-19.29-16.85-28.16-26.12-1.12-1.17-2.52-3.11-4-2.55-2.09.78-.9,3.23-1,4.92-.23,7.55,2.62,14.33,5.59,21,2.22,5,4.91,9.83,6.43,15.15,4.15,14.5.17,27.63-7,40.08-9.9,17.19-24.9,29.23-41.14,39.83-6.66,4.35-12.72,9.72-20.23,12.72-1.08.43-2.1,1-3.21,1.37s-2.1.2-2.5-1c-.32-.92.4-1.59,1.12-2,4-2.24,6.81-5.79,9.93-9,3.64-3.76,5.42-8.24,6.21-15.06-11.92,10.31-23.33,19.24-40.12,19.22,3.33-3.06,5.64-5.58,8.33-7.57,7.59-5.59,11.2-13.87,15.14-21.93,9.22-18.84,11.45-39.18,12.26-59.72.61-15.62,1.29-31.23.13-46.9-1.49-20,1.64-39.89,3.28-59.78,1.32-16.09,2.15-32.21,3.65-48.27,1.66-17.74,6.29-34.67,15.15-50.28a33.37,33.37,0,0,0,2.65-5.36c5.4-15.46,14.79-28.44,26.52-39.37,8.87-8.25,19.9-13.75,30.78-19.21,14.16-7.13,28.79-8,44.16-5.24,8.62,1.52,17.51,1.54,26.25,2.46,7.53.79,13.86,4.55,19.53,9.22,6,5,11.62,10.45,17.44,15.67a37.63,37.63,0,0,1,5.61,7c17.66,25.58,26.19,54.33,29.4,84.9,2.25,21.52,3.23,43.14,4.16,64.75.71,16.48,1.45,33,.88,49.45-.65,19-2.53,37.87-8.37,56.12-3.83,12-1.31,22.62,6.53,32.21,1.16,1.41,2.28,2.86,3.38,4.33C323,401.42,322.94,401.81,323.15,402.93Z"/></svg>