<svg id="shapes" xmlns="http://www.w3.org/2000/svg" viewBox="0 0 400 457"><defs><style>.cls-1{fill:#7ca4ae;}</style></defs><path class="cls-1" d="M193.38,359.45c-9.54.66-18.12-1.45-25.3-8.2-2.25-2.12-3.62-4.76-5.17-7.3-2.84-4.62-6.18-9-11.17-11.05-9.66-4-14.24-11.84-16.6-21.09-3.79-14.81-7.65-29.65-8.32-45.07-.14-3.33.75-6.57.23-9.95s-.55-7-3.51-9.5a2.9,2.9,0,0,1-.89-1.75c-1.33-12.78-7.91-24.31-8.76-37.23-.38-5.78,3.87-4.05,6.45-4,5.3,0,6-.43,4.84-5.81a162.27,162.27,0,0,1-1.44-62,54.31,54.31,0,0,1,9.2-22.87c5.24-7.44,9.26-15.72,14-23.5,6.47-10.52,15.56-17.25,27.87-19.84,9.75-2.06,19.39-4.63,29.33-5.59,26.79-2.59,51.43,2.62,72.74,20.07a83.7,83.7,0,0,1,21.64,27.55c7.89,15.57,12.58,32,11.84,49.41a178.76,178.76,0,0,1-5.08,37.52c-1.71,6.61-1.33,6.73,5,5.29,7.44-1.68,9.63.19,10,7.84.5,10.5-2.49,19.93-7.65,28.94a138.65,138.65,0,0,0-13.11,30.56c-1.07,3.72-2.65,6.82-7.1,7.26-3.69.37-3.6,3.52-3.9,6-1,8.66-4.05,16.78-6.48,25.07-2.36,8.07-7.73,14-14.28,18.63-9.2,6.5-18.28,13-26.57,20.75-6.36,5.94-15,7.75-23.54,8.4C209.62,358.62,201.5,359,193.38,359.45Z"/></svg>