<svg id="shapes" xmlns="http://www.w3.org/2000/svg" viewBox="0 0 400 457"><defs><style>.cls-1{fill:#7ca4ae;}</style></defs><path class="cls-1" d="M210.57,366.5q-14.15-1.22-28.28-2.42a13.57,13.57,0,0,1-8.37-4c-18.57-17.54-31.54-38.9-42.29-61.8-2.52-5.37-2.91-11.29-3.62-17s-5.79-7.36-9.08-10.5c-1.71-1.64-3.34.79-4,2.9-2.25,7.26-3.29,7.28-10.2,4.79-7.6-2.73-9.9-8.32-10.19-15.42-.17-4.11-.52-7.87-4-10.79-1.68-1.42-2-3.8-1.92-6,.2-5.31-.56-10.63.33-16,.48-2.86-.51-5.62-1.81-8.16-3.11-6.06-3.42-12.4-2.16-19,1.18-6.12.48-12.3.31-18.44-.09-3.38-2.65-5.13-5.39-6.63-6.27-3.41-7.33-5.43-5.39-9.79,3.1-7,6.74-8.69,13.34-6.36,1.75.62,3.82,2.35,5.17-.34,1.09-2.18.19-4.09-1.57-5.79-5.87-5.68-3.51-16.6,4.34-19.24,9.3-3.13,14.53-9.42,16.08-19,1-6,2.85-11,9.18-13.66,4.1-1.73,4.11-4.52,1-7.82-2.26-2.35-4.3-4.72-3.54-8.31a2.79,2.79,0,0,1,2.15-2.47c1.49-.28,2,.8,2.44,2A18.05,18.05,0,0,0,124.58,91c2.84,4.21,8.9,3.73,10.61-1.22,2.35-6.78,6.37-11.52,13-14.21a5,5,0,0,0,2.55-2.25c3.56-8.27,11.17-8.86,18.41-9.42,6.73-.51,13.15-.51,17.4-7.24,1.9-3,5.54-3.21,9.07-2.48a45.83,45.83,0,0,1,16.5,6.8c6.29,4.23,12.74,3.73,19,.86a19.41,19.41,0,0,1,19.06,1c4.75,2.86,9.65,4.09,14.93,4.87,7.08,1,9.62,4.34,9.44,11.56,0,.17,0,.33,0,.5-.33,10.58.46,11.23,10.92,9.39,3.33-.58,7.15-1,9.08,2.25,1.81,3.07,2.68,6.71.1,10.32-2.24,3.13-.78,5.39,2.79,5.2,8.17-.44,13.43,2.75,15.36,10.91a1.48,1.48,0,0,0,.5.85c6.24,4.33,6.7,10,4.26,16.66-.89,2.41,0,4.7,3.06,5.17,7.77,1.2,14.29,4.82,20.24,9.89,5.2,4.43,5.62,7.94.76,12.9-1.89,1.93-4,3.71-2.87,6.85.54,1.48.58,3.58,2.81,3.6,1.93,0,2.87-1.45,3.51-3.08a8.54,8.54,0,0,0,.43-4.9c-.23-1.16-.36-2.51,1.17-2.85,1.3-.29,2.11.69,2.76,1.71a7.8,7.8,0,0,1,1,4.33,39.29,39.29,0,0,0,.82,10.42,6.9,6.9,0,0,1-.46,5.37c-2.87,4.58-5,9-3.61,14.86.72,3-2.59,4.53-5.07,5.33-4.34,1.4-4.74,3.9-3.93,8.05,2.54,13.09,2,25.85-5.88,37.36-4.24,6.18-8.87,11.58-17.38,11.42-3-.06-2.58,2.59-2.17,4.52a29.9,29.9,0,0,1,.18,9.9c-.82,6.92-4.22,11.79-10.45,14.71-2.42,1.14-4.76,2.56-3.49,5.59s4.05,3.65,7.14,2.77a6.89,6.89,0,0,1,.95-.29c2.07-.31,4.82-3,6,.36,1.06,3.08-2.05,4.64-4.41,5.77-6.63,3.18-18.15-.41-22.92-7.51-2.38-3.55-3.26-2.58-4.74.41-7.09,14.21-16.25,27.09-25.6,39.85-3.13,4.27-7.58,6.92-11.85,9.76a22.34,22.34,0,0,0-5.89,5.28C230.85,361.91,222.69,368,210.57,366.5Z"/></svg>