<svg id="shapes" xmlns="http://www.w3.org/2000/svg" viewBox="0 0 400 457"><defs><style>.cls-1{fill:#7ca4ae;}</style></defs><path class="cls-1" d="M150.46,374.93c-4.07-2.46-3.85-6.52-6.81-8.9-1.06,3.93,1.56,6.48,2.59,9.43.47,1.34,1.85,2.91.29,4.07-1.38,1-2.79-.22-4-1.1-3.51-2.51-8.2-2.21-11.66-4.9a1.87,1.87,0,0,0-1.76.28c-.7.69-.26,1.59.25,2.24,2.49,3.21.76,3.67-2.26,4-3.82.47-7.38.91-11.16-.85-2.61-1.21-6.58.21-8.09,1.41-3.65,2.9-5.4.52-6.79-1.47-5.24-7.48-10.65-14.85-14.9-23-4-7.78-5.15-15.93-5.4-24.53-.66-23.69,2.87-47.08,4.52-70.6,1.55-22.06,4.54-44,7.74-65.83,3.93-26.9,13.73-51.46,31.87-72.5,18.34-21.27,40.21-36.81,67.36-44.31,16-4.42,31.62-2,46.77,4.53,17.27,7.38,29.08,21.33,41.85,34.15a10.3,10.3,0,0,1,2,3.42,298.48,298.48,0,0,1,20.64,81.37c3.21,29.9,7.6,59.66,11.32,89.51,1.63,13,2.67,26.11,4.37,39.13,1.43,10.95,11,27.58,24.86,30.17,3.11.58,6.16,1.47,9.2,2.32,2.74.77,3.18,2.14.94,4.14-7.28,6.5-14.92,11.89-25.14,13.27-10.38,1.39-20.78,3.43-29.15,10.69a3.7,3.7,0,0,1-2.75.9c-4.1-.95-6.78-1.5-5.93,4.74.34,2.42-4.54,3.4-7.54,3.23-2.68-.16-4.18.28-5.26,3.05-1.33,3.4-3.42,2.73-6.27.85-4.58-3-5.62-7.16-5.88-12.1a18.45,18.45,0,0,0-1.88-6.16c-.75-1.71-.69-4.76-3.07-4.54-2.82.26-3.79,3.19-3.88,5.71-.18,5.64,0,11.29,0,16.94,0,1.79,2.07,4.53-.53,5.13-2.2.51-3.3-2.5-3.91-4.48-2.82-9.21-6-18.31-7.2-28-1.52-12.43-1.2-24.88-.87-37.33a76.38,76.38,0,0,0-.92-16.89c-.3-1.56.46-3.75-1.45-4.43s-3.37,1-4.78,2.14c-5.21,4.11-9.93,8.78-16.15,11.62-12.72,5.8-25.9,6.7-38.77,2a107,107,0,0,1-34.22-20.24c-1.29-1.14-2.41-3.33-4.53-2.29s-2.71,3.23-2.78,5.51c-.25,9.14-.46,18.25,1.43,27.31,1.93,9.27,2.95,18.74,7.09,27.44C150.22,372.06,150.16,373.08,150.46,374.93Z"/></svg>