<?xml version="1.0" encoding="utf-8"?>
<!-- Generator: Adobe Illustrator 24.3.0, SVG Export Plug-In . SVG Version: 6.00 Build 0)  -->
<svg version="1.1" id="shapes" xmlns="http://www.w3.org/2000/svg" xmlns:xlink="http://www.w3.org/1999/xlink" x="0px" y="0px"
	 width="400px" height="457px" viewBox="0 0 400 457" style="enable-background:new 0 0 400 457;" xml:space="preserve">
<style type="text/css">
	.st0{fill:#7CA4AE;}
</style>
<g>
	<path class="st0" d="M226.3,387c-7.4,0.5-15.1-1.1-22.7-2.7c-7.3-1.5-13-6.5-17.8-11.5c-10.8-11.3-23.3-21-32.6-33.7
		c-4.8-6.5-10.7-9-18.2-9c-8.9,0-16.9-3.2-25-6.4c-5.8-2.3-8.6-7.6-12.2-12.2c-8.6-11.1-14.5-23.9-22.5-35.3
		c-4.4-6.3-4.9-13.7-6.4-20.8c-2.5-11.8-7.2-23.4-7.4-35.6c-0.1-15.7-1.3-31.5,5-46.7c4-9.6,6.2-20,8.6-30.2
		c2.7-11.6,10.2-20.2,19.3-27.1c8.5-6.4,17.4-12.2,25.6-19.1c4.3-3.6,6.9-8.4,10.6-12.4c5.3-5.7,11.4-9.2,18.8-10.1
		c12.3-1.4,24.3-3.7,35.7-8.6c5.5-2.4,11.5-2.6,17.2-1.5c9.3,1.7,18.6,2,27.8,0.8c7.4-0.9,12.5,2.7,18,6.7
		c8.6,6.2,17.9,11.1,28.9,12.4c11.6,1.3,20.4,8.4,26.5,17.7c5.9,9,12.3,17.9,17.4,27.3c7.6,14.2,16.8,28,19.4,44.6
		c0.6,3.8,0.5,7.6,0,11.4c-0.7,5.5-1,11,1,16.3c0.4,0.9,0.6,2,0.5,2.9c-1,13.5,0.1,27.3-7.3,39.7c-3,4.9-4.1,10.5-5.8,15.8
		c-3.7,11.2-10.4,20.8-18.1,29.7c-5.7,6.6-10.1,14-13,22.3c-8,23.4-20.7,43.9-38.4,61.2C248.8,383.4,241.2,387.9,226.3,387z"/>
</g>
</svg>
