<?xml version="1.0" encoding="utf-8"?>
<!-- Generator: Adobe Illustrator 24.3.0, SVG Export Plug-In . SVG Version: 6.00 Build 0)  -->
<svg version="1.1" id="shapes" xmlns="http://www.w3.org/2000/svg" xmlns:xlink="http://www.w3.org/1999/xlink" x="0px" y="0px"
	 width="400px" height="457px" viewBox="0 0 400 457" style="enable-background:new 0 0 400 457;" xml:space="preserve">
<style type="text/css">
	.st0{fill:#7CA4AE;}
</style>
<path class="st0" d="M361.8,429.4c-6.8-8.4-13.5-16.8-15.1-28.2c-0.5-3.5,0.2-6.6,1-9.8c6.9-26.1,8.5-51.9-5-76.8
	c-1.4-2.6-1.8-5.7-2.6-8.6c-4.2-15.5-2.1-31.5-2.7-47.2c-0.8-20.8-2.1-41.4-6.3-62c-6.6-31.8-14.3-63.1-29.7-91.9
	c-4.1-7.6-6.9-16-12.7-22.6c-16.1-18.4-36.6-30.8-58.6-40.7c-7.5-3.4-15.6-4.8-22.5,1.7c-4.9,4.6-9.2,4.5-15.2,1.7
	c-11.3-5.4-22.1-4.3-32.8,3.3c-12.6,9-22.3,21-33.8,31c-3.8,3.3-7.8,6.9-10.1,11.6c-8.8,18.2-19,35.9-27.4,54.3l0,0c0,0,0,0.1,0,0.1
	c-4,8.7-7.5,17.7-10.3,27c-2.9,9.6-5.2,19.3-6.4,29.2c-4,19.6-6.3,37.6-8,50.2c-1.3,9.9-6.5,21.2-11.5,33.1h0
	c-8.9,15.3-15.6,30.5-8.3,55.9c1.6,6.8,3.9,13.4,7.7,19.3c4.2,6.5,5.5,13.5,6.5,20.7c0.4,2.6,0.6,5.3,0.5,8
	c-0.3,11.7-1.8,23.1-11.3,31.4c-3.3,2.9-2.4,4.5,0.8,6.1c7.1,3.7,14.9,5.8,22.7,4.4c6.5-1.2,9.5,1.5,12.2,6.4
	c3.7,6.7,10.2,10.1,17,9.4c6.6-0.7,12.6-0.2,18.9,1.2c6.3,1.3,8.9-1.2,9.4-7.4c1.4-16.6,1.7-33.2,4.6-49.7
	c1.4-8.1,3.1-16.5,0.9-24.8c-1.5-5.9-1.1-11.3,0.5-17.1c3.6-12.8,4.1-25.5-0.7-38.3c-3-8.1-5.7-16.4-6.8-25
	c-0.8-6.6-1.7-13.4,0.8-20.8c0.8,1.3,1.3,1.8,1.4,2.3c3.4,11.6,9.6,21.9,15.5,32.4c2.1,3.7,4.5,7.2,8.1,9.3
	c13.9,8.6,28.3,16.3,44.3,20.1c12.1,2.9,24.2,2.1,35.4-4.2c10.7-6,22.2-10.8,30.4-21.6c0.2,1.5,0.3,1.8,0.3,2.1
	c-3.4,21.8-3.7,43.4,2.4,64.9c1.4,5.1,0.8,10.5-1.7,15.1c-6.9,13.2-9.7,26.8-5.3,41.4c1.2,3.9,0.8,8-0.9,11.8
	c-2,4.8-1.5,6.2,3.9,5.5c5.4-0.7,9.7,1.1,14.2,3.4c4.5,2.2,9.1,4.7,13.9,5.4c9.7,1.4,19.5,1.7,29.3,2.4c4.1,0.3,5.5-1.3,4.2-5.3
	c-1.7-5.4-0.9-10.5,1.9-15.4c1.6-2.7,3.8-4,6.6-2.1c8,5.5,17.2,5.6,26.4,5.9c2.9,0.1,6.8,1.2,8.2-2
	C367.3,433.1,363.5,431.5,361.8,429.4z"/>
</svg>
