<svg id="shapes" xmlns="http://www.w3.org/2000/svg" viewBox="0 0 400 457"><defs><style>.cls-1{fill:#7ca4ae;}</style></defs><path class="cls-1" d="M83.81,352.23c-2.15-6.94,0-12.86,2.1-18.64a26.31,26.31,0,0,1,9.26-12c9.26-7,19.25-13.47,26.62-22.44,8.83-10.74,8.57-23.74,5-36.47a85.4,85.4,0,0,0-14.62-29.27c-5.85-7.61-6.35-16.73-4.36-25.75,2.15-9.73,4.32-19.26,3.3-29.45-1-10.42.33-20.9,1.81-31.28.76-5.33,3.52-9.69,6.92-13.59,8-9.2,15.2-18.66,18.57-30.83,2.68-9.66,11.44-14.35,19.46-19.1,4.53-2.67,8.54-5.51,11.29-10.17s7.18-8.27,11.72-11.42c4-2.76,8.24-3.26,12.08-.3,5.71,4.41,11.66,4.59,18.37,3,12.51-3,24.37-1.93,35,6.42,4.64,3.65,7.33,8,7.66,13.84.08,1.5-.12,3,0,4.49.74,8.26,1.16,16.26,10.47,20.73,10.64,5.1,15.65,14.72,18.09,26a118.72,118.72,0,0,0,5.94,19c4,10.13,2.63,20.28,1,30.45-1.11,6.89-2.82,13.67-4.23,20.51-.52,2.5-.83,4.86,1.89,6.59,2.1,1.34,2.35,3.69,1.63,5.83a85.75,85.75,0,0,0-4.07,26.46c-.05,4.48-1.93,8.73-3.31,13-1.31,4.08-1.85,8.12,1.22,11.78,1.4,1.68.5,3-.63,4.4-2,2.45-3.93,4.93-5.73,7.52-1.29,1.87-2.33,3.64-5.14,2.48-2-.83-3.23.65-3.92,2.18-7.64,16.81-22.66,26.59-36.08,37.89-3.06,2.57-6.53,4.68-9.41,7.41-10.29,9.79-27.83,7.84-37,2.43a157,157,0,0,1-35.1-28.58c-4-4.33-4.14-4.26-6.84.9a14,14,0,0,1-7.46,6.33,332.06,332.06,0,0,0-30.85,15.25C92.88,334.14,89.05,338.15,83.81,352.23Z"/></svg>