<svg id="shapes" xmlns="http://www.w3.org/2000/svg" viewBox="0 0 400 457"><defs><style>.cls-1{fill:#7ca4ae;}</style></defs><path class="cls-1" d="M277.24,294.12c-3.45,5.19-6.3,9-8.65,13.12-9.8,17.14-25.86,26.56-43,34-8.17,3.54-17.21,4.29-26.11-.05-11-5.37-22.63-9.5-31.76-18.35-3.83-3.71-6.17-8.2-9-12.44-2.22-3.29-4.16-6.76-6.83-11.14-1,6.41-1.86,11.7-2.78,17-.74,4.28-1.61,8.58-3.93,12.31-2,3.29-1.75,6.12.41,9.21,7.34,10.43,10.4,22.28,10.44,34.85.05,13.14-4.15,25.26-10.82,36.41-2.88,4.82-7.56,7.87-13.08,9.42A69.78,69.78,0,0,1,108.87,421c-1-.06-2.16.2-2.61-1-.36-.95.48-1.57,1.18-1.93,10.42-5.35,8.52-13.64,6.09-22.72-2.64-9.83-7.49-18.93-9-29.09-.4-2.75-2.31-3.1-4.85-2.81-5.1.6-10.16,1.83-15.35,1.32-1.46-.14-3.48-.21-3.76-1.84-.34-2,2-1.68,3.19-2.37a3.08,3.08,0,0,1,.94-.32c12.83-2.42,14.7-8.44,11.28-22-.93-3.69-2.27-7.26-3.08-11-3.72-17.31.57-34.5.51-51.75,0-11.62,1.56-23.17,1-34.9C93.3,219.73,95,199.09,105,179.91a110,110,0,0,0,9.22-26.34c5.26-22.87,16.6-42.54,31.25-60.71C163.86,70,187.93,62.29,216.15,64.5c6.62.52,13.28.84,19.83,1.83,18.71,2.82,34.51,12.76,50.44,22,5.11,3,9.26,8.18,12.36,13.52,5.42,9.35,11.08,18.62,13.76,29.29,2.84,11.27,8.91,21.14,13.79,31.52,4.63,9.82,8.3,20,9.76,30.82a42.09,42.09,0,0,1,.11,10.46c-3.34,28.58-7.38,57.13-6.4,86,.34,9.94-2.56,18.58-7.45,27-10.09,17.35-11.42,36.2-8.85,55.64.41,3,2.12,4.73,4.7,5.9,9.55,4.33,20.13,1.1,25.38-7.95,1.51-2.6,2.5-1.37,3.58.1,3.63,5,2.73,21.1-.94,26.4-7.69,11.09-18,10.91-27.22,6-17.2-9.12-32.69-20.66-41.26-39.08a45.31,45.31,0,0,1-4.22-22.35c.9-12.27,2.51-24.5,3.67-36.76C277.48,301.78,277.24,298.67,277.24,294.12Z"/></svg>