<svg id="shapes" xmlns="http://www.w3.org/2000/svg" viewBox="0 0 400 457"><defs><style>.cls-1{fill:#7ca4ae;}</style></defs><path class="cls-1" d="M220.82,359.89c-24.21,1.07-39.64-5.65-52.75-18.19a9.66,9.66,0,0,0-1.9-1.61c-16-8.94-24.15-23.77-29.92-40.33-.55-1.57-.86-3.43-2.51-4.15-5.09-2.24-5.1-6.38-4.49-10.93a8.52,8.52,0,0,0-.27-4.42c-6-13-3.65-27.86-9.44-41.14-2.59-5.94-1.2-13.84-.53-20.59,1.1-11.18-.94-21.83-2.41-32.68-1.11-8.23-1.93-16.51-2.61-24.79a14.06,14.06,0,0,1,2.4-9.54,20,20,0,0,0,4.2-12.68c0-7.7,3.59-14.48,7.62-20.86a106,106,0,0,0,11.93-25.2c2.27-7.3,7.34-11.84,14.71-13.51a101.08,101.08,0,0,0,10.87-3.62,9,9,0,0,0,4.09-2.73C179.07,61.74,191,58.37,204.6,62.45a54.8,54.8,0,0,0,24,1.78c16.38-2.23,31.83,1,44.8,12.26,3.48,3,7.73,5,10.21,9.35s4.34,8.9,3.58,14.15a8.78,8.78,0,0,0,2.4,7.84,24.83,24.83,0,0,1,6,10.82c4.12,13.66,10.7,26.73,11.25,41.24.41,10.82,5.14,21.11,3.29,32.13-1.62,9.55-3.45,19.49-1.5,28.8,4.05,19.39-4.71,37-5.93,55.53-.28,4.26.53,9.3-2.47,12.55-6.51,7-6.51,16.42-10,24.49-5.21,12-13.17,21.84-24.4,28.83a22.25,22.25,0,0,0-3,1.84C249,355.88,231.86,357.83,220.82,359.89Z"/></svg>