<svg id="shapes" xmlns="http://www.w3.org/2000/svg" viewBox="0 0 400 457"><defs><style>.cls-1{fill:#7ca4ae;}</style></defs><path class="cls-1" d="M146.44,317.66c1.39,11,6.87,19.23,15.63,25.47.54.39,1.2.6,1.74,1,2,1.38,5.69,1.94,5.65,4.33-.05,3-3.83,3.88-6.26,5A22.2,22.2,0,0,1,149,354.63c-4.05-.89-8.07-2-12.1-3-4.43-1.14-8.26-2.23-13.1.7-6.52,4-15.68-2.13-17.08-10.15-.84-4.86-2.25-9.67-2.67-14.56-.51-5.85-3.73-9.74-7.76-13.4-14.62-13.31-23-30.32-28.65-48.93a32,32,0,0,1-.91-7.41c-1-18,1.23-35.48,5.73-52.91,6-23,9.47-46.76,19-68.77,9.68-22.37,22.76-42.57,40.7-59.24,12.48-11.6,27.94-16.87,44.35-20.09a107.26,107.26,0,0,1,60.27,5.4c11.55,4.46,23,9.6,31.66,19.26,5.54,6.21,11.67,11.84,17.3,18,11.69,12.7,18.11,28.26,24.26,43.89,11.05,28.11,19.15,57.17,25.5,86.68,2.92,13.59,2.11,27.33.63,41.19-1.89,17.65-9,33.13-18.25,47.58A48.26,48.26,0,0,1,295,338.26c-3.61,1.41-6.27,3-4.95,7.58a2.26,2.26,0,0,1-1.23,3c-1.45.49-2.21-.6-2.45-1.8-1-5.23-4.93-4.24-8.24-3.54a127.06,127.06,0,0,0-12.42,3.69,27.69,27.69,0,0,1-9.87,1,3.22,3.22,0,0,1-2.2-.75c-.64-.83.27-1.54.89-2,13-10,17-25,21.78-39.51.36-1.06,1.05-2.3-.31-3.12-1-.61-2,.08-2.77.61a25.6,25.6,0,0,0-7.57,7,97.94,97.94,0,0,1-43.07,35.76c-6.37,2.73-12.92,2.59-19.54.74-19.67-5.49-37.12-15.22-53.14-27.74a17.61,17.61,0,0,0-2-1.42C147.67,317.55,147.28,317.66,146.44,317.66Z"/></svg>