<svg id="shapes" xmlns="http://www.w3.org/2000/svg" viewBox="0 0 400 457"><defs><style>.cls-1{fill:#7ca4ae;}</style></defs><path class="cls-1" d="M183.65,446.23c-7.52-9.11-17.23-15.57-25.84-23.26-22.2-19.82-33.74-45.72-42.27-73.36-2.15-7-4-14-8-21.55-2.59,7.05-2.06,13.27-1,19.32,1.32,7.19,3.41,14.24,5.06,21.38.31,1.35,1,3.25-.63,4.05-1.44.71-2.23-1.07-3.13-1.93-5.5-5.21-9.47-11.59-13.1-18.14-8.49-15.3-13.19-31.88-16.32-49C74.74,283.25,76,263.24,84.11,244c4.52-10.69,4.42-22.13,6.3-33.24C93,195.31,92.35,179.55,94.5,164c3.73-26.83,8.69-53.25,22.59-77.08,7.26-12.43,17.84-21.42,29.85-28.82,8.62-5.32,17.4-10.37,26.86-14.19,14.24-5.77,28.53-5.28,42.95-1.1a35.25,35.25,0,0,0,13.18,1.24c13.13-1.08,26.21-1,38.19,6.21,9.31,5.62,15.56,14,21,22.93,2.71,4.44,1.59,10.08.84,15.22a11.64,11.64,0,0,0,.74,7.29c9.41,18.84,14.34,38.92,16.87,59.76,1,8.4,3.16,16.67,4.7,25,.48,2.63,1.23,4.27,4.52,3.66,2.93-.54,4.45,1.83,5.58,4.13,2.7,5.49,3.37,11.48,3.82,17.45,1.2,16.25.43,32.51-5.17,47.81-4.21,11.49-7.07,23.23-10.11,35a13.64,13.64,0,0,0,.05,8.29,6.89,6.89,0,0,1-.74,5.91c-1.6,3,.32,6.8-.16,10.48-.82,6.26.17,12.74.29,19.13a9.39,9.39,0,0,1-.81,3.35c-.41,1.12-.27,3.15-2.24,2.53-1.67-.52-.95-2.21-.84-3.48.59-6.75-.35-13.58.3-20.24.45-4.65-2.4-9.52.89-14a2.84,2.84,0,0,0-.43-3.3c-2.83-3.31-2.36-6.63-1.29-10.66,1.39-5.24,2.69-10.52,4.27-15.72.83-2.75.29-4.68-3-5.49-2.34-.57-4.46-2.07-7.26-3.44,0,4.67-.23,8.92-.24,13.09,0,15.9-6.94,28.43-18.93,38A283.14,283.14,0,0,1,230,345.4,37.35,37.35,0,0,1,210.61,349c-26.32-1.92-47.31-14.25-64.22-34.12-3.21-3.78-4.71-8.36-6.35-12.92-.67-1.83-.89-5.15-3.77-4.25-2.62.82-.66,3.43-.44,5.23,1.16,9.56,5.36,18.45,5.64,28.3a84.09,84.09,0,0,1-1.05,15.86c-1.29,8,.47,15.25,3.58,22.29,8.35,19,19.51,36.33,30.48,53.82,3.17,5.06,5.62,10.57,8.36,15.9A9,9,0,0,1,183.65,446.23Z"/></svg>