<svg id="shapes" xmlns="http://www.w3.org/2000/svg" viewBox="0 0 400 457"><defs><style>.cls-1{fill:#7ca4ae;}</style></defs><path class="cls-1" d="M275.71,302c-2,2.19-2.17,5.11-3.11,7.67-8.18,22.27-21.17,40.69-42.76,51.65-10.44,5.3-22.09,5.82-33.58,5.61-18.52-.35-34.48-7.61-48.59-19.29-1.94-1.61-3.42-2.24-4.39.63-.75,2.2-4.83,2.09-4,4.23s3.51,3.85,5.5,5.6a31.12,31.12,0,0,0,19.06,7.67c.93.06,2.16-.19,2.57,1s-.64,1.81-1.34,2.45c-5.79,5.26-11.25,10.72-20.41,9.16-3.89-.66-7.88,2-12.08,2.35-3.08.23-5.9.21-8.72-1.11-18.06-8.5-33.17-20.85-45.77-36.18-3.53-4.32-5-10.12-6.33-15.64a98.08,98.08,0,0,1-1.9-37.16c4.45-32,9.71-63.94,20.54-94.52,7.63-21.53,16.68-42.66,31.76-60.18,9-10.44,19.44-19.43,32.84-24.43,12.14-4.53,24-1.56,35.86.33a19.2,19.2,0,0,0,9.22-.48c12.78-4,25.84-5,38.79-1.27,12.56,3.6,22.53,11.66,30.07,22,15.92,21.79,27.6,45.87,35.83,71.59,8.43,26.31,17.53,52.39,23,79.61a167.07,167.07,0,0,1-2.44,77.13c-3.14,11.68-9,22.53-15.67,32.77-2,3.12-7.29,3.18-8.72-.16-2.08-4.82-5.45-4.16-9.06-3.2a69.8,69.8,0,0,0-7.91,3c-3,1.2-6,1.86-9.22.87-7-2.14-8.69-6.21-4.2-11.89,8.05-10.21,8.84-22.38,9.6-34.5.84-13.49-.34-26.95-1.92-40.35C278,305,277.78,303.2,275.71,302Z"/></svg>