<svg id="shapes" xmlns="http://www.w3.org/2000/svg" viewBox="0 0 400 457"><defs><style>.cls-1{fill:#7ca4ae;}</style></defs><path class="cls-1" d="M206.26,374.4c-14.92-.24-28.82-3.06-40.57-13.51C157,353.15,148.46,345.2,139.28,338c-4.46-3.51-7-8.78-9.78-13.75-6.66-12.09-9.78-25.42-13.55-38.53-.81-2.83-1.27-5.72-4.31-7.51-2-1.16-1.9-3.71-1.78-5.94.33-5.65.73-11.3.84-17,.1-5.19-2-10.06-2.85-15-2.55-14.77-11.95-27-14.59-41.59-.73-4-1.18-7.25,3.74-9.38,3.55-1.54,2.48-5.74,2.57-9,.33-13.14-.5-26.31,1.14-39.4.43-3.47.94-6.93,1.44-10.38,1-7.23,3.55-13.8,8.44-19.4,9.63-11,19.2-22.12,30.45-31.56,13.31-11.15,28.84-17,46.07-18.51,14.2-1.21,28.25.28,42.16,3,5.43,1.06,9.77,4.92,14.66,7.41,12.54,6.39,24.18,14.17,33.12,25.23,5,6.23,8.12,13.75,11.39,21,6.53,14.54,9.12,30.23,12.79,45.59.5,2.1,1.14,4.17,1.74,6.25.38,1.34,1.17,1.65,2.62,1.51,5.65-.54,8.43,2.12,8.69,8.3.36,8.93-1.89,17.49-3.78,26.12-2.43,11.05-4.93,22.07-7.87,33a15.1,15.1,0,0,0,1.86,12.89c4.51,6.85,3.3,12.23-3.31,17.69-1.64,1.36-1.88,3-2.08,4.83-1.57,14.62-5.76,28.28-14.22,40.52a78.69,78.69,0,0,1-7.86,9.68c-8.76,9.19-14.69,20.57-23.51,29.73-7.82,8.11-16.86,14.13-27.59,17.26C219.57,372.92,213.08,374.7,206.26,374.4Z"/></svg>