<svg id="shapes" xmlns="http://www.w3.org/2000/svg" viewBox="0 0 400 457"><defs><style>.cls-1{fill:#7ca4ae;}</style></defs><path class="cls-1" d="M244.16,330.49c-1,.27-1.44.25-1.65.44-14.33,13.34-31.74,14.88-48,3.69q-22.86-15.71-45.17-32.2c-5.71-4.23-11-9.21-13.37-16.39-.39-1.19-.79-2.92-2.37-2.89s-1.86,1.73-2.45,2.88c-4.4,8.44-2.39,17.05.25,25.25,4.15,12.88,9.89,25.34,18.22,35.92,6.39,8.13,14.68,15,25.78,16.73,1.92.29,3.83.67,6.42,1.13-4,4.05-8.71,4.44-13.16,4.83a51.44,51.44,0,0,0-12.88,3.28C134,381,110.65,377.56,98.41,354c-2.3-4.43-3.85-3.25-6.29-.47-9.29,10.56-20.51,17.86-34.66,20.05a36.66,36.66,0,0,1-10.46.1c-1.12-.15-2.54-.22-3-1.45-.55-1.52,1.15-1.78,1.92-2.5,1-.91,2.15-1.61,3.08-2.54,2.6-2.59,5-5.25-1.45-7,2.59-2.06,5-1,7.06-1.3s4.65-.5,4.87-2.64c.25-2.47-2.64-1.81-4.21-2.26-2.72-.77-5.55-1.27-7.81-3.12-.88-.73-1.89-1.77-1.2-3,.59-1,1.83-.44,2.75-.21,15.29,3.9,21.11-3.84,27-15.47,9-18,7.21-37,6.45-55.87-.6-15.11-4.29-30-3.21-45.25,1.73-24.23.27-48.57,2.6-72.77a41.26,41.26,0,0,1,2-9.27c6.56-19.18,11.28-39.4,24.79-55.23,12.53-14.68,25.81-29.24,45.54-34.28,17.93-4.58,35.7-2.33,53,4,4.22,1.56,8.42,3.18,12.53,5a23.58,23.58,0,0,0,12.1,2.34c4.7-.48,9,1.11,12.86,3.37,12.11,7.06,23.77,14.74,32.74,25.82,2.95,3.64,5.85,7.33,7.64,11.67,4,9.68,12.7,16.26,16.58,26,6.52,16.42,12.6,32.66,12.86,50.9.25,17.4-1.58,34.52-3,51.75-1.26,15,.39,30,3,44.74,2.41,13.45,1.1,26.47-2,39.53-.68,2.86-2.32,5.63,2.16,7.71,2.65,1.23,1.89,5,.83,7.76-.54,1.39-1.58,2.59-2,4-3.11,9.9-.3,13.93,10.09,14.7,1.27.09,3.08-.38,3.51,1.16.55,2-1.32,3.24-2.72,3.65-10.35,3.06-20.92,7-31.48,1.56-6.15-3.15-11.43-4-18.28-1.49-10,3.73-19.41,1.12-26.55-7.36-2.14-2.54-4.4-4.49-8-4.36-1.14,0-2.51,0-3-1.37-.37-1.14.77-1.67,1.4-2.4C242.82,343.23,242.82,336.87,244.16,330.49Z"/></svg>