<?xml version="1.0" encoding="utf-8"?>
<!-- Generator: Adobe Illustrator 24.3.0, SVG Export Plug-In . SVG Version: 6.00 Build 0)  -->
<svg version="1.1" id="shapes" xmlns="http://www.w3.org/2000/svg" xmlns:xlink="http://www.w3.org/1999/xlink" x="0px" y="0px"
	 width="400px" height="457px" viewBox="0 0 400 457" style="enable-background:new 0 0 400 457;" xml:space="preserve">
<style type="text/css">
	.st0{fill:#7CA4AE;}
</style>
<g>
	<path class="st0" d="M267.3,310.1c-4.2,4.7-8.7,9.1-12.6,14.1c-6.4,8.2-14.5,14.2-22.9,19.9c-23.3,15.7-58.4,12.7-79.2-5.7
		c-17.9-15.9-29.4-35.4-36.1-58.1c-0.3-1.1-0.7-2.2-1.2-3.5c-1.4,0.9-1,2.2-1,3.1c0,31.2,0,62.3,0,93.5c0,3.8,0.5,7.6,0.6,11.5
		c0.1,4.2-2.8,5.9-6.4,6.2c-3.5,0.3-5.7-1.7-6.4-5c-0.6-2.6-1.1-5.2-1.2-7.9c-1-26.5-0.5-52.9,0.2-79.4c0.4-15.3,3.2-30.4,2.9-45.8
		c-0.2-8.2-1.9-15.8-5.7-23c-3.2-6.2-5.4-12.3-0.3-18.7c1.3-1.6,0.6-3.5,0.1-5.3c-3.1-10.9-3.9-21.9-3.3-33.2
		c1.1-21.1,6.4-40.8,17-59.4c17.5-30.5,45.9-43.3,78.6-47.1c21.3-2.4,41.1,4.8,59.7,16.1c19.9,12.1,33.8,28.8,43.1,49.7
		c4,8.9,5.1,18.7,4.5,28.4c-1.1,17.2-1.5,34.4-0.4,51.4c0.6,9.5-1.7,17.4-4.9,25.9c-3.5,9.4-3.9,19.5-4.1,29.5
		c-0.1,2.1,1.5,3.2,2.9,4.4c4.3,3.7,6.9,8.4,8.4,13.9c5.8,21.7,9.1,43.8,7.5,66.2c-0.8,11.4-1.6,23.2-8.4,33.5
		c-6.4,9.8-16.5,10.4-22.7,0.3c-4.8-7.9-6.9-16.8-8-26C266,343.3,264.2,326.9,267.3,310.1z M294.7,340.9c1.2-10.5-0.6-21.7-2.1-32.9
		c-1.3-9.5-3.4-19-8.1-27.6c-0.6-1.1-1-2.7-2.7-2.5c-1.3,0.2-1.7,1.5-2.1,2.6c-1.4,4.1-3.2,8-3.6,12.4c-1.8,18.1-1.5,36.1,0.9,54.2
		c1.5,11.1,4.5,21.8,8,32.4c0.5,1.6,1.3,4,3.4,3.8c2.3-0.2,2.2-2.7,2.6-4.4C294.2,366.7,295.2,354.3,294.7,340.9z"/>
</g>
</svg>
