<?xml version="1.0" encoding="utf-8"?>
<!-- Generator: Adobe Illustrator 24.3.0, SVG Export Plug-In . SVG Version: 6.00 Build 0)  -->
<svg version="1.1" id="shapes" xmlns="http://www.w3.org/2000/svg" xmlns:xlink="http://www.w3.org/1999/xlink" x="0px" y="0px"
	 width="400px" height="457px" viewBox="0 0 400 457" style="enable-background:new 0 0 400 457;" xml:space="preserve">
<style type="text/css">
	.st0{fill:#7CA4AE;}
</style>
<g>
	<path class="st0" d="M141.3,292.7c-0.6,10.8,0.2,20.3,0.8,29.9c0.1,1.6,0.9,2.6,2.5,3.3c4.5,1.9,5.2,5.6,0.9,7.7
		c-5.8,2.8-5.4,7.5-5.1,12.1c1.8,22.5,2.6,45.1,5.4,67.5c1,8.1,2.6,16,4.9,23.7c-14.9-0.1-22.6-10.1-28.8-21.9
		c-2.3,2.4,0.9,5.1-1.8,6.1c-2.5,0.9-4.3-1.2-6.1-2.6c-4-3.2-6.2-7.8-9.1-11.8c-11.6-15.8-23.8-31.3-34.7-47.6
		c-13.3-19.9-18.6-41.4-11.7-65.4c11-38,24.2-75.3,37.4-112.6c8.7-24.5,22-46.8,43-63.1c18.9-14.8,39.8-23.4,64.8-20.1
		c17.8,2.4,31.9,10.2,43.6,23.4c6.9,7.8,14.3,15.3,21.4,23.1c13.9,15.3,22.6,32.4,25.6,53.4c3.4,24.2,5.2,48.5,8.9,72.7
		c2.4,16.1,5.7,32.1,8.3,48.1c3.1,19.3,8,38.4,6.8,58.3c-0.3,4.5-1.5,8.4-4,12.1c-1,1.4-2.1,2.9-3.9,2.9c-4.6,0-7.6,2.9-10.1,5.7
		c-6.6,7.4-15.9,7.6-24.3,10.4c-1.9,0.6-4,0-5.7-1.3c-3.9-3-8.2-3.9-13.1-3.8c-6.8,0.1-10.3-5.1-8.3-11.8c2-7,5.1-13.7,6.2-21
		c1-6.3,1.2-12.5-0.3-18.8c-2.5-10.3-4.6-20.8-4-31.5c0.2-3.8-1.2-4-3.9-1.9c-21.9,17.1-45.6,13.9-69.1,4.9
		c-11.2-4.3-20.5-12.3-28.6-21.4C146.9,298.7,144.5,296.2,141.3,292.7z"/>
</g>
</svg>
