<?xml version="1.0" encoding="utf-8"?>
<!-- Generator: Adobe Illustrator 24.3.0, SVG Export Plug-In . SVG Version: 6.00 Build 0)  -->
<svg version="1.1" id="shapes" xmlns="http://www.w3.org/2000/svg" xmlns:xlink="http://www.w3.org/1999/xlink" x="0px" y="0px"
	 width="400px" height="457px" viewBox="0 0 400 457" style="enable-background:new 0 0 400 457;" xml:space="preserve">
<style type="text/css">
	.st0{fill:#7CA4AE;}
</style>
<g>
	<path class="st0" d="M298.2,170.5c-0.2,8.7,1.2,18.2-1.3,27.5c-0.7,2.8,0.6,2.6,2.7,2.2c6.3-1.4,8.8,1.3,9.6,7.7
		c1.4,12.2-5.1,22.2-8.8,32.9c-1.9,5.5-4.1,10.9-5.2,16.7c-0.7,4-2.8,6.8-6.5,8.2c-3.6,1.4-4.8,4.1-5.5,7.6
		c-3.4,16.8-8.8,32.8-19.4,46.6c-3.6,4.7-7.2,9.5-10.8,14.3c-5.7,7.6-14,11.9-23.3,13.3c-8.7,1.3-17.3,3.4-26.2,2.7
		c-11.3-0.9-22.9-1.2-32.9-7c-19.2-11.1-34.3-26.1-41.8-47.5c-1.9-5.3-3.2-10.8-4.7-16.3c-0.6-2.3-1.6-3.7-4.2-4.2
		c-6.2-1.3-10.2-5-11.4-11.6c-1.6-9.4-6-17.7-11.1-25.5c-4.9-7.6-4.8-15.8-4.3-24c0.3-4.7,3.5-7.2,8.8-6.7c3.2,0.2,3.5-0.7,2.6-3.2
		c-5.5-15.3-5.5-30.9-2.9-46.8c0.6-3.4,0.6-7,0.2-10.5c-0.6-6.7,2.1-12.6,5.2-17.9c3.2-5.5,3.3-11.3,4.2-17.2
		c1.2-7.4,3.2-14.1,9-19.7c7.5-7.3,16.2-13.1,23.2-20.9c0.9-1,2-2,3.3-2c9-0.1,17.3-4.7,26.4-4.6c6.7,0.1,13.5,0.1,20.2-0.3
		c7.2-0.4,14.4,0,21.5-0.3c7.5-0.3,16.5-2,22.9,5.2c1.7,2,3.9,3.2,6.5,0.9c0.8-0.7,1.9-0.5,2.8,0.1c7.5,4.5,14.7,8.8,20.6,16
		c4.9,6,7.9,12.5,11.2,19.1c1.6,3.2,3.2,6.5,5.9,8.6c5.2,4.1,7.4,9.6,7.6,15.6c0.2,6.7,4.1,12.3,4.7,18.8
		C297.9,155.4,298,162.6,298.2,170.5z"/>
</g>
</svg>
