<?xml version="1.0" encoding="utf-8"?>
<!-- Generator: Adobe Illustrator 24.3.0, SVG Export Plug-In . SVG Version: 6.00 Build 0)  -->
<svg version="1.1" id="shapes" xmlns="http://www.w3.org/2000/svg" xmlns:xlink="http://www.w3.org/1999/xlink" x="0px" y="0px"
	 width="400px" height="457px" viewBox="0 0 400 457" style="enable-background:new 0 0 400 457;" xml:space="preserve">
<style type="text/css">
	.st0{fill:#7CA4AE;}
</style>
<g>
	<path class="st0" d="M231.8,364.2c-12.2-0.4-24.3-3.3-35.3-10.3c-4.2-2.7-8.8-4.9-13.5-6.4c-11.8-3.8-21.5-10.7-30.9-18.7
		c-12.8-10.8-20-24.1-22.2-40.5c-0.4-2.8-1.1-5.6-1.4-8.4c-0.5-4.3-1.4-8.3-6.8-8.9c-1.4-0.2-2.4-1.5-2.7-2.7
		c-3.6-11.5-12.6-19.9-17-31c-1.8-4.4-3.3-8.7-3.8-13.3c-0.4-3.5,0-7,0.9-10.4c0.9-3.6,3-6,6.8-6.4c3-0.3,3.9-1.4,3.4-4.5
		c-1.5-11.4-2.6-22.8-4-34.2c-0.5-4.4-0.1-8.7,1.2-12.9c3.3-11.1,4.1-22.6,5.3-34c1.3-12.3,6-23.5,9.6-35.1
		c1.5-4.7,6.2-7.7,10.1-10.8c17-13.3,35.8-23.6,55.5-32.3c9.5-4.2,18.5-5,28.4-1.4c17.8,6.6,35.6,13.1,52.2,22.6
		c11.7,6.7,18.3,17.1,22.3,29c2.8,8.3,6.8,14.9,13.9,19.9c4,2.8,7,6.7,9.8,10.6c5.2,7.1,5.2,12.7-0.6,19.5
		c-3.5,4.2-4.3,8.4-3.4,13.4c1.2,6.9,0.3,13.7-2,20.2c-2.1,6.1-1.3,12.2-1,18.3c0,0.6,0.2,1.5,0.6,1.9c6.7,5.8,4.9,13.3,3.8,20.5
		c-4.8,30.9-7.6,62.2-16.4,92.4c-2.9,9.9-8.5,18.8-14.5,27.2c-3.4,4.7-7.2,9.1-10.9,13.6c-0.9,1.1-1.9,2.7-3.2,3.1
		C254.8,357.5,244.9,365,231.8,364.2z"/>
</g>
</svg>
