<?xml version="1.0" encoding="utf-8"?>
<!-- Generator: Adobe Illustrator 24.3.0, SVG Export Plug-In . SVG Version: 6.00 Build 0)  -->
<svg version="1.1" id="shapes" xmlns="http://www.w3.org/2000/svg" xmlns:xlink="http://www.w3.org/1999/xlink" x="0px" y="0px"
	 width="400px" height="457px" viewBox="0 0 400 457" style="enable-background:new 0 0 400 457;" xml:space="preserve">
<style type="text/css">
	.st0{fill:#7CA4AE;}
</style>
<g>
	<path class="st0" d="M155,406c4.9,5.2,7.8,11.5,10,18.2c1.2,3.6-0.1,5.2-3.9,4c-3-0.9-6-2.1-9.3-3.2c-0.1,3.3,2.2,5.5,3.1,8.3
		c-5.6,0.1-10.3-2.4-12-7.8c-3.7-11.7-14.3-15.4-23.2-21.2c-1.6-1-2.7-0.1-2.6,1.6c0.1,1.6,0.4,3.3,1.1,4.8c1.2,2.7,0.6,4.1-2.3,3.4
		c-3.4-0.9-3.8,1.1-4.4,3.6c-0.9,3.7-2.5,7.1-7,9.2c1.3-7.5,1.5-14.3,0.4-21.3c-1.2-7.4-4.9-13.3-9.3-18.9c-7.1-9-9.3-19.5-9.4-30.4
		c0-9.8-1-19-5.6-28c-4.7-9.3-3.2-19.6-2-29.5c1.4-11.3,4.8-22.1,8.8-32.7c6.4-17,8.6-34.9,12.4-52.4c3.5-16.3,4.2-33,7.9-49.3
		c5-21.9,13.9-41.7,30.2-57.5c2.6-2.5,5.5-5.1,8.7-6.7c15.5-7.4,30.7-15.6,48.4-16.2c1,0,2-0.3,2.9-0.6c21-6.5,39.7-1.3,56.5,11.7
		c16,12.3,26.1,28.7,32.6,47.9c11.8,34.9,20.1,70.4,25.4,106.8c1.4,9.7,0.5,19.3-1.9,28.7c-3.2,12.5-1.9,24.9,1,37
		c2.8,11.9,7,23.3,15.5,32.6c3.3,3.6,7.2,6.4,10.8,9.6c1.3,1.1,3.8,2.2,2.9,4.1c-1,2.1-3.7,1.4-5.4,0.8c-8-2.5-16.1-5-19.9-14.3
		c-0.4,3.3-0.9,6.6-1.3,9.9c-0.6,5.1-1.2,10.3-3.7,14.9c-0.5,1-1.1,2.3-2.5,1.8c-1.2-0.4-1-1.6-1-2.6c-0.5-8.1-4-15.2-8.2-22.2
		c-5.5,18.3-7.1,36.6,0.1,54.9c-5.3-0.1-6.3-0.5-11.9-5.2c-3.1,8,2.2,13.2,5.8,19.2c-9.8-3.3-18.9-7.5-24.4-17
		c-0.6-1-0.8-2.2-1.4-3.2c-1.3-2.1-0.9-6.3-4.1-6.1c-3.1,0.2-4.4,3.8-5.6,6.5c-2.4,5.5-1.5,11.3-1.2,17.1
		c-5.5-10.9-7.4-22.4-6.7-34.6c0.8-13.8,4.1-27.2,6-40.9c1.7-12.5,0.5-25.3,2.7-37.8c1.2-6.5,2.4-13,1.4-19.9
		c-4,5.5-6.9,11.6-11.9,16.3c-13.5,12.5-27.5,23.8-47.2,24.1c-4.1,0.1-8-0.4-11.5-2.7c-8.3-5.3-16.7-10.4-25.1-15.5
		c-7.4-4.5-11.7-12.2-16.7-19c-1-1.3-1.9-2.7-3.3-4.7c-1.2,5-0.5,9,0.6,13.2c3,11.5,8.8,21.9,12.8,33c2.7,7.4,4.9,15.1,7.3,22.6
		c-1.6,0.7-1.9-0.5-2.5-1.1c-1.1-1.2-1.6-3.7-3.3-3.3c-2.2,0.5-1.9,3.2-2.3,5.1c-2,8.9-1,17.4,3,25.9c-2.4-0.2-2.4-2.5-4.3-2.9
		c-1.3,1.3-0.6,2.9-0.4,4.5c0.6,5.7,0.7,11.1-1.5,16.8C151.8,398.4,154.2,402.5,155,406c-2.1-2-1.9-5.4-4-7.9
		c-4.6,14.2,0.6,22.6,11.5,25.8C160.4,417.6,155.5,412.7,155,406z"/>
</g>
</svg>
