<?xml version="1.0" encoding="utf-8"?>
<!-- Generator: Adobe Illustrator 24.3.0, SVG Export Plug-In . SVG Version: 6.00 Build 0)  -->
<svg version="1.1" id="shapes" xmlns="http://www.w3.org/2000/svg" xmlns:xlink="http://www.w3.org/1999/xlink" x="0px" y="0px"
	 width="400px" height="457px" viewBox="0 0 400 457" style="enable-background:new 0 0 400 457;" xml:space="preserve">
<style type="text/css">
	.st0{fill:#7CA4AE;}
</style>
<g>
	<path class="st0" d="M284.5,338.3c-2.4,2.1-2.3,4.8-2.9,7.7c-1.1,5.3,1.6,11.9-3.9,16.1c-1.1,0.8-1.5,2.1-0.5,3
		c3.9,3.4,2.1,7.8,1.7,11.6c-1.1,10.6-1.7,21.2-1.5,31.9c0,1.3,0.2,2.7,0,4c-0.3,1.9-0.4,4.6-3.3,3.8c-2.3-0.6-1.3-2.6-1.1-4.5
		c0.6-4.3-0.5-8.6-0.2-13c1.2-22.6,3.9-45.1,3.9-67.7c0-3.9-1.2-7.4-1.6-11c-2.7,11.7-3.5,23.6-1.9,35.6c0.4,2.9-1.6,5-3.3,7.1
		c-3.5,4.4-4.6,9.2-2.4,14.5c3.4,8.3-1.8,15.1-3.9,22.5c-0.4,1.3-1.7,2.2-3.2,1.7c-1.5-0.5-1.5-2.1-0.8-2.9
		c6.3-8.2,2.8-17.4,2.4-26.1c-0.2-4.1,0.5-7.6,3.2-10.6c2.8-3.3,3.3-7.1,2.8-11.2c-1.2-8.8-1.8-17.6,1.6-26.1c0.2-0.5,0.3-1,0.4-1.5
		c0.2-2.4,1.1-5.9-1.7-6.6c-2.2-0.6-2.4,3-3.4,4.8c-6.2,11.9-14.7,22.1-23.4,32.2c-6.8,7.9-14.7,14.4-22.4,21.3
		c-11.7,10.5-34.6,12.9-48.6,3.7c-18.1-11.8-32.6-27.2-42.8-46.4c-3.3-6.3-3.7-13.4-5.1-20.3c-0.3-1.5-0.5-2.9-0.9-4.4
		c-0.3-1.1-0.3-2.5-1.8-2.6c-1.4-0.1-2.1,1.1-2.5,2.1c-1.2,3.4-2.2,6.7-7.1,5.8c-1.3-0.2-1.4,1.6-1.6,2.7
		c-2.1,8.5-2.9,17.1-0.9,25.7c2.6,10.8,0.3,21.6,0,32.4c-0.3,15.5-0.4,30.9,0.1,46.4c0.1,4.1-2.2,5.5-4.6,5.5c-2.4,0-1.5-3.2-1.5-5
		c0-16.5,0.7-32.9,1.5-49.4c0.1-2.1,1.3-5.9-1.2-6c-2.6-0.2-1.8,3.7-2.2,5.8c-1,5.3-0.7,10.6-0.1,15.9c0.9,7.1-0.8,13.9-2.2,20.8
		c-0.9,4.3-0.4,8.2,1.3,12.2c1,2.3,1.3,4.8-1.1,6.2c-2.5,1.5-4-1-5.3-2.5c-4.6-5.6-3.6-12.1-2.3-18.6c-3.6,4.2-4.4,7-3.6,12.4
		c0.4,2.7,1,5.9-2.5,6.5c-3.6,0.7-4-2.6-4.6-5.2c-1.3-5.4-1-10.4,2.3-15.3c3.8-5.6,3-12.4-1.4-17.9c-7.2-9.1-7.8-19.9-1-29.3
		c4.1-5.6,5.1-11.4,3.5-17.9c-2.8-11.3-1.8-22.1,3.3-32.6c1.2-2.5,1.6-5.4,2.2-8.2c1.7-8.3,3.5-16.5,7.2-24.3
		c3.3-7.1,4.3-15.1,4.7-22.9c0.3-5.1,0.9-9.9,2.8-14.6c1.4-3.5,1.7-7.2,1-10.8c-2.3-13.1,1.2-25.5,4.6-37.8
		c1.6-5.9,7.5-9.2,11.4-13.7c2.3-2.6,3.3-5.2,3.4-8.4c0.2-5.1,2-9.3,5.9-12.8c2-1.8,4.3-4.1,2.2-6.8c-2-2.5-4.6-0.2-6.9,0.4
		c-0.6,0.2-1.2,0.6-1.7,1c-1,0.7-1.9,2.4-3.3,0.9c-1.3-1.3-1.3-2.9-0.1-4.5c1.9-2.6,3.8-5.1,6.3-7c2.2-1.6,3.6-3.9,5.3-5.9
		c0.8-0.9,1.6-2.3,1.1-3.2c-2.7-4.1-1.2-10-6.3-13.4c-4.4-2.9-6.2-7.5-4.3-13.6c2.5-8,5.9-15.9,5-24.8c-0.4-3.6,2.4-5.1,5.4-6.2
		c1.7-0.6,4-1.4,2.9-3.7c-1-2.3-3-0.6-4.3,0.1c-3.5,2-7.4,2.9-11.3,3.5c-3.2,0.4-6.1,1.4-8.7,3.4c-1.3,1-3.2,2.1-4.5,0.6
		c-1.6-1.8,0.1-3.4,1.3-4.7c1.5-1.6,3.3-3,5.4-3.5c5.4-1.3,10.2-4,15.3-6c2.7-1,5.1-2.3,6.9-4.6c2.6-3.3,6.8-3.1,10.4-4.2
		c13.3-4.2,25.2-10.2,31.2-23.9c0.8-1.7,1.6-3.2,3.4-4c5-2.3,10.3-3.6,15.8-4.3c4.5-0.6,7.3,0.7,7.9,5.8c0.4,3.6,2,6.8,6.1,7.7
		c0.8,0.2,1.9,0.6,2.4,0.3c5.2-3.6,12.6-3.8,15.7-10.4c1-2.1,2.5-2.3,4.4-2.4c4.2-0.2,8.6-0.6,11.8-3.5c4.3-3.8,8-2,10.7,1.1
		c5,5.7,12.4,9,16.1,16.1c1,1.9,3.4,2,5.2,2.6c9.5,3.1,10.6,5.5,11.3,15.2c0.5,7,0.3,14.3,5.5,20.7c3.6,4.5,3.4,11.3,3.3,17.3
		c-0.1,7,0.2,7.5,7.1,7.7c5.4,0.1,9.4,2.7,11.7,7.3c4.6,9,10.1,17.6,12.3,27.7c1.4,6.3,0.8,11.3-4.1,15.9c-5.9,5.5-5.7,6.4-0.4,12
		c4.9,5.1,5.7,11.3,1.1,18.3c-4.8,7.4-4.9,13.5,0.6,20.9c5.2,7,2.6,15.3,0.2,23.1c-0.3,0.8-0.9,1.5-1.9,1.3
		c-1.2-0.2-1.7-1.1-1.7-2.1c0.1-2,0.4-4,0.5-6c0.1-3.5,0.1-6.8-2.7-9.7c-1.4-1.5-1.3-4.3-1.9-6.5c-1.4-4.6-4-7.9-9.1-8.9
		c-5.2-0.9-6.9-4.2-6.5-9.4c0.5-6.1,2.9-11.2,6.3-16.1c2.2-3.2,1.4-4.2-2.3-4.4c-7.1-0.3-11.7,2.5-14,9.4c-2.4,7.3-2.5,14.5-0.2,22
		c2.7,9,4,18.2,0.8,27.4c-1.1,3.3-0.6,6.2,1.5,8.9c5.8,7.6,6.7,15.6,2.2,24.3c-3.7,7.1-3.3,14.1-0.5,21.6c3.5,9.4,3.6,19.4,3.6,29.5
		c0,12.1-4.6,23.6-3.5,35.6c0.9,9.6,3.1,19,3.1,28.8c0,4.9-0.6,9.6-2.6,14.1c-2.7,6.3-2.5,12.3,2.3,17.7c0.1,0.1,0.2,0.3,0.3,0.4
		c1.7,2.6,2.9,5.3,1.3,8.4c-0.5,1-1.5,1.5-2.5,1c-3-1.3-3.7-4-4.2-6.9c-0.2-1.1-0.2-2.5-0.9-3.3c-5.3-7-4.3-14-0.1-21
		c2.7-4.5,1.9-9.3,1.6-14.1C293.2,353.9,289.9,345.7,284.5,338.3z M92.2,398.1c4-6.3,4.1-7.9,0-15c-3.5-6.1-4.5-12-0.4-18.2
		c1.8-2.8,3-5.9,4.7-8.8c1.5-2.6,1.6-5.4,1-8.2c-0.6-2.3-2.6-3.7-4.7-3.8c-2.4-0.1-1.7,2.5-1.9,3.9c-0.8,6.2-3.7,11.3-7.4,16.1
		c-3.4,4.4-3.7,8.2-0.1,13C87.8,383.1,93.5,389,92.2,398.1z M286,308.5c0.3,0.6-1.9,3.3,0.8,4.4c1.3,0.5,2.7-1.2,3.2-2.6
		c2.7-8.3,4.3-16.7,1-25.2c-1-2.5-2.2-2.2-3.2-0.1c-2.5,5.2-5.7,10.2-3,16.4C285.5,303.1,285.5,305.2,286,308.5z M307.5,175
		c-0.2,3.5,0,5.4,1.5,7c1.1,1.1,2.5,2.3,3.7,0.5c2.7-4.4,5-9,5.1-14.3c0-1.4-0.6-2.5-2-3.1c-1.3-0.5-2.2,0.3-3,1.1
		C309.7,168.9,307.8,172.3,307.5,175z M101,336.1c-2-6.3-1.2-11.7,0.2-17c0.2-0.8,0-1.7-0.1-2.4c-0.6-2.7-1.8-3.5-3.9-1.2
		C91.4,321.7,90.3,330.3,101,336.1z M95.4,305c7.3-2.3,10.7-12.9,6.2-18.5c-1.2-1.6-2.5-1.9-3.1,0.4C96.7,292.7,95.7,298.7,95.4,305
		z"/>
</g>
</svg>
