<?xml version="1.0" encoding="utf-8"?>
<!-- Generator: Adobe Illustrator 24.3.0, SVG Export Plug-In . SVG Version: 6.00 Build 0)  -->
<svg version="1.1" id="shapes" xmlns="http://www.w3.org/2000/svg" xmlns:xlink="http://www.w3.org/1999/xlink" x="0px" y="0px"
	 width="400px" height="457px" viewBox="0 0 400 457" style="enable-background:new 0 0 400 457;" xml:space="preserve">
<style type="text/css">
	.st0{fill:#7CA4AE;}
</style>
<g>
	<path class="st0" d="M119.8,331.2c2.6,1.4,4.6,0.6,6.5,0.8c4.2,0.4,5.4,2.9,3.1,6.5c-3.8,5.6-9.3,7.3-15.7,6.7
		c-7.5-0.8-14.8-2.6-22.7-1.3c-5.6,1-10.8-3.5-15.4-7.3c-1.6-1.3-2.7-3.8-5.4-2.5c-2.5,1.2-2.1,3.5-1.7,5.7c0.4,1.8,0.3,3.6-1.7,4.1
		c-2.2,0.5-2.7-1.4-3.3-3c-0.3-0.9-0.5-1.9-0.8-3c-1.8,1.5-1.2,3.1-0.7,4.6c0.4,1.3,1.5,3-0.7,3.7c-1.9,0.6-3.3-0.4-4-2.1
		c-1.6-4-1.6-8.1-0.7-12.3c0.4-1.8,1.7-3.1-2-4.6c-3.7-1.5-2.5-7.6-1.8-11.8c0.5-2.9,1.8-5.7,2.6-8.6c0.4-1.4,0.9-2.9,0.3-4.4
		c-0.5-1.2-0.6-3-2.1-3.1c-1.6-0.1-1.9,1.5-2.3,2.8c-0.5,1.5-0.4,3.9-2.7,3.3c-2-0.5-2-2.9-1.9-4.7c0.5-7.9,0.3-8-7.6-5.2
		c-2.5,0.9-4.1,2.6-5.9,4.5c-3,3.2-5.4,2.8-7.3-1.1c-2.3-4.6-3-9.6-2.1-14.6c0.9-5.1,3.7-8.9,9.1-10.1c3.4-0.8,6.8-1.5,10.3-2.1
		c3.3-0.5,4.1-2.2,2.4-4.8c-2.3-3.5-4.6-7-7.2-10.2c-5.1-6.2-4.9-12.9-1.6-19.6c3.8-7.8,3-12.2-4.3-16.8c-6.2-3.9-9.9-8.8-8.9-16.4
		c0.1-0.7-0.1-1.5,0.3-1.9c7.7-8.5,5.3-20.5,10.5-30c4-7.3,8.6-13,16.9-14.9c2.2-0.5,3.5-1.8,4.4-3.6c1.7-3.5,2.5-7.4,6-10.1
		c2.4-1.9-0.3-3.1-2-3.6c-2.7-0.8-5.6-1.3-7.4-3.8c-0.9-1.2-2-2.5-0.7-4c1.1-1.2,2.5-0.5,3.6,0.1c0.7,0.4,1.4,0.9,2.1,1.3
		c6.3,2.9,8,2,9.4-4.8c1.4-7.2,4.1-14,7.8-20.4c2.3-4,4.7-7.8,5.9-12.4c1.3-4.7,5.8-7.3,10.6-8.2c6.3-1.2,12.1-2.7,17-7.4
		c2.9-2.8,7.5-2.4,11.4-3c3.5-0.5,6.5-1.5,8-5c0.9-2.1,2.8-2.8,4.9-2.9c6.9-0.4,12.7-2.2,15.2-9.7c0.7-2.2,3-2.4,5.1-2.4
		c11.6-0.2,22.7-3.2,33.7-6.6c11-3.4,19.3-0.8,25.5,8.7c1.8,2.8,4.5,3.8,7.1,5.5c9.5,5.7,19.6,5.1,29.9,5.4
		c6.6,0.2,12.1,3.3,15.6,9.3c0.8,1.4,1.5,3.1,3.1,3.8c9.6,4.3,16,12.3,22.9,19.8c4.7,5.1,9.8,9.4,15.7,13c5.1,3.1,6.3,7.6,3.2,12.7
		c-2.3,3.7-2.8,7.4-2.2,11.5c1,6.9,3.2,9.1,10,10.2c3.5,0.5,6.9,1,10.2,2.3c1.2,0.5,3.1,0.7,3.6,1.6c4.5,8.1,14.2,12,17.2,21.3
		c2.9,8.9,2.7,17.5-0.6,26.3c-2.6,7-5.5,13.5-11.2,18.5c-1.9,1.6-2.9,3.9-3.6,6.4c-1,3.9-0.1,6.5,3.9,7.7c1.6,0.5,3.2,1.2,4.5,2.1
		c3.7,2.7,3.3,6.6-0.9,8.5c-0.6,0.3-1.2,0.6-1.9,0.7c-8.1,1.6-11.9,8.3-16.5,14c-0.6,0.7-1,2-0.7,2.8c2,7.4-2.8,10.6-8,13.7
		c-4.4,2.7-5.8,6.4-4.4,11c0.8,2.5,2,3.4,4.4,2c3.7-2.2,4.3-0.3,4.2,3c-0.2,5-3.5,7.7-7.3,9.9c-9.6,5.7-19.2,11.3-28.8,16.9
		c-2.3,1.3-4.2,2.7-4.1,5.7c0.1,3.6-2.2,4.9-5.3,5.5c-5.7,1.1-10.8-0.7-15.8-3.5c-3.6-2-7.1-5.5-11.1-5.3c-4.1,0.3-5.6,5.3-8.2,8.2
		c-6.3,6.8-14.2,9.5-23.2,10.1c-0.8,0.1-1.7-0.1-2.5,0c-20.5,2.8-37.2-6-53.1-17.4c-8.4-6-14.5-14.1-21-21.9
		c-1.1-1.3-1.8-3.8-4.1-2.9c-2.4,0.9-4.3,2.5-4.7,5.4c-0.3,2.7-0.1,5.3,0.6,7.9c1.4,5.2,0.7,9.7-4.3,13.1
		C122.6,326.1,121.5,328.8,119.8,331.2z"/>
</g>
</svg>
