<?xml version="1.0" encoding="utf-8"?>
<!-- Generator: Adobe Illustrator 24.3.0, SVG Export Plug-In . SVG Version: 6.00 Build 0)  -->
<svg version="1.1" id="shapes" xmlns="http://www.w3.org/2000/svg" xmlns:xlink="http://www.w3.org/1999/xlink" x="0px" y="0px"
	 width="400px" height="457px" viewBox="0 0 400 457" style="enable-background:new 0 0 400 457;" xml:space="preserve">
<style type="text/css">
	.st0{fill:#7CA4AE;}
</style>
<g>
	<path class="st0" d="M220.8,359.9c-24.2,1.1-39.6-5.6-52.7-18.2c-0.6-0.6-1.2-1.2-1.9-1.6c-16.1-8.9-24.2-23.8-29.9-40.3
		c-0.5-1.6-0.9-3.4-2.5-4.2c-5.1-2.2-5.1-6.4-4.5-10.9c0.2-1.4,0.3-3.2-0.3-4.4c-6-13-3.7-27.9-9.4-41.1c-2.6-5.9-1.2-13.8-0.5-20.6
		c1.1-11.2-0.9-21.8-2.4-32.7c-1.1-8.2-1.9-16.5-2.6-24.8c-0.3-3.3,0.4-6.9,2.4-9.5c2.9-3.9,4.2-7.8,4.2-12.7
		c0-7.7,3.6-14.5,7.6-20.9c5-7.9,9.1-16.2,11.9-25.2c2.3-7.3,7.3-11.8,14.7-13.5c3.8-0.9,7.3-2.4,10.9-3.6c1.6-0.6,3-1.4,4.1-2.7
		c9.3-11.2,21.1-14.6,34.8-10.5c8,2.4,15.6,2.9,24,1.8c16.4-2.2,31.8,1,44.8,12.3c3.5,3,7.7,5,10.2,9.3c2.6,4.5,4.3,8.9,3.6,14.2
		c-0.4,2.9,0.2,5.7,2.4,7.8c3,3,4.7,6.8,6,10.8c4.1,13.7,10.7,26.7,11.2,41.2c0.4,10.8,5.1,21.1,3.3,32.1
		c-1.6,9.5-3.4,19.5-1.5,28.8c4,19.4-4.7,37-5.9,55.5c-0.3,4.3,0.5,9.3-2.5,12.5c-6.5,7-6.5,16.4-10,24.5
		c-5.2,12-13.2,21.8-24.4,28.8c-1,0.6-2.1,1.1-3,1.8C249,355.9,231.9,357.8,220.8,359.9z"/>
</g>
</svg>
