<?xml version="1.0" encoding="utf-8"?>
<!-- Generator: Adobe Illustrator 24.3.0, SVG Export Plug-In . SVG Version: 6.00 Build 0)  -->
<svg version="1.1" id="shapes" xmlns="http://www.w3.org/2000/svg" xmlns:xlink="http://www.w3.org/1999/xlink" x="0px" y="0px"
	 width="400px" height="457px" viewBox="0 0 400 457" style="enable-background:new 0 0 400 457;" xml:space="preserve">
<style type="text/css">
	.st0{fill:#7CA4AE;}
</style>
<g>
	<path class="st0" d="M146.4,317.7c1.4,11,6.9,19.2,15.6,25.5c0.5,0.4,1.2,0.6,1.7,1c2,1.4,5.7,1.9,5.6,4.3c-0.1,3-3.8,3.9-6.3,5
		c-4.5,2-9.3,2.3-14.2,1.2c-4.1-0.9-8.1-2-12.1-3c-4.4-1.1-8.3-2.2-13.1,0.7c-6.5,4-15.7-2.1-17.1-10.2c-0.8-4.9-2.3-9.7-2.7-14.6
		c-0.5-5.9-3.7-9.7-7.8-13.4c-14.6-13.3-23-30.3-28.7-48.9c-0.7-2.4-0.8-4.9-0.9-7.4c-1-18,1.2-35.5,5.7-52.9c6-23,9.5-46.8,19-68.8
		c9.7-22.4,22.8-42.6,40.7-59.2c12.5-11.6,27.9-16.9,44.3-20.1c20.7-4.1,40.8-2.1,60.3,5.4c11.5,4.5,23,9.6,31.7,19.3
		c5.5,6.2,11.7,11.8,17.3,18c11.7,12.7,18.1,28.3,24.3,43.9c11.1,28.1,19.1,57.2,25.5,86.7c2.9,13.6,2.1,27.3,0.6,41.2
		c-1.9,17.7-9,33.1-18.2,47.6c-5.4,8.5-13.1,15.6-22.9,19.4c-3.6,1.4-6.3,3-4.9,7.6c0.3,1.1,0.1,2.5-1.2,3c-1.5,0.5-2.2-0.6-2.4-1.8
		c-1-5.2-4.9-4.2-8.2-3.5c-4.2,0.9-8.3,2.4-12.4,3.7c-3.2,1-6.5,1.1-9.9,1c-0.8,0-1.8-0.2-2.2-0.7c-0.6-0.8,0.3-1.5,0.9-2
		c13-10,17-25,21.8-39.5c0.4-1.1,1-2.3-0.3-3.1c-1-0.6-2,0.1-2.8,0.6c-2.9,1.9-5.5,4-7.6,7c-10.9,16-25.2,28.1-43.1,35.8
		c-6.4,2.7-12.9,2.6-19.5,0.7c-19.7-5.5-37.1-15.2-53.1-27.7c-0.7-0.5-1.3-1-2-1.4C147.7,317.5,147.3,317.7,146.4,317.7z"/>
</g>
</svg>
