<?xml version="1.0" encoding="utf-8"?>
<!-- Generator: Adobe Illustrator 24.3.0, SVG Export Plug-In . SVG Version: 6.00 Build 0)  -->
<svg version="1.1" id="shapes" xmlns="http://www.w3.org/2000/svg" xmlns:xlink="http://www.w3.org/1999/xlink" x="0px" y="0px"
	 width="400px" height="457px" viewBox="0 0 400 457" style="enable-background:new 0 0 400 457;" xml:space="preserve">
<style type="text/css">
	.st0{fill:#7CA4AE;}
</style>
<g>
	<path class="st0" d="M275.7,302c-2,2.2-2.2,5.1-3.1,7.7c-8.2,22.3-21.2,40.7-42.8,51.6c-10.4,5.3-22.1,5.8-33.6,5.6
		c-18.5-0.3-34.5-7.6-48.6-19.3c-1.9-1.6-3.4-2.2-4.4,0.6c-0.7,2.2-4.8,2.1-4,4.2c0.9,2.2,3.5,3.9,5.5,5.6
		c5.4,4.8,11.9,7.2,19.1,7.7c0.9,0.1,2.2-0.2,2.6,1c0.4,1.2-0.6,1.8-1.3,2.4c-5.8,5.3-11.2,10.7-20.4,9.2c-3.9-0.7-7.9,2-12.1,2.3
		c-3.1,0.2-5.9,0.2-8.7-1.1c-18.1-8.5-33.2-20.8-45.8-36.2c-3.5-4.3-5-10.1-6.3-15.6c-3-12.3-3.6-24.6-1.9-37.2
		c4.4-32,9.7-63.9,20.5-94.5c7.6-21.5,16.7-42.7,31.8-60.2c9-10.4,19.4-19.4,32.8-24.4c12.1-4.5,24-1.6,35.9,0.3
		c3.2,0.5,6.1,0.5,9.2-0.5c12.8-4,25.8-5,38.8-1.3c12.6,3.6,22.5,11.7,30.1,22c15.9,21.8,27.6,45.9,35.8,71.6
		c8.4,26.3,17.5,52.4,23,79.6c5.2,26,4.4,51.7-2.4,77.1c-3.1,11.7-9,22.5-15.7,32.8c-2,3.1-7.3,3.2-8.7-0.2
		c-2.1-4.8-5.5-4.2-9.1-3.2c-2.7,0.7-5.3,1.9-7.9,2.9c-3,1.2-6,1.9-9.2,0.9c-7-2.1-8.7-6.2-4.2-11.9c8.1-10.2,8.8-22.4,9.6-34.5
		c0.8-13.5-0.3-26.9-1.9-40.4C278,305,277.8,303.2,275.7,302z"/>
</g>
</svg>
