<?xml version="1.0" encoding="utf-8"?>
<!-- Generator: Adobe Illustrator 24.3.0, SVG Export Plug-In . SVG Version: 6.00 Build 0)  -->
<svg version="1.1" id="shapes" xmlns="http://www.w3.org/2000/svg" xmlns:xlink="http://www.w3.org/1999/xlink" x="0px" y="0px"
	 width="400px" height="457px" viewBox="0 0 400 457" style="enable-background:new 0 0 400 457;" xml:space="preserve">
<style type="text/css">
	.st0{fill:#7CA4AE;}
</style>
<g>
	<path class="st0" d="M274.1,266c-1,3.6-2.2,7.2-3,10.8c-3.1,12.9-9.4,24.5-18.2,34.1c-12.4,13.6-27.7,22.9-46.7,24.1
		c-10.6,0.7-19.2-4.9-27.4-10.7c-5.1-3.6-10.2-7.5-14.9-12.5c-1.6,4-1.2,7.6-0.4,11c3.6,14.6,1.2,29.1-1.1,43.5
		c-0.4,2.5-1.3,4.4-4.1,4.9c-3.6,0.6-7.3,1.6-10.6-1c-0.9-0.7-0.9-1.6-0.8-2.7c0.5-6.8-4.3-10.3-10.8-7.8c-2,0.8-3.8,2-5.9,2.8
		c-5.9,2.3-10.2,0.5-12.3-5.4c-0.8-2.2-1.6-3.1-3.8-2.7c-2.3,0.4-4.6-0.2-6.1-1.6c-5.5-5-10.8-10.2-15.9-15.6
		c-2.1-2.3-1.1-4.8,1.5-6.3c3.6-2.1,4.9-5.5,5-9.2c0.1-6.1,0.9-12.2-2.1-18c-1.7-3.2-1.4-6.6,0-10.1c3-7.5,5.8-14.9,13.2-19.4
		c2-1.2,1.9-2.8,0.7-4.6c-2.7-4-2.3-8-0.5-12.3c4.6-11.2,4.5-22.9,1.1-34.3c-3.8-12.8-3.3-25.7-2.6-38.6c0.9-16.6,5.5-32.5,8.1-48.7
		c0.9-5.7,3.8-10.7,6.7-15.5c6.3-10.4,13.8-20.1,23-28c12.3-10.5,27.8-14,43.2-17c16.6-3.2,32.9-0.6,48.8,4.2
		c9.4,2.8,17.9,8,26.2,13.3c7.3,4.7,14.5,9.6,21.9,14c11.2,6.6,17.5,16.6,20.9,28.7c5.9,21.3,11.4,42.8,18.8,63.7
		c3.2,9,8.2,15.8,16.5,20.4c7.3,4,11.5,10.4,13.7,18.3c2.1,7.3,1.7,14.2-3.7,20.1c-2.5,2.8-3.7,5.8-3.2,9.6c0.6,4.6-1,8.4-4.4,11.6
		c-3.4,3.1-5.2,7.3-7.3,11.3c-1.6,3-0.9,4.9,2,6.6c7,4.2,7.5,8.4,2.3,14.4c-3.3,3.8-6.5,7.6-9.6,11.5c-4.8,6.1-2.4,15.1,4.7,18.2
		c3.3,1.5,6.5,3.4,9.9,4.8c3.4,1.5,2.8,3.3,0.7,5.3c-3.7,3.5-7.4,6.9-12.9,7.7c-4.3,0.7-10,1.1-7.7,8.3c0.1,0.3,0,0.8-0.2,0.9
		c-5.4,2.9-7.6,8.9-12.3,12.4c-0.6,0.4-1.8,0.8-2.4,0.5c-9.7-5.3-21.3-6.4-30.1-13.6c-8.2-6.8-11.4-15.8-11.5-26.4
		c-0.1-23.9,4.5-47.4,4.4-71.2c0-1.1,0-2.2,0-3.4C274.6,266.1,274.4,266.1,274.1,266z"/>
</g>
</svg>
