<?xml version="1.0" encoding="utf-8"?>
<!-- Generator: Adobe Illustrator 24.3.0, SVG Export Plug-In . SVG Version: 6.00 Build 0)  -->
<svg version="1.1" id="shapes" xmlns="http://www.w3.org/2000/svg" xmlns:xlink="http://www.w3.org/1999/xlink" x="0px" y="0px"
	 width="400px" height="457px" viewBox="0 0 400 457" style="enable-background:new 0 0 400 457;" xml:space="preserve">
<style type="text/css">
	.st0{fill:#7CA4AE;}
</style>
<g>
	<path class="st0" d="M270.4,292.3c-4.5,8.9-11.5,13.9-16.9,20.4c-8.8,10.7-20.1,17.9-33.3,22.1c-9.9,3.1-19.5,1-28.7-2.9
		c-12.3-5.2-22.4-13.6-31.6-23.2c-4.5-4.7-5.9-4.1-7.6,2.1c-2.1,7.8-0.7,14.1,5.7,19.7c5.8,5.1,11.1,10.9,12.5,19.3
		c0.6,3.7,4.5,5.6,7.3,7.9c9.1,7.4,11.8,16.5,8.1,27.8c-0.9,2.7-1.7,5.7,3.1,4.8c2-0.4,3.8-0.2,4.5,1.9c0.7,1.9-0.2,3.5-1.6,4.9
		c-1.4,1.4-3.1,1.9-5,2.1c-4.7,0.4-9.2-0.3-13.6-2.1c-4.5-1.9-5.6-4.9-4.4-9.1c0.6-2.2,1.9-4.2,2.6-6.5c1-3.2-0.3-5.7-3.4-6.7
		c-3.9-1.3-4.2,2.1-4.4,4.3c-0.6,9.5-6,10.2-12.9,10c-3.7-0.1-6-2-5.6-6.1c0.2-1.7,0.7-3.6-1.6-4c-1.9-0.4-3,1.1-3.8,2.6
		c-0.5,1-1.1,2.1-1.5,3.2c-4.3,11.1-17,12.3-24.1,8.2c-1.6-0.9-3.3-2.1-5.1-1.7c-7.9,1.8-15.8,0.2-23.8,0.3
		c-4.1,0.1-8.3,0.5-10.6-3.6c-2.1-3.8-2.7-7.9,0.8-11.5c0.7-0.8,1.4-2.3,1.2-3.2c-1.6-5.9,0.7-12.4-2.8-18c-1.4-2.3-0.5-4.1,0.6-6
		c2.4-4.2,1.7-5.7-3.2-6.2c-6.8-0.7-13.2,1.2-19.4,3.9c-1.8,0.8-3.7,1.6-5.4,2.5c-3.8,1.9-7.2,4.3-7.3,9.2c0,1,0.1,2.2-1.1,2.5
		c-1.4,0.4-2.1-0.7-2.7-1.7c-1.2-1.8-1.3-3.7-0.8-5.7c1.2-5.2,4.6-8.7,8.5-12c2.5-2.1,5.8-3.9,6-8.7c-4.6,2.5-7.4,6-10.5,9.1
		c-3.6,3.5-7.8,5.6-12.6,6.7c-1.6,0.4-3.6,0.4-4.3-1.5c-0.7-1.7,0.9-2.7,2.1-3.6c8.7-7,9.8-15.6,3-24.7c-4-5.4-3-17.7-0.3-23.7
		c6.1-13.1,14.9-25.9,6.7-41.8c-4.8-9.3-2-18.2,5.2-25.6c2.8-2.9,5.5-5.9,8.6-8.3c7.8-6,9.9-13.7,7.6-23c-1.4-5.7-2.6-11.3-3.1-17.2
		c-0.5-5.4,0.8-9.8,5.1-12.7c7.3-4.9,11.2-11.5,12.2-20.2c0.8-6.6,5.2-11.3,10.4-14.7c7.7-5,12.5-12,15.1-20.4
		c3.9-12.6,13-19.9,24.6-24.4c9.2-3.6,17.8-8,25.8-14c13.3-10,28.9-14.5,45.2-12.1c13.1,2,26,6.2,37.7,12.7c8.7,4.8,18,6.4,27.5,8
		c17.2,2.8,32.6,10,47,19.7c9.4,6.3,17.4,13.9,24.1,23c2,2.8,3.2,5.5,2,8.8c-3,8.3-0.7,15,6.2,20.3c2.2,1.7,3.4,4.3,3.3,7
		c-0.3,6,1.9,11.4,4,16.9c1.5,3.8,1.7,7.1-2.5,9.4c-2.8,1.6-2.4,4.5-2.1,7.2c0.6,5.8,3.7,10.7,6.3,15.7c2.4,4.8,1.8,9.5,1.7,14.7
		c-0.1,7.4-3.3,12.4-6,18.4c-4.8,10.4,1.3,19.3,6.3,27.9c1.9,3.3,4.2,6.4,5.7,9.9c3,6.9,2.6,12.9-2.6,18.9
		c-6.9,7.9-5.6,17.4-2.7,26.5c1.3,4.2,3.7,8.2,5.9,12.1c2.1,3.8,1.5,7.1-1.1,10.1c-2.4,2.7-8.9,3.4-11.7,1.5c-2.9-2-2.4-3.9,0.1-5.9
		c2.5-2,3.7-4.5,0.7-7.1c-1.5-1.3-3.1-1.8-4.7,0.2c-3.7,4.6-10.7,5.5-13,11.9c-0.6,1.7-3.7,2.1-5.9,1.7c-2.1-0.3-4.3-0.8-6.4-1.2
		c-4.2-0.8-7.1,0.2-8.5,4.7c-1.3,4.1-3.6,7.4-7.8,9.3c-3.3,1.5-5.8,0.6-7.7-2.4c-1.9-2.9-0.2-4.7,2.2-6.1c2.7-1.7,2.7-3.7,1.6-6.4
		c-1.3-3.2-2.3-6.6-3.2-10c-0.8-2.9-2.2-4.9-5-6.4c-11.4-6.1-13.3-14.3-10.5-27.6C271.8,300.6,270.9,297.3,270.4,292.3z"/>
</g>
</svg>
