<?xml version="1.0" encoding="utf-8"?>
<!-- Generator: Adobe Illustrator 24.3.0, SVG Export Plug-In . SVG Version: 6.00 Build 0)  -->
<svg version="1.1" id="shapes" xmlns="http://www.w3.org/2000/svg" xmlns:xlink="http://www.w3.org/1999/xlink" x="0px" y="0px"
	 width="400px" height="457px" viewBox="0 0 400 457" style="enable-background:new 0 0 400 457;" xml:space="preserve">
<style type="text/css">
	.st0{fill:#7CA4AE;}
</style>
<g>
	<path class="st0" d="M291,157.6c0.2,9.3-0.7,17.7-1.7,26.2c-0.5,4.5,0.4,7.8,4.7,10.5c7,4.4,5.8,11.7,4.4,18.1
		c-2.8,12-2.8,24.5-6.1,36.4c-0.9,3.3-0.7,7,1.2,10.2c1.6,2.7,0.4,3.9-2.3,4.5c-4.2,0.9-8.2,2.9-12.7,1.7c-2.2-0.6-2.9,0.8-3.3,2.6
		c-4.6,18.5-12.7,35.3-25,50.1c-2.4,2.9-5.1,5.2-7.9,7.6c-7.1,5.8-14.1,11.7-21.1,17.6c-15.4,12.9-33.9,9.9-48.4-2
		c-8.9-7.2-17.8-14.6-25.9-22.8c-11.2-11.4-17.6-25.7-22.1-40.9c-1.3-4.5-1-9.9-3.5-13.4c-2.6-3.6-8.5-2.4-12.8-4.1
		c-4.9-2-5.6-3.3-2-6.9c2.7-2.7,3.9-4.3,1.5-8.5c-2.1-3.7-1.2-9.1-2.2-13.6c-2.3-11.3-2.1-22.8-2.9-34.2c-0.3-4.1,2.4-8,6.8-8.5
		c4.3-0.5,4.8-2.7,4.1-6.1c-1-4.9-2.3-9.8-2.8-14.7c-2.6-25.8,1.2-50.6,17.7-71.3c7.1-8.9,10.2-18.3,12.6-28.7
		c2.2-9.6,4.8-19.1,10.5-27.4c6.6-9.6,14-17.1,27.2-17.5c9.4-0.3,18.7-2.4,28.3-1.4c16.1,1.7,25.7,10.6,29.4,26.1
		c1.9,7.8,4.1,15.4,6,23.2c0.6,2.5,1.7,4.1,3.7,5.6c14.4,10.1,25.8,23.2,35.7,37.4c4.8,6.9,7.7,15.5,7.8,24.5
		C290.1,144.8,291.8,151.5,291,157.6z"/>
</g>
</svg>
