<?xml version="1.0" encoding="utf-8"?>
<!-- Generator: Adobe Illustrator 24.3.0, SVG Export Plug-In . SVG Version: 6.00 Build 0)  -->
<svg version="1.1" id="shapes" xmlns="http://www.w3.org/2000/svg" xmlns:xlink="http://www.w3.org/1999/xlink" x="0px" y="0px"
	 width="400px" height="457px" viewBox="0 0 400 457" style="enable-background:new 0 0 400 457;" xml:space="preserve">
<style type="text/css">
	.st0{fill:#7CA4AE;}
</style>
<g>
	<path class="st0" d="M140.9,310.6c0,6.3,0.4,12.5-0.1,18.8c-1.2,15-4.8,29.2-15.6,40.6c-2,2.1-4.1,4-6.7,5.2
		c-1.9,0.8-5.6,4.6-4.8-2.1c0.1-0.9-4-2.9-6.6-2c-2.8,1-5.4,2.5-8.1,3.7c-1.1,0.5-2.4,0.6-3.3-0.4c-1.1-1.1,0.1-2.1,0.3-3.2
		c0.4-1.9,5.4-6.6-2.3-4c-2,0.6-1.9-1.5-1.5-2.7c1-3.3-0.4-3.9-3.2-3c-0.6,0.2-1.3,0.4-1.9,0.5c-1.9,0.3-4.4,1.2-5.6-0.5
		c-1.3-1.9,1.4-3,2.1-4.6c1.1-2.3,4.1-3.8,1.8-7.4c-1.3-2,3.1-3.2,2.6-6.3c-2-0.6-6.2,3.7-6.3-2.2c-0.9,0.3-1.9,0.5-2.8,0.9
		c-6,2.2-12.2,3.4-18.5,3.3c-1.7,0-3.7,0.3-5-2.1c7.1-2.1,13.4-5.4,19-10.3c4.5-3.9,6.7-8.6,7.6-14.2c0.9-5.6,1.3-11.3,2.4-16.8
		c0.7-3.8,0-7.2-1.2-10.7c-4.9-13.7-9.6-27.3-11.5-41.8c-0.7-5.8-0.9-11.6,0.7-17.3c3.1-11.3,6.6-22,14.9-31
		c11.4-12.4,15-28.6,18.8-44.6c2.8-11.9,5.3-24.6,13.9-33.8c9.3-9.9,18.7-19.8,30-27.7c8.5-5.9,17.4-10.8,27.3-14.2
		c17.7-6.2,33-2.4,46.8,9.3c3.4,2.9,6.9,4.9,11.5,5.4c11.7,1.3,21.1,7.1,28.1,16.3c5.5,7.2,11.7,13.6,18,20
		c7.6,7.7,12.4,16.8,13.1,27.8c0.6,9.5,3.7,18.2,8.3,26.5c3.3,6,6.5,12,9.8,18c5.8,10.2,7.9,21.1,6.9,32.7c-0.3,3.7-2.5,6.9-4,10.1
		c-4.9,10.4-10.6,20.3-14.1,31.4c-3.1,10.1-4.3,19.9-2,30.4c1.9,8.3,5.6,14.5,13.5,17.8c2.5,1.1,4.9,2.2,3.9,5.8
		c-1,3.3-3.7,3.8-6.3,3.5c-4.3-0.5-7.8,1.6-11.3,3.1c-4,1.8-8,3.2-12.3,3.8c-11.4,1.8-20.7-3.7-24.6-14.6c-1.3-3.8-2.4-7.6-3.5-11.5
		c-0.7-2.4-1.3-3.1-3.5-1.1c-6.1,5.7-12.8,10.6-19.4,15.6c-19.7,15-40.7,16.9-62.8,6.4c-9.3-4.5-17.3-11.2-24.1-19.1
		c-2.3-2.7-4.7-5.4-7-8.1C141.6,310.4,141.3,310.5,140.9,310.6z"/>
</g>
</svg>
