<?xml version="1.0" encoding="utf-8"?>
<!-- Generator: Adobe Illustrator 24.3.0, SVG Export Plug-In . SVG Version: 6.00 Build 0)  -->
<svg version="1.1" id="shapes" xmlns="http://www.w3.org/2000/svg" xmlns:xlink="http://www.w3.org/1999/xlink" x="0px" y="0px"
	 width="400px" height="457px" viewBox="0 0 400 457" style="enable-background:new 0 0 400 457;" xml:space="preserve">
<style type="text/css">
	.st0{fill:#7CA4AE;}
</style>
<g>
	<path class="st0" d="M189.3,368.3c-7.5,1.8-15.8-1.1-23.3-5.2c-5-2.7-9.3-7.3-13.3-11.6c-3.5-3.7-5.7-8.6-9.3-12.2
		c-6.4-6.4-10.2-14.6-15.7-21.6c-6.3-8.1-7.9-17.3-6.9-27.2c0.4-3.5-2.2-6.3-2.2-9.7c0.1-6.6-1.8-12.7-3.7-18.8
		c-1.9-5.9-1.5-12.3-1.7-18.2c-0.3-13.8-4.1-27.4-1.9-41.3c0.6-4.2-1.5-8.8-1.8-13.2c-1.1-15.6-2.1-30.9,3-46.4
		c5.5-16.8,17.4-28,29.1-39.6c3.7-3.6,6.5-8,10.8-11c11.2-8,23.8-11.4,37.4-11.8c12.6-0.3,25,0.3,36.7,5.3
		c6.4,2.7,12.4,6.3,18.6,9.6c15.9,8.6,27,22.3,38,36.1c2.9,3.6,2.8,8.1,4.6,12c5.2,11.2,7.7,22.8,7,35.3c-0.4,7.4-0.1,14.9-1.3,22.3
		c-0.4,2.6-0.2,5.3,1.8,7.5c0.6,0.7,1.1,1.8,1.1,2.7c-0.2,9.6,1.5,19.2-2.3,28.6c-3.4,8.3-5.8,17-8.5,25.6c-0.9,3-2.1,5.2-5.8,4.8
		c-2-0.2-4,0.6-3.8,2.9c0.3,3.2-1.2,5.3-3,7.6c-1.9,2.6-2.7,5.8-2.5,9c0.4,4.6-0.9,8.7-2.8,12.9c-5.8,12.5-12.1,24.6-19.1,36.5
		c-3.9,6.7-7.2,13.2-13.8,17.4C217.8,367.4,205.8,368.5,189.3,368.3z"/>
</g>
</svg>
