<?xml version="1.0" encoding="utf-8"?>
<!-- Generator: Adobe Illustrator 24.3.0, SVG Export Plug-In . SVG Version: 6.00 Build 0)  -->
<svg version="1.1" id="shapes" xmlns="http://www.w3.org/2000/svg" xmlns:xlink="http://www.w3.org/1999/xlink" x="0px" y="0px"
	 width="400px" height="457px" viewBox="0 0 400 457" style="enable-background:new 0 0 400 457;" xml:space="preserve">
<style type="text/css">
	.st0{fill:#7CA4AE;}
</style>
<g>
	<path class="st0" d="M193.4,359.4c-9.5,0.7-18.1-1.4-25.3-8.2c-2.2-2.1-3.6-4.8-5.2-7.3c-2.8-4.6-6.2-9-11.2-11.1
		c-9.7-4-14.2-11.8-16.6-21.1c-3.8-14.8-7.6-29.7-8.3-45.1c-0.1-3.3,0.7-6.6,0.2-10c-0.5-3.5-0.6-7-3.5-9.5
		c-0.5-0.4-0.8-1.1-0.9-1.8c-1.3-12.8-7.9-24.3-8.8-37.2c-0.4-5.8,3.9-4.1,6.4-4c5.3,0,6-0.4,4.8-5.8c-4.5-20.6-4.9-41.3-1.4-62
		c1.4-8.3,4.3-15.8,9.2-22.9c5.2-7.4,9.3-15.7,14-23.5c6.5-10.5,15.6-17.3,27.9-19.8c9.7-2.1,19.4-4.6,29.3-5.6
		c26.8-2.6,51.4,2.6,72.7,20.1c9.3,7.6,16.2,16.9,21.6,27.5c7.9,15.6,12.6,32,11.8,49.4c-0.5,12.6-1.9,25.2-5.1,37.5
		c-1.7,6.6-1.3,6.7,5,5.3c7.4-1.7,9.6,0.2,10,7.8c0.5,10.5-2.5,19.9-7.6,28.9c-5.5,9.7-10,19.8-13.1,30.6c-1.1,3.7-2.7,6.8-7.1,7.3
		c-3.7,0.4-3.6,3.5-3.9,6c-1,8.7-4,16.8-6.5,25.1c-2.4,8.1-7.7,14-14.3,18.6c-9.2,6.5-18.3,13-26.6,20.8c-6.4,5.9-14.9,7.7-23.5,8.4
		C209.6,358.6,201.5,359,193.4,359.4z"/>
</g>
</svg>
