<?xml version="1.0" encoding="utf-8"?>
<!-- Generator: Adobe Illustrator 24.3.0, SVG Export Plug-In . SVG Version: 6.00 Build 0)  -->
<svg version="1.1" id="shapes" xmlns="http://www.w3.org/2000/svg" xmlns:xlink="http://www.w3.org/1999/xlink" x="0px" y="0px"
	 width="400px" height="457px" viewBox="0 0 400 457" style="enable-background:new 0 0 400 457;" xml:space="preserve">
<style type="text/css">
	.st0{fill:#7CA4AE;}
</style>
<g>
	<path class="st0" d="M148.7,336.9c-1.1,3.7-0.1,6.5,0.9,9.3c2.3,6.9,4.9,13.8,5.8,21.1c1.6,12-2.3,22.6-9.3,32.2
		c-2.3,3.1-5.9,3.6-9.2,4.7c-9.1,2.8-18.2,3.5-27.4,0.1c-3.1-1.2-4.1-2.9-2.3-6c2.7-4.4-0.1-7.4-3.4-9.5c-2.5-1.6-5.4-2.5-8.5-2.5
		c-2.2,0-4.3-0.1-6.5-0.2c-13.1-0.4-18.6-5.8-19-19c-0.2-7-1.2-13.9-1.7-20.9c-0.5-6.8,0.5-13.3,5.9-18.2c0.6-0.6,1.1-1.3,1.6-1.9
		c2.2-2.5,3.2-5.1,0.5-7.9c-2.5-2.6-5.1-3.2-8.4-1.2c-9.3,5.5-21.7,0.2-23.8-10.5c-2.5-13.1-4.1-26.3-5.8-39.4
		c-2-14.9,1.8-28.7,15.4-38.3c11.1-7.8,15.8-18.9,15.2-32.4c-0.4-10.1,2.5-19.2,8.9-26.9c7.5-9.1,8.5-20.1,10-30.9
		c1.7-12.4,5.6-23.9,12.4-34.4c2.5-3.8,5.3-7.5,8.9-10c15.5-10.7,31.1-21.5,49.7-26.2c14.8-3.7,29.4-4.1,42.2,6.4
		c3.4,2.8,6.2,2.8,9.7-0.1c13.3-11.6,31.3-8.4,40.4,2.2c2.8,3.3,6.7,4.9,11,5.4c21,2.2,35.7,13.4,45.3,31.8
		c3.6,6.9,7.6,13.7,9.3,21.5c0.6,2.6,1.9,5,3.6,7.1c12.2,14.8,15.3,32.5,16,51c0.1,1.3-0.4,2.8,0,4c3.8,11.8,5,24.7,12.5,35.1
		c4.2,5.8,5.8,11.9,5.3,18.7c-0.4,5.5,0.9,10.1,4.4,14.4c4.4,5.3,6.7,11.4,5.9,18.5c-0.3,2.3-0.2,4.7,0,7c0.7,9.1-0.8,17.6-6.2,25.2
		c-1.6,2.3-2.3,4.7-1.6,7.6c1.6,6.6,0.7,12.4-3.1,18.5c-2.7,4.5-3.9,10.1-6.2,15.1c-5.7,12.3-16.3,16-28.3,17.3
		c-5.6,0.6-11.3,0.6-16.9-0.5c-3.3-0.7-6.3,0.2-9.1,1.7c-4.5,2.5-9.4,3.2-14.5,2.7c-6.1-0.7-8.6-2.8-9.7-8.9
		c-1.6-8.9,0.3-17.6,2-26.2c1.2-6.2,2.3-12.4,2.2-18.8c-0.2-9.7,0-19.3,2.4-28.9c-1.9,4.7-3.6,9.5-5.7,14.1
		c-11.8,25.4-28.7,46.1-54.7,57.9c-13.4,6.1-30.5,7-42.3-8.5C166.1,350.3,158.1,343.1,148.7,336.9z"/>
</g>
</svg>
