<?xml version="1.0" encoding="utf-8"?>
<!-- Generator: Adobe Illustrator 24.3.0, SVG Export Plug-In . SVG Version: 6.00 Build 0)  -->
<svg version="1.1" id="shapes" xmlns="http://www.w3.org/2000/svg" xmlns:xlink="http://www.w3.org/1999/xlink" x="0px" y="0px"
	 width="400px" height="457px" viewBox="0 0 400 457" style="enable-background:new 0 0 400 457;" xml:space="preserve">
<style type="text/css">
	.st0{fill:#7CA4AE;}
</style>
<g>
	<path class="st0" d="M213.2,53.8c24.3-1.4,42.8,8.7,59.5,23.2c21,18.3,29.8,42.6,33.6,69.4c1.7,11.7,1.4,23.6,2.8,35.3
		c0.4,3.2,0.7,5.2,4.7,3.6c3.3-1.3,5.5,0.4,6.6,3.5c2.4,6.6,4.1,13.2,3.1,20.5c-1.7,11.9-2.4,24.1-7.8,34.9
		c-4.1,8.3-9.1,16.5-15.9,23.1c-1.4,1.4-2.4,2.8-2.4,4.7c0.7,24.9-13.4,42.5-29.2,59.2c-6.7,7.1-13.7,13.9-21.3,20.2
		c-13.7,11.5-29,13.8-45.9,11.3c-9.8-1.5-18.6-4.8-26.2-11.3c-14.2-12.1-27.7-25-40.8-38.2c-7.6-7.7-9.3-17.8-10-28.1
		c-0.2-2.8-0.4-5.6-0.6-8.5c-0.3-4.8-0.2-9.7-6.3-11.6c-1.5-0.5-2.7-3-3.3-4.8c-2.1-7.3-6.4-13.5-10.3-19.9c-1.5-2.5-3-5-3-7.8
		c0.3-13.1-4.1-26-1.8-39.2c1.2-6.8,2.9-8.6,9.7-7.8c2,0.2,3-0.1,2.4-2.3c-2.6-8.5-0.4-16.9,1-25.2c3.2-18,8.5-35.4,16.2-51.9
		c7.7-16.6,19.9-30,36.1-39C179.6,58.5,196,52,213.2,53.8z"/>
</g>
</svg>
