<?xml version="1.0" encoding="utf-8"?>
<!-- Generator: Adobe Illustrator 24.3.0, SVG Export Plug-In . SVG Version: 6.00 Build 0)  -->
<svg version="1.1" id="shapes" xmlns="http://www.w3.org/2000/svg" xmlns:xlink="http://www.w3.org/1999/xlink" x="0px" y="0px"
	 width="400px" height="457px" viewBox="0 0 400 457" style="enable-background:new 0 0 400 457;" xml:space="preserve">
<style type="text/css">
	.st0{fill:#7CA4AE;}
</style>
<g>
	<path class="st0" d="M278.7,380.2c-7.6-4.8-14-10.8-18.2-18.9c-1.3-2.5-2.1-5.2-3-7.9c-1.1-3.2-2.8-3.2-5.2-1.3
		c-6.1,4.7-9.5,10.9-11,18.4c-0.2,1.2,0.2,2.7-1.6,3.8c-2-2.1-2.7-4.8-2.6-7.6c0.6-16.3,5.3-31.3,13.2-45.4
		c2.9-5.2,6.7-9.9,9.1-15.5c-1.8-0.9-2.5,0.6-3.5,1.3c-14,9.2-27.5,19.4-43.4,25.5c-9.9,3.8-19.2,1.9-27.6-3.5
		c-7.3-4.6-14.5-9.4-22.1-13.7c-6.8-3.8-11.6-9.9-16.5-15.7c-2.1-2.5-4-5.3-6.5-8.7c0.3,6.3,1.1,11.5,2.5,16.7
		c3.5,13.5,4.4,27.5,2.7,41.1c-1.4,11.2-5.4,22.3-11.5,32.2c-5,8.2-8,16.7-7.2,26.4c0.5,6.8,0,13.6-2.3,20.2
		c-1.6,4.6-4.8,7.6-8.5,10.1c-4.3,2.8-6.5,1.5-6.3-3.6c0.3-8.8-2-17.1-4.2-25.5c-0.5-1.7-0.3-4.6-3.1-4.4c-2.4,0.2-3.4,2.4-4,4.6
		c-2.1,6.7-3.8,13.4-4.6,20.4c-0.7,5.8-6.4,11.3-12.1,11.9c-2.1,0.2-3.7,0-3.4-2.8c0.9-8.6-4.3-15.4-7.3-23.4
		c-2.9,12.1-9.2,19.7-23.1,19.6c7-11,4.3-21.2,0.3-31.6c-4-10.2-7.5-20.6-9.1-31.5c-2-13.3,2.5-24,12-33.1
		c9.4-9.2,20.7-16,30.5-24.6c10.2-9,13-22,8.9-33.7c-5.7-16-4.4-31.2-1.8-47.1c1.9-11.6,5.7-22.5,10.7-33.1
		c10-21.2,20.5-42.2,33.3-61.9c8.7-13.3,18.8-25.4,31.7-34.9c7.2-5.3,15.5-8.5,24.1-8.8c9.3-0.3,18.5,0.1,27.9-0.8
		c10.5-1,21.7,2.5,31.6,7.8c24.7,13.1,42.4,32.8,55.1,57.3c11.3,21.7,22,43.6,30.9,66.4c6.4,16.5,5.9,33.1,3.2,50
		c-0.7,4.4-1.6,8.8-2.6,13.2c-3.9,17.7-0.9,34.7,5.2,51.3c2.2,6,7.5,10.1,12.3,14.2c3.7,3.2,7.7,6.3,10.3,10.8
		c-18.7-4.5-37.1-9.6-46.9-29.8c-2.9,7.4-1.6,13.4,1.7,18.7c5,8.1,10.5,15.8,15.7,23.7c1,1.5,1.9,3.1,2.5,5.1
		c-9.4-5.5-20.2-8.1-28-16.8c-7.8-8.6-13.3-18.2-17.6-28.7c-1.4-3.5-2.7-4.2-5.9-1.3c-6.3,5.5-9.9,12.3-12.1,20.2
		c-1.7,6.1-0.4,11.5,3.3,16.4C276.3,374.4,278.1,376.9,278.7,380.2z"/>
</g>
</svg>
