<?xml version="1.0" encoding="utf-8"?>
<!-- Generator: Adobe Illustrator 24.3.0, SVG Export Plug-In . SVG Version: 6.00 Build 0)  -->
<svg version="1.1" id="shapes" xmlns="http://www.w3.org/2000/svg" xmlns:xlink="http://www.w3.org/1999/xlink" x="0px" y="0px"
	 width="400px" height="457px" viewBox="0 0 400 457" style="enable-background:new 0 0 400 457;" xml:space="preserve">
<style type="text/css">
	.st0{fill:#7CA4AE;}
</style>
<g>
	<path class="st0" d="M282.3,183.3c0.3,7.4,0.2,14.6-1.1,21.9c-0.3,1.4-0.3,3.2,0.3,4.4c5,9.8,3.3,19.5,0.1,29.3
		c-2.4,7.3-4.9,14.5-7.3,21.7c-0.5,1.6-0.6,3.6-2.3,4.3c-10.1,3.8-10.3,12.6-11,21.2c-0.1,1.2,0,2.5-0.5,3.4
		c-5.7,10.8-9,22.8-16.6,32.7c-2,2.7-3.9,5.3-4.4,8.8c-0.4,2.8-3,4.2-4.9,6.1c-10.4,10.8-23.9,13.4-37.9,14.8
		c-9.3,0.9-18.6,0.2-27.2-4.3c-4.7-2.5-8.5-6.4-12.1-10.1c-5.8-6.1-10.8-12.9-15.6-19.8c-7.2-10.4-14.5-20.4-13.5-34.7
		c0.4-6.6-1.5-14.2-3.7-21.2c-3.1-9.9-1.8-20.4-3.5-30.5c-1.9-11.4,0.7-23-1.8-34.1c-2.4-10.8-2.4-21.4-0.6-32.1
		c2.2-13.1,7.5-25,17.1-34.6c6.1-6.1,11.9-12.5,18.1-18.5c4.7-4.6,10.5-7.9,16.7-9.7c17.8-5.1,35.8-5.1,52.9,2.1
		c17,7.2,31.6,18.1,43.1,32.9C277.3,150.9,282,166.3,282.3,183.3z"/>
</g>
</svg>
