<?xml version="1.0" encoding="utf-8"?>
<!-- Generator: Adobe Illustrator 24.3.0, SVG Export Plug-In . SVG Version: 6.00 Build 0)  -->
<svg version="1.1" id="shapes" xmlns="http://www.w3.org/2000/svg" xmlns:xlink="http://www.w3.org/1999/xlink" x="0px" y="0px"
	 width="400px" height="457px" viewBox="0 0 400 457" style="enable-background:new 0 0 400 457;" xml:space="preserve">
<style type="text/css">
	.st0{fill:#7CA4AE;}
</style>
<g>
	<path class="st0" d="M80.4,80.9c3.4-0.5,6.2,0.9,8.8,3c9.2,7.5,19.4,13.6,29,20.5c1.3,1,2.9,1.6,4.4,2.4c3.7,2.3,5,0.7,5.3-3
		c0.9-8.9,1.6-17.9,2.9-26.8c3.6-24.8,14.6-45.3,34.3-61.1c5.4-4.4,10.9-8.1,17.9-9.3c8.9-1.5,17,1.8,22,9.4
		c2.1,3.2,4.2,6.3,8.5,7.2c6.8,1.3,7.6,1,10.7-5.2c2.9-5.9,8.4-7.7,14.7-4.4c7.7,4.1,14.6,9.4,20.3,16c11,13,20.6,27.1,26,43.4
		c3.6,10.6,4.2,21.8,4.2,33.1c0,6.3,0.5,12.6,5.6,17.5c2,1.9,3.6,2.6,6.1,1.7c13.3-4.8,25.4-11.6,35.2-22.1c2.2-2.4,3.8-5.1,3.7-8.5
		c0-3.5,1.9-3.9,4.6-3c4.7,1.6,9.3,3.6,13.4,6.6c7,5.3,8.9,12.5,7.8,20.8c-1.8,14.5-9.1,26.6-16.7,38.6
		c-9.1,14.2-20.9,25.4-35.5,33.6c-3.1,1.7-3.5,4-3.2,7c2.7,29.6,7.2,58.7,17,87c4,11.5,4.1,23.8,4.3,35.9c0.1,6.6,1,13.2,0.6,19.9
		c-0.2,3.2-0.6,6.3-1.4,9.4c-5,19.5-7.5,39.4-9.7,59.3c-0.7,6.4,3.4,10.1,7.1,14.1c0.9,1,2.1,1.7,2.9,2.7c1,1.4,1.5,3.2,0.6,4.7
		c-1.1,1.9-3,1.2-4.5,0.7c-5.9-1.9-10.8-5.2-14.2-10.5c-2.6-4.1-4.5-8.6-5.9-13.2c-0.7-2.3-0.6-5.6-4.2-4.9
		c-3.2,0.6-5.3,2.7-5.5,6.2c-0.1,3.5-0.1,7-0.2,10.5c-0.5,12.4-6.5,21-16.9,24.6c-2.2,0.8-4.3,1.3-5.7-1.2c-1.4-2.6,0.1-4.1,2.2-5.2
		c3.7-2,5.3-5.3,6.2-9.2c1.2-5.8-0.2-8.4-6.1-8.9c-8.5-0.7-11.7-7-13.7-13.3c-2.6-8-0.9-15.6,5.6-21.9c5.7-5.6,10.9-11.7,17-16.9
		c3-2.6,4.3-6.3,5.7-9.8c0.4-1.1,0.6-2.4-0.4-3.3c-1.1-0.9-2.2-0.1-3.3,0.3c-0.6,0.2-1.2,0.6-1.7,1c-22.2,15.2-47.5,19.9-73.6,21.8
		c-10.3,0.7-20.6,1-30.9,1.1c-14.4,0.2-20.3,13.3-14.4,24.1c3,5.6,5.1,11.8,7.9,17.7c1.2,2.4,1.5,5.1,1.2,7.8c-0.4,4-2.3,6.5-6.4,7
		c-4.9,0.6-9.9,1.7-14.9,0.4c-1.9-0.5-3.9-1.3-3.6-3.4c0.4-2.3,2.3-0.6,3.6-0.6c3.3,0,5-2,4.8-5.1c-0.3-4.5-1.6-8.6-6-10.9
		c-8.2-4.3-12.8-11.4-17.3-19.3c-7.5-13-12.7-27.2-22-39.5c-6.5-8.5-10.9-19.6-9.5-31.4c1-8.6-2.7-16.3-3.7-24.6
		c-1.9-15.7-3.6-31.4-2.4-47.2c0.3-3.6,1.3-6.8,3.1-9.9c3.1-5.3,3.7-10.8,1.8-16.8c-3.2-10.2-3.7-20.9-4.7-31.5
		c-0.3-3.3-1.6-5.3-4.6-6.3c-22.5-7.3-36.7-24.1-48.3-43.4c-5.1-8.5-7.7-18.2-8-28.1c-0.3-12.8,5.5-22.7,16.9-29
		C63,84.9,71.3,81.6,80.4,80.9z"/>
</g>
</svg>
