<?xml version="1.0" encoding="utf-8"?>
<!-- Generator: Adobe Illustrator 24.3.0, SVG Export Plug-In . SVG Version: 6.00 Build 0)  -->
<svg version="1.1" id="shapes" xmlns="http://www.w3.org/2000/svg" xmlns:xlink="http://www.w3.org/1999/xlink" x="0px" y="0px"
	 width="400px" height="457px" viewBox="0 0 400 457" style="enable-background:new 0 0 400 457;" xml:space="preserve">
<style type="text/css">
	.st0{fill:#7CA4AE;}
</style>
<g>
	<path class="st0" d="M313.8,205.8c9.2,0.8,13.1,6.2,10.5,14.4c-4.7,14.8-12.4,28.4-18.6,42.5c-2.2,5.1-7.7,6-12.5,5.1
		c-5.3-0.9-6.7,1.2-7.3,5.7c-2.2,15.2-8.1,28.4-20.1,38.5c-4.7,4-9.1,8.3-14.1,11.9c-7.9,5.8-16.2,11.1-24.5,16.3
		c-21,13.4-53.4,2.8-64-13.6c-4.7-7.2-11.6-12.3-16.8-19c-10.1-13-16.7-27.2-15.6-44.1c0.2-3.2-0.7-5.3-4.2-6.2
		c-3.6-0.9-6.1-3.7-6.9-7.3c-3.7-15.9-7.8-31.7-6.8-48.2c0.3-4.3,0.3-8.7,5.9-10.3c2.7-0.8,1.7-3.7,1.7-5.7
		c-0.1-21.1,2.5-41.8,6.9-62.4c2.8-12.9,8.3-24.9,12.2-37.5c0.2-0.8,0.9-1.5,0.9-2.3c0.4-4.1,1.6-6,6.3-4.1c3.1,1.3,4.7-0.7,4.8-4.2
		c0.1-3.1-1.1-7.2,4.7-7.1c1.6,0,1.2-3.1,2-4.7c1.2-2.3,2-4,5.1-1.8c3.2,2.3,4.9,0.5,5-3c0.1-3.6,0.6-8.2,3.6-9.4
		c4.9-2,6.5-6.7,10.1-9.6c3.1-2.6,6.3-0.5,9.3-1.1c1.3-0.3,0.6,1.8,0.4,2.9c-2.2,9.2,0.5,11.9,9.6,9.6c2.2-0.6,4.4-1.5,6.6-2.3
		c1.2-0.5,2.6-1.4,3.8-0.7c5.4,3.1,10.6,1.1,16,0.1c2.3-0.4,6.6-3.3,6.7,2.9c0,1.2,1.7,1.4,2.9,1.2c1.8-0.3,3.6-0.7,5.4-1
		c4.3-0.9,8.8-3.3,12.4,1.7c0.4,0.5,1.5,0.8,2.3,0.7c4.9-0.4,8.6,0,8.5,6.8c-0.1,2.7,4.3,3.2,6.9,3.3c3.1,0.1,6.3-0.3,9.4-1
		c3.4-0.7,5.5,0,6.4,3.6c0.9,3.9,4.7,6.9,3,11.7c-0.6,1.6,1.7,1.7,2.9,1.9c5.2,1.3,8.6,4.1,9.1,9.8c0,0.5,0.1,1.1,0.4,1.4
		c9.7,10.5,7.8,24.3,10.4,36.7c3.2,14.8,3.8,30,4.7,45.2C319.8,184.2,318,195.1,313.8,205.8z"/>
</g>
</svg>
