<?xml version="1.0" encoding="utf-8"?>
<!-- Generator: Adobe Illustrator 24.3.0, SVG Export Plug-In . SVG Version: 6.00 Build 0)  -->
<svg version="1.1" id="shapes" xmlns="http://www.w3.org/2000/svg" xmlns:xlink="http://www.w3.org/1999/xlink" x="0px" y="0px"
	 width="400px" height="457px" viewBox="0 0 400 457" style="enable-background:new 0 0 400 457;" xml:space="preserve">
<style type="text/css">
	.st0{fill:#7CA4AE;}
</style>
<g>
	<path class="st0" d="M68,344.1c-3.4-8.6-2.5-16.7-0.9-24.8c0.3-1.3,0.9-2.5,1.5-3.7c3.9-8.7,4.5-16.6-1-25.7
		c-7.3-12-7.5-25.6-4-39.1c3.4-13,6.8-26,9.5-39.2c3.6-17.7,6.2-35.7,10.2-53.3c5.2-22.9,16.6-43.3,31.7-61.4
		c9-10.7,18.7-20.7,31.9-25.7c9.5-3.5,17.9-8.5,26.4-13.7c3.2-1.9,6.7-2.9,10.5-2.9c14.1-0.1,28.2-0.3,42.1,3.6
		c11.6,3.3,21.8,9,32,15c15.5,9.2,30.1,19.7,41.1,34.3c8.6,11.5,13.1,24.5,13.9,38.8c0.1,2.3,0.3,4.6,0.6,6.9
		c0.8,6.7,3.7,11.8,9.9,15.1c13.7,7.2,18.5,18,13.9,33.1c-2.3,7.5-3.7,15.2-7.7,22c-2,3.4-2.9,7.1-1.7,11
		c3.4,10.8,2.5,21.7,0.8,32.6c-0.6,3.6-0.4,6.9,0.9,10.2c2.2,5.7,1.6,11.6,0.9,17.6c-3.1-3.7-3.1-8.8-7.3-13.5
		c0.3,12.3-4.9,21.5-11.1,30.3c-1.7,2.4-0.8,5.1-0.5,7.8c1,7.5-1.2,14.2-5,21.9c-1.5-5.5-0.9-10.1-3.2-14.5
		c-2.8,2.3-2.8,5.7-4.3,8.3c-6.5,11.1-13.9,21.5-22.7,30.9c-1.2,1.3-2.6,4.3-4.5,2.7c-2.1-1.6,1.5-3.1,1.7-5
		c-5.9,0.3-5.9,0.3-4.6-5.5c-3.7,1.3-4.8,2.5-5.8,6.1c-0.3,0.9,0.2,2.2-1.2,2.4c-1.3,0.2-2.3-0.6-3-1.5c-1.7-2.4-2.5-5.2-2.8-7.9
		c-1.5-15.9-2.2-31.8-4.2-47.6c-0.5-4,1.7-7.3,4.1-10.4c5.8-7.4,7.7-12.3,7.3-19c-2.4,3.7-4.3,7.1-6.7,10.2
		c-10.2,13.2-23,23.5-37.1,32.2c-12.1,7.5-24.9,6.2-36.6,0c-12.7-6.8-24.8-15-34.7-25.8c-2.4-2.7-4.6-5.6-7.8-8.1
		c0.9,1.9,1.8,3.8,2.7,5.7c6.1,11.6,5.7,23.3,0,34.9c-1.2,2.5-1.6,5-2.1,7.6c-1.5,7.4-5.7,12.9-12.1,16.7c-1.4,0.8-3.3,2-4.6,0.8
		c-1.7-1.6,0.5-2.9,1.2-4.2c1.8-3.7,3.8-7.3,2.9-12.1c-2.4,0.7-3,2.6-4,3.9c-8.6,11-20.4,13.5-33.4,12.9c-1.1-0.1-2.6-0.1-2.7-1.6
		c-0.1-1.2,1.2-1.4,2-2c1.3-1,2.7-2,3.9-3.1c4.6-4.7,4.6-5.7,0.8-11.1c-3.5-5-6.4-10.5-9.1-16c-2.8-5.7-4-5.6-8.8-1.6
		c-6.4,5.3-8.3,12.1-7.8,20C69.4,340.8,70.1,342.1,68,344.1z"/>
</g>
</svg>
