<?xml version="1.0" encoding="utf-8"?>
<!-- Generator: Adobe Illustrator 24.3.0, SVG Export Plug-In . SVG Version: 6.00 Build 0)  -->
<svg version="1.1" id="shapes" xmlns="http://www.w3.org/2000/svg" xmlns:xlink="http://www.w3.org/1999/xlink" x="0px" y="0px"
	 width="400px" height="457px" viewBox="0 0 400 457" style="enable-background:new 0 0 400 457;" xml:space="preserve">
<style type="text/css">
	.st0{fill:#7CA4AE;}
</style>
<g>
	<path class="st0" d="M288.2,115.7c0,3,0.2,6-0.1,9c-0.4,4.5,0.6,8.2,4.2,11.1c2.1,1.7,2.3,3.8,2.2,6.6c-0.5,9.3-0.3,18.6-0.5,28
		c0,2.8,1.5,4.1,3.9,5.1c10.2,4.1,20.3,8.4,30.1,13.5c6.6,3.4,12.2,8,17.3,13.4c4.1,4.4,3.4,8.2-2.2,10.5c-7.3,3-14.8,5-22.8,5.2
		c-11,0.2-22-0.3-32.9-2c-3.3-0.5-4.3,0.3-4.5,3.7c-0.6,7.8-2,16.2-5.4,22.5c-5.1,9.4-6.5,19.4-9.8,29.1c-3.4,10-8.2,18.9-15.6,26.4
		c-6.5,6.7-11.2,15-19.6,19.8c-1.3,0.7-1,2.3-1.5,3.5c-2.7,6.5-4,13.3-10,18.4c-6.1,5.2-12.9,5-19.6,4.6c-3.2-0.2-6.5-0.5-9.8-0.7
		c-10.1-0.6-15.1-4.8-16.6-14.9c-0.5-3.4-1.7-6.7-0.6-10.4c0.9-2.9-1.9-4.3-3.6-6c-18.8-19-32.2-41-38.3-67.2
		c-1.1-4.5-1.5-9.2-1.6-13.9c-0.3-14.2-0.8-28.3-1.1-42.5c-0.1-5.3-2-8.3-7.2-10.4c-20.5-8.4-41-16.8-58.9-30.3
		c-3.1-2.3-5.9-4.9-8.2-8c-2.6-3.5-1.7-6.3,2-8.2c4.2-2.2,8.9-2.7,13.6-2.8c16.2-0.4,32.2,1.7,48.3,3.7c4.6,0.6,7.3-0.3,8.8-4.8
		c1.8-5.2,3.9-10.3,5.7-15.4c8.9-25,24.2-45.8,42.7-64.4c4.9-5,11.2-7.7,17.5-10.3c2.3-1,4.7-1.1,6.5,0.7c5.7,5.7,13.2,6.5,20.4,6.3
		c15.9-0.5,30.2,4,43.7,12c9.3,5.6,14.7,14.4,18.3,24.2C287.1,92,289.2,103.7,288.2,115.7z"/>
</g>
</svg>
