<?xml version="1.0" encoding="utf-8"?>
<!-- Generator: Adobe Illustrator 24.3.0, SVG Export Plug-In . SVG Version: 6.00 Build 0)  -->
<svg version="1.1" id="shapes" xmlns="http://www.w3.org/2000/svg" xmlns:xlink="http://www.w3.org/1999/xlink" x="0px" y="0px"
	 width="400px" height="457px" viewBox="0 0 400 457" style="enable-background:new 0 0 400 457;" xml:space="preserve">
<style type="text/css">
	.st0{fill:#7CA4AE;}
</style>
<g>
	<path class="st0" d="M104.5,267.9c0.2-2.7,0.2-5.3,0.7-7.9c0.6-3.3,2.1-6,6.1-6.2c2.9-0.1,3.6-1.8,3.1-4.4
		c-4.4-22.1-2.1-44.1,2.3-65.9c1.7-8.3,5.9-15.5,9.9-22.8c1.6-2.9,1.6-5.1-0.7-7.5c-3.4-3.5-6.1-7.5-7-12.4c-0.3-1.8-1.3-3.1-3-3.7
		c-5.8-2-6.9-7.2-7.9-12.2c-0.4-2-0.6-4-1.6-5.7c-3.9-6.8-4.9-14.1-3.2-21.7c0.8-3.5-0.2-6.3-2.9-8.5c-4-3.2-4.9-7.5-4.1-12.1
		c0.5-3.1-0.2-5.6-2-7.9c-2.8-3.7-3.8-7.8-2.8-12.3c0.6-2.9,0.1-5.5-0.9-8.2c-2.2-6.1-0.2-9.7,6.1-10.8c5.6-1,10.4-2.9,14.3-7.4
		c2.9-3.4,7.3-4.8,11.7-4.7c3.2,0,4-1,4.3-3.8c0.7-5.6,3.5-8.6,9-8.6c6,0,10.7-1.7,15.4-5.5c5.1-4.1,11.7-3.1,17.9-2.2
		c3.4,0.5,6.5,0.7,9.8-0.4c5-1.6,10.2-1.2,15.4-1.2c7.3,0,14.6,0.9,21.9-0.8c0.3-0.1,0.7-0.1,1-0.1c8.7,1.5,17.1,4.4,25.9,5.7
		c1.8,0.2,3.3,1.8,3.8,3.7c1.4,5.6,5.7,8,10.6,9.6c5.3,1.7,9.3,4.9,12.8,9.1c2,2.3,5.5,3.5,7.1,6c2.9,4.5,5.1,9.5,9.9,12.5
		c0.4,0.2,0.8,0.8,0.8,1.2c0.1,7.3,5,12.5,7.7,18.6c1.7,3.8,0.8,8.1,0.7,12.2c-0.3,10.4-7.1,18.5-8.8,28.2c-0.2,1.1-0.8,2.2-1.5,3.2
		c-8,11.6-8.4,25.1-9,38.3c-0.3,6.9,1.3,14,4.7,20.3c6,11.2,8.5,23.5,10.9,35.6c2.3,11.1,3.1,22.4,4.6,33.6c0.3,2,0.5,3.9,0,5.9
		c-0.4,1.7-0.3,3.5,0.9,4.7c5.7,6.1,4.5,13.8,4.8,21.2c0,0.5,0.1,1.1-0.2,1.5c-7.4,9.2-4.1,20.9-6.9,31.2
		c-4.3,15.7-9.2,31.3-13.4,47c-2.5,9.4-8.9,16.1-15.3,22.4c-9.3,9.1-18.1,18.9-29.3,26.3c-12.1,8-24.5,10.2-37.9,5.1
		c-18.9-7.1-36.6-16.7-50.3-31.6c-12.2-13.3-19.6-29.3-17.6-48.2c0.3-2.5,0.7-4.8-3.4-3.7c-9.5,2.7-14.5-0.9-14.9-11
		c-0.4-9.4-2.2-18.6-5.7-27.2C106.1,278.9,104.1,273.8,104.5,267.9z"/>
</g>
</svg>
