<?xml version="1.0" encoding="utf-8"?>
<!-- Generator: Adobe Illustrator 24.3.0, SVG Export Plug-In . SVG Version: 6.00 Build 0)  -->
<svg version="1.1" id="shapes" xmlns="http://www.w3.org/2000/svg" xmlns:xlink="http://www.w3.org/1999/xlink" x="0px" y="0px"
	 width="400px" height="457px" viewBox="0 0 400 457" style="enable-background:new 0 0 400 457;" xml:space="preserve">
<style type="text/css">
	.st0{fill:#7CA4AE;}
</style>
<g>
	<path class="st0" d="M273.9,280.7c-10.3,16.1-24.7,27.1-40.4,36.9c-21,13.1-41.3,10.8-61.2-2.3c-3.7-2.5-7.3-5.3-10.9-7.9
		c-0.2-0.1-0.6,0-1.2,0.1c1.2,4.3,3.7,7.8,5.9,11.4c7.4,12.1,13.1,24.7,12.7,39.3c-0.2,6.3-2.2,12.1-3.7,18c-0.8,3.2-1,6.1-0.1,9.3
		c3.6,13.1,1.2,24.9-7.1,35.8c-6.1,8.1-12.2,16.2-19.7,23.1c-2.4,2.2-4.2,5.1-6.9,8.5c-1.3-4.8-1.7-9-1.9-13.3
		c-0.1-2.9,1.1-7-4.5-5.2c-0.5,0.1-1.4-0.2-1.7-0.7c-0.6-0.8,0-1.7,0.7-2.1c5.8-3.5,3.5-7.2,0.3-10.9c-0.8-0.9-1.4-1.9-2.1-2.8
		c-5.1-6.3-6.1-6.3-11.8-0.2c-3.2,3.5-7.2,6.2-10,10.3c-0.4-5.9,2.2-10.8,5.2-15.1c2.8-4,2.8-6.4-1.5-9.1
		c-13.9-8.8-16.4-22.2-14-37.1c1.2-7.2-0.8-12.8-5.8-17.5c-3.2-3-6.2-6-7.4-10.4c-0.5-1.9-2-3.4-4-3.3c-7.2,0.5-14.7,0.3-21,4.9
		c-5.2,3.8-6.6,8.9-2.9,14.2c4.2,6.1,8.4,12.8,17.4,12.1c1.3-0.1,2.3,0.5,2.3,2c0,1.2-0.9,1.6-1.9,1.9c-1.8,0.6-3.5,0.5-5.4,0
		c-9-2.4-19.3-13.9-20.7-23.2c-1.4-9.5,4.2-16.8,14.9-19.6c3-0.8,6.2-1.1,9.1-2.6c1.7-1,2.5-2.1,2-4c-5.4-18.5-1.2-37,0.4-55.5
		c0.6-7.2,1-14.3-0.5-21.4c-3.8-18.5-1.9-36.8,1.3-55.1c1.9-11.3,6.5-21.7,10.2-32.3c3.8-10.9,7.2-21.8,8.9-33.2
		c1.6-10.6,7.3-19.6,13-28.4c8-12.4,18.9-22.4,29.3-32.5c3.8-3.7,9.4-5.5,14.2-8.1c7.7-4.3,15.2-8.7,21.5-15.2
		c9.8-10.1,22.6-9.7,35.1-8.1c24.3,3.2,44.7,15.3,63.8,29.9c3.9,3,5.8,7.7,7.8,12c1.9,4.1,4.4,7.8,6.8,11.6
		c10.8,17.1,20.1,34.9,24.8,54.8c1.8,7.8,6.6,14.5,8.4,22.4c1.5,6.5,3.1,12.9,2.7,19.7c-0.2,3.5,0.8,6.5,2.8,9.3
		c4.2,6.2,8.3,12.5,12.3,18.8c5,7.8,7.6,16,3.7,25c-0.9,2.2,0.1,3.9,0.9,5.7c2.2,4.5,4.5,8.9,6.6,13.4c5.8,12.3,5.8,25.1,2.6,38
		c-3.8,15.2-9,30-14.3,44.7c-2.9,8-2.3,9.7,4.7,14.7c7.1,5,12.9,11.5,19.3,17.3c8.1,7.3,8.4,18,9.1,27.8c1,13.8,0.2,27.5-5.5,40.7
		c-3.8,8.9-10,14.2-18.5,17.5c-1.4,0.6-1.4,0.5-5.1-0.1c4.4-7.7,9.8-14.7,13.1-22.8c3.8-9.2,6.5-18.7,3.7-28.7
		c-1.5-5.1-3.5-10.1-9-12.5c-2.7-1.2-3.7-0.3-3.3,2.6c2.1,14.4-1.2,28.1-5.1,41.7c-1,3.4-2.7,6.4-5.9,8.4c-2.4,1.5-3.7,1.4-3.6-1.8
		c0-0.7,0.1-1.3,0-2c-0.2-2.4,1-6.1-1.4-6.8c-2.6-0.8-2.2,3.4-3.6,5c-5.6,6.7-12,11.4-21.3,10.8c-3-0.2-3.9-1.1-2.4-4
		c7.7-15.2,4.9-30.8,1.4-46.3c-0.5-2.2-1.7-5.4-4.6-5.1c-2.5,0.2-3.8,2.8-4.6,5.4c-1.2,4-1,7.8,0.4,11.7c3.5,9.8,2,18.8-4.7,28.3
		c-0.6-4.9-0.7-8.8-2.1-12.4c-0.9-2.2-0.5-5.5-3.8-5.8c-3.1-0.3-4.8,2.3-6,4.5c-4.8,8.9-9.3,18.1-10.6,28.4c-0.4,3.5-1.2,4-4.1,2.2
		c-3.1-2-5.3-4.7-6.7-7.9c-5.1-11.4-6.2-23.3-2.8-35.3c1.6-5.5,5.8-9.7,8.9-14.3c3.3-4.8,4.8-9.8,4.3-15.5
		c-0.8-9.9,0.7-19.1,6.8-27.4c4.5-6.2,1.5-12.8-1-19c-1.1-2.7-3.3-5-4.7-7.6c-1.6-2.9-2.8-2.1-4.2,0c-5.9,8.8-14,14.9-23.4,19.6
		c-4.8,2.4-9.3,5.3-13.3,8.7c-9.1,7.8-8.8,18.3-8.1,28.9c0.1,2,2.2,4.8,0,5.8c-2,1-3.4-2-4.8-3.6c-6.6-8.1-7-17.7-5.7-27.4
		c0.5-3.9,2.7-7,5.6-9.7c8.2-7.5,16.7-14.6,26.3-20.4c14.2-8.6,21.8-22.4,27.6-37.4C271.9,288.7,272.7,284.6,273.9,280.7z
		 M156.7,391.8c0.2-3.6-0.2-7-2.1-10.1c-4.5-7.2-9.7-13.6-18.2-16.2c-1.6-0.5-3.3-2.8-4.8-1c-1.1,1.2,0.4,3.2,1.1,4.6
		c4.7,8.2,4.9,16.7,2.1,25.5c-1,3.1-2.1,6-3.9,8.6c-1.6,2.3-1.4,4,1,5.8c3.6,2.7,6.7,6,8.5,10.3c0.7,1.7,2,3.1,3.6,0.8
		C150.4,411.5,156,402.7,156.7,391.8z M162.2,352.1c0.2-10-12.5-27-21.9-29.4c-0.9-0.2-1.6-0.3-2.3,0.3c-2.9,2.1-4.1,13-1.4,15.3
		c6.9,6,14.7,10.8,22.3,15.8C161.2,355.6,162.2,354.6,162.2,352.1z M108.8,379.3c-0.7,8.8,3.8,14.8,10.1,20c1.2,1,2.1,1.1,3.4,0
		c7.7-6.5,6.7-21.6-2.1-26.7c-2.9-1.7-6.2-6-8.8-4.3C108.3,370.2,108.8,375.4,108.8,379.3z M164.3,389.8c-1.9,14-7.1,25.5-15.9,35.3
		c-3.6,4-4.2,8.3-3.1,13.7c1.9-1.7,3.5-3,4-4.9c1.8-6.6,6.4-11.6,9.8-17.3c2.5-4.3,5-8.6,7.1-13.1
		C168.3,399,168.1,394.5,164.3,389.8z"/>
</g>
</svg>
