<?xml version="1.0" encoding="utf-8"?>
<!-- Generator: Adobe Illustrator 24.3.0, SVG Export Plug-In . SVG Version: 6.00 Build 0)  -->
<svg version="1.1" id="shapes" xmlns="http://www.w3.org/2000/svg" xmlns:xlink="http://www.w3.org/1999/xlink" x="0px" y="0px"
	 width="400px" height="457px" viewBox="0 0 400 457" style="enable-background:new 0 0 400 457;" xml:space="preserve">
<style type="text/css">
	.st0{fill:#7CA4AE;}
</style>
<g>
	<path class="st0" d="M287.7,199.3c1.6,0.8,2.7,0,3.8-0.2c4.4-0.9,7.3,1,7.5,5.5c0.3,6.6,0.1,13.2-2.6,19.6
		c-3.9,9.2-8,18.3-9.8,28.2c-0.6,3.2-2.9,5.2-5.7,6.5c-3,1.3-4.4,3.5-5,6.8c-3.5,18.1-10.6,34.4-22.4,48.8
		c-6.3,7.8-12.1,15.4-22.5,17.7c-19.7,4.3-39.7,6.2-58.1-3.3c-17-8.8-30-22.3-36.9-40.8c-1.3-3.4-2.3-6.9-3.3-10.5
		c-1.4-5-1.9-10.3-8.9-11.4c-3.3-0.5-6-3.6-6.6-7.5c-1.4-9.3-5.7-17.4-10.5-25.1c-4.5-7.2-3.9-15-3.3-22.7c0.3-3.9,3.1-5.8,7-5.3
		c2.9,0.4,3.7-0.6,2.7-3.2c-5.6-14.5-3.9-29.3-2.7-44.3c0.8-9.6,1.6-18.6,6.8-27.1c1.6-2.6,2-6.4,1.9-9.7c-0.1-14,8.9-22,18.7-29.6
		c2.2-1.7,4.4-3.5,6.4-5.5c3.5-3.5,7.7-5.4,13-6.9c10.5-2.9,20.9-3.4,31.4-3.7c6.1-0.2,12.2,0.2,18.3,0.2c7.3,0,14.7-1,22,0.6
		c1.3,0.3,2.5,0.4,3.6,1.4c2.5,2.4,4.4,5.5,9.2,3.1c1.6-0.8,5.2,2.2,7.8,3.6c8.1,4.5,13.7,11.5,18.2,19.2c4,6.8,6,14.7,12.6,20
		c1.6,1.3,2.5,4,3.1,6.2c5.5,21,8,42.3,5.7,64C288.9,195.6,288.2,197.3,287.7,199.3z"/>
</g>
</svg>
