<?xml version="1.0" encoding="utf-8"?>
<!-- Generator: Adobe Illustrator 24.3.0, SVG Export Plug-In . SVG Version: 6.00 Build 0)  -->
<svg version="1.1" id="shapes" xmlns="http://www.w3.org/2000/svg" xmlns:xlink="http://www.w3.org/1999/xlink" x="0px" y="0px"
	 width="400px" height="457px" viewBox="0 0 400 457" style="enable-background:new 0 0 400 457;" xml:space="preserve">
<style type="text/css">
	.st0{fill:#7CA4AE;}
</style>
<g>
	<path class="st0" d="M310.4,183.8c-0.1,19.2-4,34.3-7.3,49.6c-0.6,2.7-0.8,5.2-0.2,7.9c2,8.9,1.1,17.4-3.1,25.6
		c-3.9,7.7-4.8,16.2-5.8,24.7c-1.1,9.9-3.9,12.9-13.9,14.3c-1.6,0.2-2.5,0.8-2.8,2.2c-4,18.4-15.6,32.4-26.3,47.1
		c-6.5,8.9-14.2,14.5-24.9,17.7c-12.8,3.8-25.2,6.4-38.7,3.8c-16.3-3.2-29.1-11.4-39.9-23.7c-10.5-11.9-19-24.8-23.4-40.2
		c-0.7-2.5-1.9-4.7-4.3-5.8c-3.9-1.9-5.3-5.3-5.9-9.2c-0.7-4.5-1.2-8.9-0.4-13.4c0.6-3.6-0.1-7.2-1.7-10.2c-4.6-9-5.9-19-4.8-28.2
		c1.7-13.9-4.1-24.6-10.3-35.8c-3.5-6.4-4.6-13.6-4.9-20.7c-0.6-14.5-0.3-29,2.9-43.2c3.5-15.8,12.2-28.6,25.6-37.3
		c9-5.8,17.1-12.7,26.3-18.1c9.7-5.7,20.3-8,31.4-9.1c10.1-1,20.3-0.3,30.4-1.7c7.5-1,14.8-0.2,22,2.6c14.4,5.6,29.4,9.6,42.4,18.6
		c6.2,4.3,11,9.6,15.3,15.6C302.9,137.9,309.3,161.7,310.4,183.8z"/>
</g>
</svg>
