<?xml version="1.0" encoding="utf-8"?>
<!-- Generator: Adobe Illustrator 24.3.0, SVG Export Plug-In . SVG Version: 6.00 Build 0)  -->
<svg version="1.1" id="shapes" xmlns="http://www.w3.org/2000/svg" xmlns:xlink="http://www.w3.org/1999/xlink" x="0px" y="0px"
	 width="400px" height="457px" viewBox="0 0 400 457" style="enable-background:new 0 0 400 457;" xml:space="preserve">
<style type="text/css">
	.st0{fill:#7CA4AE;}
</style>
<g>
	<path class="st0" d="M136.8,322.1c2.3,12.1,0.7,26.2,8.1,38.5c1.4,2.3,3.2,4.2,4.6,6.5c1.2,1.9,3,4.1,0.8,6.3c-1.9,1.8-4,0.5-6-0.4
		c-3.9-1.8-5.6-5.5-7.8-8.9c-0.7-1-0.8-3.1-2.5-2.6c-1.6,0.4-1.7,2.3-1.6,3.8c0.1,2,0.4,4,0.3,6c0,1.8-0.7,3.4-2.8,3.6
		c-1.8,0.2-2.6-1.2-3.3-2.6c-0.1-0.2-0.1-0.3-0.2-0.5c-1.3-1.7-0.1-5.4-3.4-5.3c-3.3,0.1-4.9,3.2-5.4,5.9c-1.9,10-3.1,20.1,3.6,29.1
		c2.1,2.8,5.8,6.4,2.1,9.5c-3.3,2.8-5.6-1.8-8.1-3.7c-2.2-1.7-4.4-3.6-4.9-6.7c-0.2-1-0.7-2-1.9-1.8c-1.5,0.3-1.5,1.5-1.4,2.7
		c0.4,4.1,0.8,8.3,1.3,12.4c0.6,5,0,9.7-3.4,13.6c-2.8,3.2-7.1,2.8-8.6-0.7c-0.9-2.1-0.7-3.7,1.8-4.8c5-2.4,5.8-5.8,2.5-10.2
		c-1.7-2.3-3.4-4.6-4.3-7.3c-0.5-1.5-1.3-2.8-3-2.9c-1.8-0.1-2.5,1.4-3.1,2.8c-0.6,1.2-0.9,2.6-1.6,3.7c-1.7,2.7-4.1,2.7-6.4,1
		c-2.4-1.8-1.6-3.8,0.2-5.5c3.9-3.5,4.6-7.9,4.1-12.8c-0.2-1.7-0.7-3.4-2.5-4.1c-1.9-0.7-2.6,0.9-3.5,2.1c-2,2.5-4.4,5.1-7.3,1.9
		c-2.4-2.8-0.5-5.7,2.2-7.5c3.4-2.3,3.9-5.3,3.2-9.2c-1.8-9.9-2.3-19.8,2.1-29.4c1.3-2.7,2.1-5.6,1.6-8.7c-0.3-1.6-1.1-2.9-2.8-3.1
		c-1.7-0.3-2.4,1.2-2.6,2.5c-1.6,10.8-6.1,21.1-4.8,32.4c0.3,2.2,0.5,4.7-2.5,5c-2.7,0.2-3.7-1.9-4.1-4.2
		c-0.8-5.4,0.1-10.7,2.1-15.7c2.2-5.5,3.2-11.1,3.7-17c0.3-3.7,1.3-7.2,2.8-10.6c2.7-6.1,3.3-12.5,2.2-19c-1.7-10-1.7-20.1-4.6-30
		c-1.9-6.3,0.5-13.1-0.1-19.8c-2.4-28.3,3.3-55.3,15.2-80.9c3.2-7,6.6-13.7,7.2-21.6c0.4-5.2,3.2-9.4,6.9-12.9
		c2.9-2.8,4.6-5.9,4.4-10.1c-0.2-6.9,3.5-12,8.1-16.5c5.1-4.9,10.9-9.2,13.2-16.5c0.9-2.9,4-4.2,6.9-5.4c9-3.8,17-9,23.9-15.9
		c3.8-3.8,13-5.2,17.8-2.4c4.9,2.9,9.7,2.5,14.4,0.6c8.4-3.4,17.4-4.1,26.1-6.2c4.1-1,8.3-0.1,12.4,0.6c11.6,1.9,23.2,1.5,34.8,0.3
		c8.4-0.8,16.5-0.7,24.3,3.3c3.5,1.8,5.3,4.1,4.2,7.8c-0.7,2.5,0.5,3.7,1.5,5.6c2.4,4.4,3.6,8.8,10.5,8.8c3.5,0,4.8,10.2,1.7,14.2
		c-2.7,3.5-2.4,6.3,0.3,9.3c0.4,0.5,0.7,1.1,1.1,1.7c6.9,8.6,11.2,18.2,12.6,29.4c0.9,7.4,3.6,14.5,5.7,21.7
		c7.8,27.2,14.1,54.7,17.4,82.9c0.8,7,3.7,13.5,5.9,20.1c2.4,7.1,5.1,14.1,7.8,21.1c1.8,4.6,4.6,8.6,8.4,11.6
		c5.9,4.6,7.6,11.1,8.3,18c0.1,1.3,0.3,3-1.4,3.3c-1.5,0.3-2.4-1-2.8-2.3c-0.8-2.9-1.3-5.9-2.2-8.7c-1.1-3.3-2.3-5.9-6.7-3
		c-4.2,2.8-14.1,0.3-17.9-3.7c-0.8-0.8-1.1-2.4-2.5-2.1c-1.7,0.4-1.2,2.1-1.4,3.4c-1.1,6-1.3,11.5,5.5,14.9c3.4,1.7,2.1,4.9,0,7.2
		c-3.3,3.5-2.6,7.7-2.2,11.8c0.2,2.1,1.8,3.1,3.5,3.8c1.4,0.6,2.8,1.4,2.5,3.3c-0.2,1.6-1.6,2.1-2.9,2.3c-2.5,0.3-3.3,1.9-3.2,4.2
		c0.3,7.3,0.5,14.6,0.8,21.9c0.1,3.6,1.7,6,5.4,6.8c1.5,0.3,3.1,0.7,3.3,2.5c0.2,2.1-1.5,2.9-3,3.5c-4.2,1.6-3.6,3.7-0.8,6.1
		c1.5,1.3,2.9,2.8,4.6,3.8c5.5,3.3,9.9,7.1,10.2,14.2c0,1.4,1.8,2.7,2.8,4c0.7,0.9,1.8,1.8,1,3.1c-0.9,1.3-2.3,1.2-3.6,0.8
		c-2.4-0.7-4.1-2.1-4.9-4.5c-1.6-5.2-4.8-9.2-9.2-12c-5.6-3.5-8.4-9.3-12.8-13.8c-1.6-1.6-3.1-4.3-5.7-3.2c-2.8,1.2-2.2,4.4-1.9,6.7
		c0.7,5.3,1.3,10.7,3.2,15.6c3.1,7.8,3.9,16.2,6.6,24c0.4,1.1,0.3,2.3,0.5,3.5c0.2,2.2-0.2,4.2-2.6,4.7c-2.4,0.5-3.2-1.6-3.5-3.4
		c-0.9-5.3-6.2-8.5-6.6-14.2c-0.1-1.5-1.8-3-3.7-2.6c-2.1,0.4-1.3,2.3-1.4,3.7c-0.2,4.4-2.7,6-6.6,4.1c-2.7-1.3-5.1-3.1-7.1-5.4
		c-1.6-1.8-3.2-2-5.2-0.5c-6.5,4.8-11.2,4.7-15.5-0.1c-4.3-4.8-4.2-13-0.1-18c5-6,4.4-13.3,4.7-20.4c0.1-1.8-1.4-2.6-2.9-3
		c-1.6-0.4-3.3-0.5-4.9-0.7c-2.3-0.3-4.4-1.1-4.5-3.7c0-2.5,1.8-4.1,4.1-4.2c4.9-0.1,5.8-2.6,4.9-6.9c-1.5-7.8,0.3-15.2,2.8-22.6
		c1.8-5.6,3.1-11.2,2.2-17.2c-0.4-2.3-0.7-5-3.7-5.1c-2.7-0.1-4.1,2-4.9,4.3c-1,2.8-1.8,5.7-2.8,8.6c-0.6,1.7-1.3,3.4-2.7,4.7
		c-2.2,2-4.8,3.1-7.1,0.8c-2.4-2.4-0.5-4.8,1.3-6.4c4.2-3.4,5.1-8,5.3-12.9c0.1-3.1-1.2-5.8-3.7-7.2c-2.9-1.6-4.5,1.4-6.2,3
		c-3.6,3.4-6.7,7.4-10.2,10.9c-6.2,6.3-13.4,9.7-22.5,10.2c-12.7,0.8-25.2-0.4-37.7-2.3c-12.3-1.8-22.5-7.6-31.9-15.3
		c-7.7-6.2-13.9-13.8-21.2-20.4c-1.1-1-2.1-3.1-4-2.1c-1.5,0.8-1.5,2.8-1.7,4.5C137.5,311.5,137.2,316.2,136.8,322.1z M352.1,304.5
		c-0.5-14.2-13-23.4-15.2-36.8C336.3,282.2,340.7,294.8,352.1,304.5z M89.2,265.1c-1.1-7.2-2.1-14.1-3.3-20.9
		c-0.5-2.6-0.5-7.1-3.4-6.7c-2.4,0.4-2.9,5.1-2.3,7.9c1.6,7.2,4.5,14.2,4.1,21.9c0,0.3,0.2,0.6,0.4,0.9c0.4,0.9,0.8,1.9,2,2
		c1.3,0,1.6-1,1.8-2C88.8,267.1,89,266,89.2,265.1z M326.2,222.7c-1.2,4.1-2.2,7.7-3.2,11.2c-1.5,5.1,1.5,8.9,4,12.8
		c0.6,1,2,1.6,3.1,1c1.1-0.6,0.4-1.8,0.3-2.7c-1-5.4-1.6-10.8-1.5-16.3C328.8,226.8,328.3,225.1,326.2,222.7z"/>
</g>
</svg>
