<?xml version="1.0" encoding="utf-8"?>
<!-- Generator: Adobe Illustrator 24.3.0, SVG Export Plug-In . SVG Version: 6.00 Build 0)  -->
<svg version="1.1" id="shapes" xmlns="http://www.w3.org/2000/svg" xmlns:xlink="http://www.w3.org/1999/xlink" x="0px" y="0px"
	 width="400px" height="457px" viewBox="0 0 400 457" style="enable-background:new 0 0 400 457;" xml:space="preserve">
<style type="text/css">
	.st0{fill:#7CA4AE;}
</style>
<g>
	<path class="st0" d="M277.2,294.1c-3.4,5.2-6.3,9-8.6,13.1c-9.8,17.1-25.9,26.6-43,34c-8.2,3.5-17.2,4.3-26.1,0
		c-11-5.4-22.6-9.5-31.8-18.4c-3.8-3.7-6.2-8.2-9-12.4c-2.2-3.3-4.2-6.8-6.8-11.1c-1,6.4-1.9,11.7-2.8,17c-0.7,4.3-1.6,8.6-3.9,12.3
		c-2,3.3-1.8,6.1,0.4,9.2c7.3,10.4,10.4,22.3,10.4,34.8c0,13.1-4.2,25.3-10.8,36.4c-2.9,4.8-7.6,7.9-13.1,9.4
		c-7.6,2.1-15.3,3.1-23.2,2.6c-0.9-0.1-2.2,0.2-2.6-1c-0.4-0.9,0.5-1.6,1.2-1.9c10.4-5.4,8.5-13.6,6.1-22.7
		c-2.6-9.8-7.5-18.9-9-29.1c-0.4-2.8-2.3-3.1-4.8-2.8c-5.1,0.6-10.2,1.8-15.4,1.3c-1.5-0.1-3.5-0.2-3.8-1.8c-0.3-2,2-1.7,3.2-2.4
		c0.3-0.2,0.6-0.3,0.9-0.3c12.8-2.4,14.7-8.4,11.3-22c-0.9-3.7-2.3-7.3-3.1-11c-3.7-17.3,0.6-34.5,0.5-51.8c0-11.6,1.6-23.2,1-34.9
		c-1.1-20.9,0.6-41.6,10.6-60.8c4.3-8.3,7.1-17.2,9.2-26.3c5.3-22.9,16.6-42.5,31.2-60.7c18.4-22.9,42.5-30.6,70.7-28.4
		c6.6,0.5,13.3,0.8,19.8,1.8c18.7,2.8,34.5,12.8,50.4,22c5.1,3,9.3,8.2,12.4,13.5c5.4,9.3,11.1,18.6,13.8,29.3
		c2.8,11.3,8.9,21.1,13.8,31.5c4.6,9.8,8.3,20,9.8,30.8c0.5,3.5,0.5,7,0.1,10.5c-3.3,28.6-7.4,57.1-6.4,86c0.3,9.9-2.6,18.6-7.5,27
		c-10.1,17.3-11.4,36.2-8.8,55.6c0.4,3,2.1,4.7,4.7,5.9c9.6,4.3,20.1,1.1,25.4-7.9c1.5-2.6,2.5-1.4,3.6,0.1c3.6,5,2.7,21.1-0.9,26.4
		c-7.7,11.1-18,10.9-27.2,6c-17.2-9.1-32.7-20.7-41.3-39.1c-3.2-7-4.8-14.6-4.2-22.3c0.9-12.3,2.5-24.5,3.7-36.8
		C277.5,301.8,277.2,298.7,277.2,294.1z"/>
</g>
</svg>
