<?xml version="1.0" encoding="utf-8"?>
<!-- Generator: Adobe Illustrator 24.3.0, SVG Export Plug-In . SVG Version: 6.00 Build 0)  -->
<svg version="1.1" id="shapes" xmlns="http://www.w3.org/2000/svg" xmlns:xlink="http://www.w3.org/1999/xlink" x="0px" y="0px"
	 width="400px" height="457px" viewBox="0 0 400 457" style="enable-background:new 0 0 400 457;" xml:space="preserve">
<style type="text/css">
	.st0{fill:#7CA4AE;}
</style>
<g>
	<path class="st0" d="M192.9,98.5c11,1.4,21.9-1.5,32.8-1.9c2.3-0.1,4.9-0.6,6.9,0.7c8.6,5.3,18.8,6.6,27.6,11.3
		c8,4.3,13.6,11.1,18.7,18.4c1.2,1.8,2.2,3.8,4.3,4.7c7.3,3.1,10.3,9.3,12.8,16.3c9,25,8.4,50.1,2.9,75.7c-2,9.2-3.5,18.5-6.6,27.5
		c-3.4,10.3-3.1,21.3-3.3,32.1c-0.1,5.7-1,10.8-5.8,14.7c-3.4,2.8-2.4,7.1-2.8,10.8c-1.5,13.3-6.8,24.6-15.1,35.1
		c-9.3,11.9-21.6,18.1-35.7,20.9c-9,1.8-18.3,0.9-27.4,0.2c-22.9-1.7-43.2-11.1-62.1-23.2c-12.6-8.1-19.8-20.4-20.3-35.9
		c-0.1-4.8-0.6-9.6-0.8-14.4c-0.1-1.8-0.3-3.6-2.2-4.1c-12.1-3-12.9-13-13.6-22.6c-0.5-7.2-2.1-14.1-3.6-21.1
		c-1.6-8-1-16.2,0.6-24.3c0.2-0.9,0.6-2.3,1.3-2.6c7.8-4.1,5.5-11.6,6.1-18c1-10.7,1.4-21.4-1.6-32.1c-2.3-8,0-15.2,5.8-21.5
		c8-8.6,14.7-18.6,23.3-26.6C151.2,103.5,170.7,96.7,192.9,98.5z"/>
</g>
</svg>
