<?xml version="1.0" encoding="utf-8"?>
<!-- Generator: Adobe Illustrator 24.3.0, SVG Export Plug-In . SVG Version: 6.00 Build 0)  -->
<svg version="1.1" id="shapes" xmlns="http://www.w3.org/2000/svg" xmlns:xlink="http://www.w3.org/1999/xlink" x="0px" y="0px"
	 width="400px" height="457px" viewBox="0 0 400 457" style="enable-background:new 0 0 400 457;" xml:space="preserve">
<style type="text/css">
	.st0{fill:#7CA4AE;}
</style>
<g>
	<path class="st0" d="M150.5,374.9c-4.1-2.5-3.9-6.5-6.8-8.9c-1.1,3.9,1.6,6.5,2.6,9.4c0.5,1.3,1.8,2.9,0.3,4.1
		c-1.4,1-2.8-0.2-4-1.1c-3.5-2.5-8.2-2.2-11.7-4.9c-0.3-0.3-1.4-0.1-1.8,0.3c-0.7,0.7-0.3,1.6,0.3,2.2c2.5,3.2,0.8,3.7-2.3,4
		c-3.8,0.5-7.4,0.9-11.2-0.8c-2.6-1.2-6.6,0.2-8.1,1.4c-3.6,2.9-5.4,0.5-6.8-1.5c-5.2-7.5-10.6-14.9-14.9-23
		c-4.1-7.8-5.2-15.9-5.4-24.5c-0.7-23.7,2.9-47.1,4.5-70.6c1.5-22.1,4.5-44,7.7-65.8c3.9-26.9,13.7-51.5,31.9-72.5
		c18.3-21.3,40.2-36.8,67.4-44.3c16-4.4,31.6-2,46.8,4.5c17.3,7.4,29.1,21.3,41.8,34.2c0.9,0.9,1.5,2.2,2,3.4
		c10.7,26.2,17.6,53.2,20.6,81.4c3.2,29.9,7.6,59.7,11.3,89.5c1.6,13,2.7,26.1,4.4,39.1c1.4,10.9,11,27.6,24.9,30.2
		c3.1,0.6,6.2,1.5,9.2,2.3c2.7,0.8,3.2,2.1,0.9,4.1c-7.3,6.5-14.9,11.9-25.1,13.3c-10.4,1.4-20.8,3.4-29.1,10.7
		c-0.7,0.6-1.9,1.1-2.8,0.9c-4.1-0.9-6.8-1.5-5.9,4.7c0.3,2.4-4.5,3.4-7.5,3.2c-2.7-0.2-4.2,0.3-5.3,3.1c-1.3,3.4-3.4,2.7-6.3,0.8
		c-4.6-3-5.6-7.2-5.9-12.1c-0.1-2.1-1-4.2-1.9-6.2c-0.7-1.7-0.7-4.8-3.1-4.5c-2.8,0.3-3.8,3.2-3.9,5.7c-0.2,5.6,0,11.3,0,16.9
		c0,1.8,2.1,4.5-0.5,5.1c-2.2,0.5-3.3-2.5-3.9-4.5c-2.8-9.2-6-18.3-7.2-28c-1.5-12.4-1.2-24.9-0.9-37.3c0.2-5.7,0.2-11.3-0.9-16.9
		c-0.3-1.6,0.5-3.7-1.5-4.4c-1.9-0.7-3.4,1-4.8,2.1c-5.2,4.1-9.9,8.8-16.1,11.6c-12.7,5.8-25.9,6.7-38.8,2
		c-12.5-4.6-24.1-11.3-34.2-20.2c-1.3-1.1-2.4-3.3-4.5-2.3c-2.1,1-2.7,3.2-2.8,5.5c-0.3,9.1-0.5,18.2,1.4,27.3
		c1.9,9.3,3,18.7,7.1,27.4C150.2,372.1,150.2,373.1,150.5,374.9z"/>
</g>
</svg>
