<?xml version="1.0" encoding="utf-8"?>
<!-- Generator: Adobe Illustrator 24.3.0, SVG Export Plug-In . SVG Version: 6.00 Build 0)  -->
<svg version="1.1" id="shapes" xmlns="http://www.w3.org/2000/svg" xmlns:xlink="http://www.w3.org/1999/xlink" x="0px" y="0px"
	 width="400px" height="457px" viewBox="0 0 400 457" style="enable-background:new 0 0 400 457;" xml:space="preserve">
<style type="text/css">
	.st0{fill:#7CA4AE;}
</style>
<g>
	<path class="st0" d="M83.8,352.2c-2.1-6.9,0-12.9,2.1-18.6c1.8-4.9,4.9-8.7,9.3-12c9.3-7,19.2-13.5,26.6-22.4
		c8.8-10.7,8.6-23.7,5-36.5c-3-10.6-7.8-20.4-14.6-29.3c-5.9-7.6-6.4-16.7-4.4-25.7c2.2-9.7,4.3-19.3,3.3-29.5
		c-1-10.4,0.3-20.9,1.8-31.3c0.8-5.3,3.5-9.7,6.9-13.6c8-9.2,15.2-18.7,18.6-30.8c2.7-9.7,11.4-14.4,19.5-19.1
		c4.5-2.7,8.5-5.5,11.3-10.2c2.8-4.8,7.2-8.3,11.7-11.4c4-2.8,8.2-3.3,12.1-0.3c5.7,4.4,11.7,4.6,18.4,3c12.5-3,24.4-1.9,35,6.4
		c4.6,3.7,7.3,8,7.7,13.8c0.1,1.5-0.1,3,0,4.5c0.7,8.3,1.2,16.3,10.5,20.7c10.6,5.1,15.7,14.7,18.1,26c1.4,6.5,3.5,12.9,5.9,19
		c4.1,10.1,2.6,20.3,1,30.5c-1.1,6.9-2.8,13.7-4.2,20.5c-0.5,2.5-0.8,4.9,1.9,6.6c2.1,1.3,2.3,3.7,1.6,5.8c-2.9,8.6-4,17.4-4.1,26.5
		c-0.1,4.5-1.9,8.7-3.3,13c-1.3,4.1-1.8,8.1,1.2,11.8c1.4,1.7,0.5,3-0.6,4.4c-2,2.5-3.9,4.9-5.7,7.5c-1.3,1.9-2.3,3.6-5.1,2.5
		c-2-0.8-3.2,0.7-3.9,2.2c-7.6,16.8-22.7,26.6-36.1,37.9c-3.1,2.6-6.5,4.7-9.4,7.4c-10.3,9.8-27.8,7.8-37,2.4
		c-13.1-7.8-24.7-17.4-35.1-28.6c-4-4.3-4.1-4.3-6.8,0.9c-1.6,3.1-4.4,5-7.5,6.3c-10.6,4.4-20.8,9.7-30.8,15.3
		C92.9,334.1,89.1,338.1,83.8,352.2z"/>
</g>
</svg>
