<?xml version="1.0" encoding="utf-8"?>
<!-- Generator: Adobe Illustrator 24.3.0, SVG Export Plug-In . SVG Version: 6.00 Build 0)  -->
<svg version="1.1" id="shapes" xmlns="http://www.w3.org/2000/svg" xmlns:xlink="http://www.w3.org/1999/xlink" x="0px" y="0px"
	 width="400px" height="457px" viewBox="0 0 400 457" style="enable-background:new 0 0 400 457;" xml:space="preserve">
<style type="text/css">
	.st0{fill:#7CA4AE;}
</style>
<g>
	<path class="st0" d="M244.2,330.5c-1.1,0.3-1.4,0.2-1.6,0.4c-14.3,13.3-31.7,14.9-48,3.7c-15.2-10.5-30.3-21.2-45.2-32.2
		c-5.7-4.2-11-9.2-13.4-16.4c-0.4-1.2-0.8-2.9-2.4-2.9c-1.5,0-1.9,1.7-2.5,2.9c-4.4,8.4-2.4,17,0.3,25.2
		c4.1,12.9,9.9,25.3,18.2,35.9c6.4,8.1,14.7,15,25.8,16.7c1.9,0.3,3.8,0.7,6.4,1.1c-4,4.1-8.7,4.4-13.2,4.8
		c-4.5,0.4-8.6,1.7-12.9,3.3c-21.8,7.8-45.1,4.4-57.3-19.2c-2.3-4.4-3.9-3.2-6.3-0.5c-9.3,10.6-20.5,17.9-34.7,20.1
		c-3.5,0.5-7,0.6-10.5,0.1c-1.1-0.1-2.5-0.2-3-1.4c-0.6-1.5,1.1-1.8,1.9-2.5c1-0.9,2.1-1.6,3.1-2.5c2.6-2.6,5-5.2-1.5-7
		c2.6-2.1,5-1,7.1-1.3c2.1-0.3,4.7-0.5,4.9-2.6c0.3-2.5-2.6-1.8-4.2-2.3c-2.7-0.8-5.6-1.3-7.8-3.1c-0.9-0.7-1.9-1.8-1.2-3
		c0.6-1,1.8-0.4,2.8-0.2c15.3,3.9,21.1-3.8,27-15.5c9-18,7.2-37,6.5-55.9c-0.6-15.1-4.3-30-3.2-45.3c1.7-24.2,0.3-48.6,2.6-72.8
		c0.3-3.1,0.9-6.3,2-9.3c6.6-19.2,11.3-39.4,24.8-55.2c12.5-14.7,25.8-29.2,45.5-34.3c17.9-4.6,35.7-2.3,53,4
		c4.2,1.6,8.4,3.2,12.5,5c3.9,1.7,7.8,2.8,12.1,2.3c4.7-0.5,9,1.1,12.9,3.4c12.1,7.1,23.8,14.7,32.7,25.8c2.9,3.6,5.8,7.3,7.6,11.7
		c4,9.7,12.7,16.3,16.6,26c6.5,16.4,12.6,32.7,12.9,50.9c0.2,17.4-1.6,34.5-3,51.7c-1.3,15,0.4,30,3,44.7c2.4,13.4,1.1,26.5-2,39.5
		c-0.7,2.9-2.3,5.6,2.2,7.7c2.6,1.2,1.9,5,0.8,7.8c-0.5,1.4-1.6,2.6-2,4c-3.1,9.9-0.3,13.9,10.1,14.7c1.3,0.1,3.1-0.4,3.5,1.2
		c0.5,2-1.3,3.2-2.7,3.6c-10.4,3.1-20.9,7-31.5,1.6c-6.2-3.1-11.4-4-18.3-1.5c-10,3.7-19.4,1.1-26.6-7.4c-2.1-2.5-4.4-4.5-8-4.4
		c-1.1,0-2.5,0-3-1.4c-0.4-1.1,0.8-1.7,1.4-2.4C242.8,343.2,242.8,336.9,244.2,330.5z"/>
</g>
</svg>
