<?xml version="1.0" encoding="utf-8"?>
<!-- Generator: Adobe Illustrator 24.3.0, SVG Export Plug-In . SVG Version: 6.00 Build 0)  -->
<svg version="1.1" id="shapes" xmlns="http://www.w3.org/2000/svg" xmlns:xlink="http://www.w3.org/1999/xlink" x="0px" y="0px"
	 width="400px" height="457px" viewBox="0 0 400 457" style="enable-background:new 0 0 400 457;" xml:space="preserve">
<style type="text/css">
	.st0{fill:#7CA4AE;}
</style>
<g>
	<path class="st0" d="M283.1,179.1c-0.5,5.4,1.2,9,2.2,12.6c3.4,11.9,6.8,23.9,10.4,35.7c1.3,4.2-0.6,7.5-1.9,11
		c-2.8,7.8-5,15.6-4.2,24c0.3,3.8-1.1,6.9-3.9,9.3c-4.4,3.7-6.1,8.5-6.4,14c-0.8,13-7.8,21.7-20.4,25.3c-2.3,0.6-4.2,1.4-4.9,3.7
		c-1.2,3.6-4.1,5.5-6.7,7.9c-7.3,6.9-16.6,11.5-22.7,19.7c-0.7,0.9-1.6,1.9-2.6,2.3c-9,3.7-17.3,9.2-26.7,11.5
		c-6.8,1.7-14.3,1.6-20.9-1.7c-7.6-3.7-15.6-6.3-22.6-11.3c-3.2-2.3-6.6,0.6-6,5.7c0.5,4.9,1,10,5.3,13.5c4,3.2,5.5,7.8,6.2,12.7
		c0.2,1.3,0.2,3.1,1,3.8c6.2,4.8,6.1,12.3,8.5,18.7c0.8,2.3,1.3,4.3,0.1,6.7c-2.3,4.6-2.2,9.4-0.4,14.1c4,10.3,3,20.6,0.2,30.9
		c-0.5,1.7-0.7,3.9-3.2,3.8c-2.2-0.1-3.6-1.5-4.3-3.7c-2.7-8.9-6.4-18.1-5.7-27c0.8-9.7-3.3-18.5-2.5-27.9c0.2-2.5-1.1-4.4-2.3-6.5
		c-2.7-4.6-6.2-8.7-6.1-14.5c0-1.1-0.5-2.6-1.4-3.1c-5.1-3.2-6.4-9.2-10.3-13.3c-4.7-4.9-5.8-11.9-8.4-18c-0.9-2.1-1.5-3.9-3.8-4.8
		c-2.8-1-3.9-3.5-4.7-6.1c-0.5-1.6-2.2-3.3-3-1.6c-2.3,5-7.3,7.3-10.5,11.5c-4.9,6.4-7.3,14.7-14.1,19.6c-2.6,1.9-2.3,4.8-1.7,7.4
		c2,10.5-3.7,18.6-8.2,27c-1.2,2.2-2.6,4.2-3.2,6.7c-2.2,9-5,17.7-1.7,27.3c1.4,3.9-1.6,8.1-5.8,10c-6.3,2.9-13.2,3.4-19.9,4.2
		c-4.4,0.6-6.2-3.1-3.9-7c1.9-3.4,4.8-6.1,7.8-8.4c6.5-5,7.4-12.8,7.3-19.3c-0.1-10.6,4-19.2,8.9-27.5c3-5.2,4.5-9.6,2.2-15.4
		c-2.2-5.6-0.6-10.4,2.6-15.9C74.8,340,81.7,335.4,85,328c0.8-1.8,2.9-3.2,4.7-4.3c4.4-2.6,5.8-6.5,6-11.3c0.2-4.6,0-9.4,4.2-12.8
		c0.5-0.4,1-1.6,0.8-2.2c-1.2-5.7,1.3-10.8,2.2-16.2c1-5.8,2.2-11.2-0.8-16.9c-1.6-2.9-1.7-6.7-0.6-10.3c0.9-3.2-0.8-6.2-2-9.1
		c-2.6-6.3-2.3-12,3-16.9c2.2-2,2.4-4.1,1.2-6.7c-0.9-2-1.4-4.1-2.2-6.1c-1.4-3.5-0.4-6.3,2.8-8.1c3.5-2,5-4.6,3.9-8.6
		c-0.3-1-0.1-2.6,0.5-3.4c4.3-5.5,3.8-12.6,6-18.7c0.6-1.6,1.5-2.9,2.5-4.3c3.9-5.4,8.2-10.7,7.7-17.9c0-0.2,0-0.4,0.1-0.5
		c4.8-6.3,7.1-14.6,14.1-19.2c2.4-1.6,4.8-3,5.9-5.8c1-2.6,3.4-3.8,5.6-5.3c6-4,12.3-4.3,19.1-2.9c3.5,0.7,6.9,0.3,10.4-0.6
		c16.1-4.6,32-4.9,48,1.3c11.8,4.6,24,7.9,36.3,11.1c13.4,3.5,20.3,14.3,27.5,24.8c6.4,9.3,7.8,21.1,15.2,30c1.5,1.8,1.6,4.7,2.4,7
		c1.7,5,3.6,9.7,8.5,13c4.6,3.2,5.6,8.8,5.9,14.3c0.6,10.3,3.6,19.9,8.5,29c3.7,6.7,5.1,13.7,4,21.2c-0.5,3.8-0.8,7.6,0.1,11.4
		c0.9,4.1,0.8,8.2-1.1,12.2c-4.5,9.7-6,19.7-2.7,30.1c1.7,5.4-1.1,10.7-0.3,16.3c0.4,3.2-4,3-5.7,1.3c-4.3-4-9.2-7.9-10.8-13.9
		c-1.2-4.3-1.7-8.8-4-12.8c-1.3-2.3-1.2-5.2-1-7.8c1.1-12.1-0.1-24.2-1.3-36.3c-0.3-2.9-1.5-5.8-2.3-8.7c-0.5-1.6-1.6-3.2-1.5-4.7
		c0.4-11-3.6-21.2-5.1-31.8c-1.1-7.7-5.4-14.3-7.4-21.7C291.1,196.6,285.8,189.1,283.1,179.1z"/>
</g>
</svg>
