<?xml version="1.0" encoding="utf-8"?>
<!-- Generator: Adobe Illustrator 24.3.0, SVG Export Plug-In . SVG Version: 6.00 Build 0)  -->
<svg version="1.1" id="shapes" xmlns="http://www.w3.org/2000/svg" xmlns:xlink="http://www.w3.org/1999/xlink" x="0px" y="0px"
	 width="400px" height="457px" viewBox="0 0 400 457" style="enable-background:new 0 0 400 457;" xml:space="preserve">
<style type="text/css">
	.st0{fill:#7CA4AE;}
</style>
<g>
	<path class="st0" d="M323.2,402.9c-6.2-1.7-9.8-5.9-13.4-10c-3.2-3.6-6-7.5-8.1-12c-1.1-2.3-2.1-2.2-3.3,0
		c-3.4,6.2-2.5,12.2,0.5,18.1c1.4,2.6,3,5.1,4.6,7.9c-7-0.9-16.3-9.5-18.7-16.4c-1-2.9-0.4-7.5-3.6-8.1c-2.9-0.5-5,3.4-6.8,5.9
		c-8,11-7.6,23-3.6,35.2c0.8,2.3,2,4.5,3.6,8c-3.7-2-5.2-4.3-6.7-6.5c-8.9-13.2-16.2-27.1-21.5-42.1c-3.6-10.1-4.2-20-0.8-30.3
		c3.1-9.4,7.9-18,12.9-26.4c3-5,5.5-10.2,7.6-16c-2.4-0.5-3.3,1-4.4,2.1c-13.3,13-29,22.9-44.5,32.7c-10.6,6.7-33.9,3.3-43.1-5
		c-9.5-8.5-19.3-16.8-28.2-26.1c-1.1-1.2-2.5-3.1-4-2.6c-2.1,0.8-0.9,3.2-1,4.9c-0.2,7.6,2.6,14.3,5.6,21c2.2,5,4.9,9.8,6.4,15.1
		c4.1,14.5,0.2,27.6-7,40.1c-9.9,17.2-24.9,29.2-41.1,39.8c-6.7,4.3-12.7,9.7-20.2,12.7c-1.1,0.4-2.1,1-3.2,1.4
		c-1,0.3-2.1,0.2-2.5-1c-0.3-0.9,0.4-1.6,1.1-2c4-2.2,6.8-5.8,9.9-9c3.6-3.8,5.4-8.2,6.2-15.1c-11.9,10.3-23.3,19.2-40.1,19.2
		c3.3-3.1,5.6-5.6,8.3-7.6c7.6-5.6,11.2-13.9,15.1-21.9c9.2-18.8,11.5-39.2,12.3-59.7c0.6-15.6,1.3-31.2,0.1-46.9
		c-1.5-20,1.6-39.9,3.3-59.8c1.3-16.1,2.1-32.2,3.7-48.3c1.7-17.7,6.3-34.7,15.2-50.3c1-1.7,2-3.5,2.6-5.4
		c5.4-15.5,14.8-28.4,26.5-39.4c8.9-8.2,19.9-13.7,30.8-19.2c14.2-7.1,28.8-8,44.2-5.2c8.6,1.5,17.5,1.5,26.3,2.5
		c7.5,0.8,13.9,4.5,19.5,9.2c6,5,11.6,10.4,17.4,15.7c2.3,2,3.9,4.5,5.6,7c17.7,25.6,26.2,54.3,29.4,84.9
		c2.3,21.5,3.2,43.1,4.2,64.8c0.7,16.5,1.4,33,0.9,49.4c-0.7,19-2.5,37.9-8.4,56.1c-3.8,12-1.3,22.6,6.5,32.2
		c1.2,1.4,2.3,2.9,3.4,4.3C323,401.4,322.9,401.8,323.2,402.9z"/>
</g>
</svg>
