<?xml version="1.0" encoding="utf-8"?>
<!-- Generator: Adobe Illustrator 24.3.0, SVG Export Plug-In . SVG Version: 6.00 Build 0)  -->
<svg version="1.1" id="shapes" xmlns="http://www.w3.org/2000/svg" xmlns:xlink="http://www.w3.org/1999/xlink" x="0px" y="0px"
	 width="400px" height="457px" viewBox="0 0 400 457" style="enable-background:new 0 0 400 457;" xml:space="preserve">
<style type="text/css">
	.st0{fill:#7CA4AE;}
</style>
<g>
	<path class="st0" d="M191.2,46.7c12.5,1,24.9-0.4,37.3-2.4c6.8-1.1,12.9,0.3,18.6,3.9c3.3,2,6.5,4,10.4,4.7
		c18.5,3.4,31.3,14.7,41.1,30c1.6,2.5,3.2,4.6,5.9,5.7c6.9,2.7,10.8,8.4,13.2,14.9c6.2,16.6,10.3,33.9,11.2,51.6
		c0.8,14.7-2.5,29.1-5,43.5c-2.4,14.1-4.7,28.2-9.8,41.7c-3,8-1.8,16.8-2.8,25.2c-0.7,6.1-0.8,12.3-1.1,18.4
		c-0.2,4.2-1.5,8.1-4.8,10.6c-4,3-4.8,7-5,11.4c-1,22.6-11,40.9-27.1,56.1c-16.4,15.5-36.5,20.3-58.4,18.8
		c-9.1-0.6-18.3-0.4-27.3-2.6c-19.6-4.8-37.7-12.9-55.3-22.5c-9.1-5-16.4-11.7-22.7-20c-9.2-12.1-10.6-26.3-10.2-40.4
		c0.3-9.5-3.6-14-11.6-16.7c-3.6-1.2-5-3.8-6.1-7.2c-3.3-11.1-1.4-23.1-5.1-34c-3.6-10.6-3.6-21.2-2.6-32c0.6-5.8,0.6-11.9,7.7-14.3
		c1.7-0.6,2-2.1,2-3.7c0-14.5,3-28.8,1.3-43.4c-0.8-6.6-3.4-12.8-3.3-19.6c0.1-6.7,2.2-12.1,6.4-17.3c8.5-10.7,18.3-20.2,26.4-31.3
		c3.9-5.4,9.9-8.8,15.3-12.7C148.2,50,168.8,45.3,191.2,46.7z"/>
</g>
</svg>
