<?xml version="1.0" encoding="utf-8"?>
<!-- Generator: Adobe Illustrator 24.3.0, SVG Export Plug-In . SVG Version: 6.00 Build 0)  -->
<svg version="1.1" id="shapes" xmlns="http://www.w3.org/2000/svg" xmlns:xlink="http://www.w3.org/1999/xlink" x="0px" y="0px"
	 width="400px" height="457px" viewBox="0 0 400 457" style="enable-background:new 0 0 400 457;" xml:space="preserve">
<style type="text/css">
	.st0{fill:#7CA4AE;}
</style>
<g>
	<path class="st0" d="M193.6,26c11.5-0.8,23,2.8,34.8,6c18.4,5,32.5,16.2,46.4,28.3c7.6,6.7,16.1,12.4,21.5,21.4
		c0.5,0.9,1.7,1.7,2.8,2c15.5,5,21.8,17.9,26.3,31.7c5.5,16.5,7.3,33.9,8.2,51.1c0.4,8.7-1.3,17.6-2.3,26.3
		c-0.5,4.1-0.5,7.2,4.9,7.7c3.3,0.3,5.9,2.2,6.7,5.8c0.7,2.9,2.5,3.3,5.3,3c9-0.9,13.2,2.9,13,11.8c-0.3,10.7-3.5,20.9-5.9,31.3
		c-0.1,0.5-0.3,1-0.7,1.3c-7.6,6.9-8.7,17.3-13.2,25.8c-5.1,9.5-18.5,16.7-29.3,14.9c-5-0.8-9.8-2.1-14.5-3.8
		c-2.7-1-4.5-0.3-5.6,2.4c-0.3,0.8-0.8,1.5-1.1,2.2c-6.1,11.5-15.6,16.1-28.7,14.1c-3.6-0.6-5.9,1.9-8.1,4.1
		c-7.2,6.9-14.1,14.1-21.7,20.7c-9.9,8.6-29.2,8.2-38.7,2.5c-10.5-6.2-19.8-14-28.8-22.3c-4.4-4.1-8.4-8-15.1-4.3
		c-3,1.7-6.6,0.7-9.7-0.6c-3.3-1.4-6.3-1.6-9.7-0.5c-9.3,3.1-17.1-0.5-24-6.1c-5-4-10.1-6.1-16.8-5.9c-10.4,0.3-20.7-0.9-28.5-9.3
		c-3.4-3.7-5.9-8.1-5.9-13c0.1-10.4-2.1-20.5-2.3-30.8c-0.2-8.3,3.9-15,7.8-21.7c1-1.8,3.1-3.1,5-1.3c2,1.8,0.2,3.1-1.1,4.5
		c-4.5,4.8-6.4,22.8-3,28.2c2.1,3.4,6.8,4.3,10.6,2.1c5-2.9,7.6-7.3,7.7-13.1c0.1-4.4-0.4-8.7-1.7-12.8c-6.5-20.4-6.3-40.8-0.9-61.5
		c5.2-20.1,8-40.8,13.9-60.8c6.5-22.3,19.4-39.9,36.3-55.1c6.1-5.5,12.5-10.5,19.4-14.8C161.1,28.7,176.4,25.3,193.6,26z
		 M58.6,271.4c-1.7,10.9,10.5,21.6,21,18.9c4-1,5.3-3.2,3.5-6.9c-1.1-2.2-1.3-4.4-1.3-6.8c-0.1-2.6-0.9-3.6-3.7-2.6
		C71.4,276.4,65,275.5,58.6,271.4z"/>
</g>
</svg>
