<?xml version="1.0" encoding="utf-8"?>
<!-- Generator: Adobe Illustrator 24.3.0, SVG Export Plug-In . SVG Version: 6.00 Build 0)  -->
<svg version="1.1" id="shapes" xmlns="http://www.w3.org/2000/svg" xmlns:xlink="http://www.w3.org/1999/xlink" x="0px" y="0px"
	 width="400px" height="457px" viewBox="0 0 400 457" style="enable-background:new 0 0 400 457;" xml:space="preserve">
<style type="text/css">
	.st0{fill:#7CA4AE;}
</style>
<g>
	<path class="st0" d="M265.6,330.5c-8.9,8.5-16.9,16.3-25.1,23.8c-15.7,14.3-34,20-55.2,16.8c-13.7-2-24.8-8.8-34.5-17.8
		c-8.7-8.2-17.5-16.3-25.3-25.7c1.5,5.7,2.9,11.5,4.4,17.2c1.3,5,0.7,9.5-2.2,13.8c-3.4,5.1-5.7,10.3-0.1,15.6
		c1.7,1.6,0.9,3.1-1.1,4.4c-8.1,5-8.1,5-6.5,14.5c0.5,2.9-0.3,3.8-3.2,4c-4.7,0.3-9-1.4-12.9-3.4c-10-5-20.4-9-30.9-12.9
		c-6.4-2.4-9.4-6.4-10.2-13.2c-3.2-26.5-2.8-53.1-1.2-79.7c2.1-34.7,5.8-69.4,11.5-103.6c6-36.6,19.2-70.8,47-97.3
		c18.9-18,40.9-28,67.9-24.8c10.5,1.2,21.3,0.6,31.8,2.3c15.2,2.5,27.5,10.3,38.1,21.2c1.7,1.8,3.2,3.8,5.3,5.2
		c15.4,9.7,27,23.2,37.5,37.6c4.5,6.2,7.1,13.6,9.5,20.9c4.7,14.4,9.7,28.8,13.2,43.5c3.9,16,5.6,32.5,7.5,48.8
		c3,26.3,2.5,52.8,4.2,79.2c1.2,17.6,0.9,35.3,6,52.4c0.6,2.1,0.9,4.1-2.1,4.5c-13.3,1.8-26.3,5.7-40.1,2.5
		c-11.6-2.8-20.5-9.5-28.7-17.3c-3-2.9-3.7-7.3-3.8-11.6C266.6,344.9,267.6,338.1,265.6,330.5z"/>
</g>
</svg>
