<?xml version="1.0" encoding="utf-8"?>
<!-- Generator: Adobe Illustrator 24.3.0, SVG Export Plug-In . SVG Version: 6.00 Build 0)  -->
<svg version="1.1" id="shapes" xmlns="http://www.w3.org/2000/svg" xmlns:xlink="http://www.w3.org/1999/xlink" x="0px" y="0px"
	 width="400px" height="457px" viewBox="0 0 400 457" style="enable-background:new 0 0 400 457;" xml:space="preserve">
<style type="text/css">
	.st0{fill:#7CA4AE;}
</style>
<g>
	<path class="st0" d="M144.1,304c0,4.8,0,9.6,0,14.4c0,12.8-3.4,24.6-10.2,35.4c-2.8,4.5-6.6,8.4-11.5,10.8
		c-1.7,0.8-4.6,2.6-3.4-2.1c0.3-1.1-5.2-2.8-6.9-2.1c-2,0.9-3.8,2-5.8,2.9c-1.4,0.6-3,1.3-4.3,0.2c-1.6-1.4,0.3-2.7,0.6-4
		c0.3-0.9,0.6-1.8,1.2-3.5c-5.8,1.9-5.9-1.1-4.8-5.2c-2.8,0.5-5.2,1.1-7.7,1.3c-2.6,0.2-3.9-0.7-2.2-3.5c1.7-2.8,5.5-4.9,2.6-9.3
		c-0.6-0.9,2.7-2.3,2.6-4.6c-1.5-1.5-6.3,3.8-5.5-2.5c-0.8,0.2-1.6,0.4-2.3,0.7c-5.5,2.1-11.2,3.3-17.1,3.3c-1.8,0-3.6,0.1-5.4-1.6
		c7-2.4,13.1-5.5,18.2-10.4c3.6-3.4,5.5-7.4,6.3-12.1c0.9-5.7,1.4-11.5,2.3-17.3c0.5-3.1-0.2-5.9-1.2-8.7
		c-4.3-12.4-8.6-24.8-10.5-37.9c-1.1-7.5-0.5-14.7,1.8-22.1c2.9-9.3,6.8-17.8,13.4-25.2c9.6-10.8,13-24.4,16.3-38.1
		c2.5-10.6,5.1-21.3,11-30.8c3.2-5.2,8.2-8.7,12.3-12.9c12.5-12.6,26.1-23.4,43.5-29.1c16.1-5.3,30.2-2.7,42.9,7.9
		c4,3.3,8.2,5.3,13.4,6.1c10.1,1.6,18.5,6.6,24.7,14.8c5,6.7,10.7,12.7,16.7,18.5c7.8,7.5,12,16.6,12.7,27.4
		c0.5,8.7,3.7,16.5,7.8,24c3.3,6,6.5,12,9.8,18c4.8,8.9,6.3,18.5,5.5,28.5c-0.3,3.8-2.3,6.9-4,10.1c-6.4,12.6-12.9,25.2-15.5,39.3
		c-1.7,9.2,0.2,17.9,3.6,26.3c1.7,4.3,5.9,6.1,9.6,8.3c2,1.2,4.4,1.8,3.7,5c-0.7,3.4-3.3,3.3-5.8,3.4c-4.1,0.2-7.8,1.5-11.4,3.3
		c-6.3,3.1-13,4.4-19.9,3.2c-7.1-1.3-10.7-6.9-13.6-12.8c-1.3-2.5-1.8-5.3-2.6-8c-1.9-6.6-1.7-6.4-6.8-2.1
		c-8.8,7.6-17.8,15.2-28.6,19.9c-20.2,8.7-38.7,4.4-55.9-8.1C156.8,317.3,150.9,310.6,144.1,304z"/>
</g>
</svg>
