<?xml version="1.0" encoding="utf-8"?>
<!-- Generator: Adobe Illustrator 24.3.0, SVG Export Plug-In . SVG Version: 6.00 Build 0)  -->
<svg version="1.1" id="shapes" xmlns="http://www.w3.org/2000/svg" xmlns:xlink="http://www.w3.org/1999/xlink" x="0px" y="0px"
	 width="400px" height="457px" viewBox="0 0 400 457" style="enable-background:new 0 0 400 457;" xml:space="preserve">
<style type="text/css">
	.st0{fill:#7CA4AE;}
</style>
<g>
	<path class="st0" d="M183.7,446.2c-7.5-9.1-17.2-15.6-25.8-23.3c-22.2-19.8-33.7-45.7-42.3-73.4c-2.2-7-4-14-8-21.6
		c-2.6,7.1-2.1,13.3-1,19.3c1.3,7.2,3.4,14.2,5.1,21.4c0.3,1.4,1,3.2-0.6,4.1c-1.4,0.7-2.2-1.1-3.1-1.9c-5.5-5.2-9.5-11.6-13.1-18.1
		c-8.5-15.3-13.2-31.9-16.3-49c-3.7-20.5-2.5-40.5,5.6-59.7c4.5-10.7,4.4-22.1,6.3-33.2c2.6-15.4,1.9-31.2,4.1-46.7
		c3.7-26.8,8.7-53.3,22.6-77.1c7.3-12.4,17.8-21.4,29.8-28.8c8.6-5.3,17.4-10.4,26.9-14.2c14.2-5.8,28.5-5.3,43-1.1
		c4.3,1.3,8.5,1.6,13.2,1.2c13.1-1.1,26.2-1,38.2,6.2c9.3,5.6,15.6,14,21,22.9c2.7,4.4,1.6,10.1,0.8,15.2c-0.4,2.5-0.5,4.9,0.7,7.3
		c9.4,18.8,14.3,38.9,16.9,59.8c1,8.4,3.2,16.7,4.7,25c0.5,2.6,1.2,4.3,4.5,3.7c2.9-0.5,4.5,1.8,5.6,4.1c2.7,5.5,3.4,11.5,3.8,17.5
		c1.2,16.2,0.4,32.5-5.2,47.8c-4.2,11.5-7.1,23.2-10.1,35c-0.7,2.8-0.9,5.4,0.1,8.3c0.7,1.9,0.4,3.7-0.7,5.9
		c-1.6,3,0.3,6.8-0.2,10.5c-0.8,6.3,0.2,12.7,0.3,19.1c0,1.1-0.4,2.3-0.8,3.3c-0.4,1.1-0.3,3.2-2.2,2.5c-1.7-0.5-1-2.2-0.8-3.5
		c0.6-6.8-0.3-13.6,0.3-20.2c0.5-4.7-2.4-9.5,0.9-14c0.6-0.9,0.4-2.4-0.4-3.3c-2.8-3.3-2.4-6.6-1.3-10.7c1.4-5.2,2.7-10.5,4.3-15.7
		c0.8-2.7,0.3-4.7-3-5.5c-2.3-0.6-4.5-2.1-7.3-3.4c0,4.7-0.2,8.9-0.2,13.1c0,15.9-6.9,28.4-18.9,38c-15.8,12.5-32.6,23.5-50.8,32.4
		c-6.2,3-12.8,4.1-19.4,3.6c-26.3-1.9-47.3-14.2-64.2-34.1c-3.2-3.8-4.7-8.4-6.4-12.9c-0.7-1.8-0.9-5.2-3.8-4.3
		c-2.6,0.8-0.7,3.4-0.4,5.2c1.2,9.6,5.4,18.4,5.6,28.3c0.2,5.4-0.2,10.7-1,15.9c-1.3,8,0.5,15.2,3.6,22.3
		c8.4,19,19.5,36.3,30.5,53.8c3.2,5.1,5.6,10.6,8.4,15.9C183.9,441.2,184.5,443.4,183.7,446.2z"/>
</g>
</svg>
