<?xml version="1.0" encoding="utf-8"?>
<!-- Generator: Adobe Illustrator 24.3.0, SVG Export Plug-In . SVG Version: 6.00 Build 0)  -->
<svg version="1.1" id="shapes" xmlns="http://www.w3.org/2000/svg" xmlns:xlink="http://www.w3.org/1999/xlink" x="0px" y="0px"
	 width="400px" height="457px" viewBox="0 0 400 457" style="enable-background:new 0 0 400 457;" xml:space="preserve">
<style type="text/css">
	.st0{fill:#7CA4AE;}
</style>
<g>
	<path class="st0" d="M258.9,405.7c-4.2-6.7-8.2-12.8-9.5-19.8c-2.6-13.1-1.1-26.2,2.6-38.9c3.1-10.7,6-21.4,11.2-31.4
		c1.7-3.3,2-7,1.6-10.7c-0.3-2.5-1.8-4.3-4.1-5.3c-2.6-1.2-3.5,1.2-4.8,2.5c-3.8,3.6-5.4,8.4-5.9,13.4c-0.6,5.4-3.6,8.1-8.5,9.8
		c-15.3,5.4-31,7.4-47.2,5.7c-4.3-0.5-7.5-2.3-10.3-6.1c-3.7-5.2-8.5-9.6-14.6-12.6c-7.3-3.6-14.1-8.2-19.4-14.6
		c-2.3-2.7-3.8-3-4.9,0.7c-2,6.9-4.2,13.7-4,21c0.1,4-0.4,7.9-1,11.9c-1.7,11.7,2.1,22.3,6.4,32.8c3.5,8.5,5.8,17.3,3.6,26.7
		c-1.8,7.7,0.1,16.1-4.4,23.3c-0.4,0.6-0.5,1.2-0.9,1.8c-1.3,2.1-2.3,5.3-4.9,5c-2.5-0.3-1.4-3.7-1.8-5.6
		c-1.6-9.2-2.5-18.4-8.8-26.1c-2.7-3.2-4.7-3.3-7.1-0.2c-4,5.1-6.8,10.4-5.9,17.3c1,7.2,1.3,14.6-0.2,21.8c-0.2,1.1-0.3,2.7-1.7,2.8
		c-1.4,0.1-1.7-1.4-2-2.5c-2.2-6.8-5.1-13.4-9.9-18.9c-5.7-6.5-7.7-14-7.1-22.6c0.3-4.8,1.4-10.1-2.7-14.2c-1.4-1.3-2.2-3.7-4.7-3.1
		c-2.5,0.6-4,2.4-4.3,4.9c-1.5,9.4-6.7,17.3-10.2,25.9c-0.6,1.5-1.6,2.8-2.9,4c-1.2-5.5-1-10.7,1.7-15.6c6.8-12.4,5.7-25.2,2-38.1
		c-0.8-2.7-2.5-4.7-4.8-6.2C58,336.6,55,325.3,56.6,312c0.7-6.3,1-12.6-1.1-18.8c-1.2-3.7-0.8-7.6-0.1-11.4c0.7-4,0.7-8,0.4-11.9
		c-0.4-5.1-2.4-9.2-7.2-11.7c-4.1-2.2-8.2-4.5-11.9-7.3c-15.1-11.4-23.2-26.3-21.6-45.4c1.1-12.8,6.6-24.4,13.4-35.1
		c11.4-18.1,24.8-34.6,42-47.7c2.6-2,3.4-3.9,2.5-7.2c-5.7-19.5-0.6-36.5,12.1-52c16.5-20.2,37.5-32.7,62.6-39.5
		c17.6-4.8,35.3-7.7,53.2-3.2c11.9,3,22.2,9.1,28.1,20.6c3.5,6.6,6.8,13.3,10.6,19.8c1.7,2.9,3.8,4,7,3.3c11-2.5,22.2-1.7,33.3-1.9
		c21.9-0.5,41.7,7,60.2,17.4c11.3,6.4,15.5,18.7,18.3,31.3c4.2,18.6-3.4,34.4-10.9,50c-7.5,15.6-17.2,29.9-29.7,42.2
		c-4.5,4.4-4.9,10.9-5.3,16.8c-0.6,8.6-0.5,17.2,0.7,25.9c2.5,18,2.5,35.9-5.9,52.6c-4.8,9.5-3.1,18.7,0.2,28
		c2.2,6.1,4.5,12.1,6.5,18.3c3.7,11.3-0.6,22.1-10.7,28.2c-1.8,1.1-3.7,1.9-5.6,0.7c-2.3-1.4-0.6-3.3-0.1-4.9
		c0.9-2.9,1.7-5.7,1.3-8.8c-0.2-1.9-1.2-3-2.9-3.7c-1.8-0.7-3.2-0.2-4.4,1.2c-4.1,4.7-6.7,10.2-5.5,16.4c2.6,13.1-0.1,25.4-3.8,37.8
		c-0.3,1.1-0.8,2.2-1.3,3.2c-1.2,2.4-2.6,5.8-5.5,4.7c-2.4-0.9-0.6-4.2,0-6.2c1.8-7,2-13.7-1-20.5c-1.9-4.2-1.6-8.8-1.5-13.3
		c0.1-5-1.4-9.5-3.7-13.8c-1.8-3.5-4.2-4-7-1.1c-5,5.1-5.4,11.6-4.6,18.2c0.6,5.1,1.6,10.2,2.3,15.3
		C260.2,400.6,260.5,402.6,258.9,405.7z"/>
</g>
</svg>
