<?xml version="1.0" encoding="utf-8"?>
<!-- Generator: Adobe Illustrator 24.3.0, SVG Export Plug-In . SVG Version: 6.00 Build 0)  -->
<svg version="1.1" id="shapes" xmlns="http://www.w3.org/2000/svg" xmlns:xlink="http://www.w3.org/1999/xlink" x="0px" y="0px"
	 width="400px" height="457px" viewBox="0 0 400 457" style="enable-background:new 0 0 400 457;" xml:space="preserve">
<style type="text/css">
	.st0{fill:#7CA4AE;}
</style>
<g>
	<path class="st0" d="M143.5,292.5c-1.1,3.6-0.1,6.1,0.6,8.4c4,12.6,3.9,25.2,0.5,37.9c-0.6,2.4-1.6,4.8-2.9,6.9
		c-2.9,4.9-3,10.1-0.2,14.8c4.2,7.3,0.4,18.1-6,22c-3.2,1.9-4.4,4.3-4,7.8c1.3,11.2-2.9,20.4-10.3,28.5c-2.8,3.1-4.5,6.8-4.3,11.4
		c0.3,6.9-2.2,12.3-9.1,15c-2.1,0.9-3.9,2.5-6,3.5c-8.9,4.4-10.8,4.2-17.9-2.7c-4.7-4.5-9.7-5.9-15.9-3.7c-4.6,1.7-9.3,2.6-14.2,1.7
		c-4.3-0.7-7.8-2.1-9.7-6.7c-1.8-4.3-6-4.9-10.1-5c-3.3-0.1-6.6,0.4-9.9,0.1c-6.1-0.4-9.8-3.9-10.6-9.8c-0.7-5-0.2-9.9,1.8-14.6
		c3.5-8.2,5.4-16.2,2.9-25.6c-2.2-8.3-3.2-16.7-7.6-24.5c-3.5-6.2-1.1-13.2,1-19.8c3-9.2,4.2-18.7,1.2-28.4c-1.3-4-4.4-6.6-6.3-10.1
		c-5.8-11.1-3-21.9-0.5-33.1c1.8-7.9,7.2-13,12.4-18.3c4.7-4.8,5.2-9.8,3.4-15.5c-3-9.5-2.8-19.1-1.7-28.7
		c1.3-11.2,7.5-20.1,15-28.1c2.1-2.2,4.4-4.1,6.3-6.4c3.4-4,5.8-8.5,4.4-14.1c-0.2-0.8-0.1-1.7-0.3-2.5
		c-1.7-11.8,2.1-20.2,12.9-26.5c10.7-6.3,19.8-15.2,26.8-25.7c3.1-4.7,7.8-6.6,12.2-9.1c8-4.6,12-11.2,11.8-20.4
		c-0.1-5.2,2.2-9,6.7-11.4c5.4-2.9,10.9-5.6,17.2-6.3c7.6-0.9,13.9-4,17.5-11.4c2-4.1,5.7-6.7,10.1-8.4c7.4-2.8,14.3-5.9,20.1-12.1
		c9.3-9.9,21.1-10.3,32.5-3c3.9,2.5,7.8,5.1,11.7,7.7c2.6,1.7,5,1.5,7.9,0.2c11.5-5.3,23.5-6.5,35.9-3.2c8.5,2.3,13.2,9.2,18.7,15.1
		c2.2,2.3,4.4,4.4,7.4,5.6c4.7,1.8,7.3,5.7,9,10.2c1.1,3.2,3.1,4.9,6.3,5.6c11.4,2.6,18.6,9.7,22.1,20.8c0.6,1.9,1.3,3.8,2.4,5.5
		c11.3,17.9,15.8,38,19.4,58.4c0.9,4.9,2.8,8.8,7.3,11.8c6.8,4.5,11,10.7,11.2,19.5c0.1,4.2-1.9,7.3-3.3,10.8
		c-0.3,0.8-1.1,1.3-2,1.1c-1.3-0.2-1.5-1.2-1.5-2.2c-0.1-1.7,0-3.3,0-5c0.1-6.8-1.6-9.1-7.7-11.8c-3.2-1.4-4.7-0.9-4.8,2.8
		c-0.1,5.4,0.6,10.6,2.5,15.7c4.1,10.9,11.5,19.4,19.4,27.6c5.7,5.9,10.5,12.3,14.5,19.5c4.2,7.5,3.2,14.7,0.9,22.1
		c-1.5,4.6-3.3,9.1-5.2,13.5c-1,2.4-1,4.5,0.6,6.5c0.4,0.5,0.7,1.2,1.1,1.7c8.5,10,9.7,21.6,7,33.9c-1.2,5.4-0.2,10.6,0.6,15.8
		c2.8,17.5,4.2,35-0.2,52.6c-0.9,3.4-1.9,6.7-4.2,9.5c-3.5,4.3-5.8,9.2-7.5,14.5c-1.5,4.7-2.4,8.9-0.6,14c2.2,6.1-2.6,11.9-9.3,12.1
		c-3.1,0.1-5.7,1.1-7.4,3.4c-4.1,5.6-10,7.1-16.2,7.3c-7.2,0.3-13.1,2.3-19.1,6.9c-9,6.8-19.2,4.2-28.8,0.1c-2-0.8-3.7-2.2-5.7-3.1
		c-2.9-1.3-6.2-1.5-8.4,0.9c-3.1,3.4-7,3.5-10.9,3.8c-5,0.4-9.9-0.9-11.7-5.8c-1.8-4.6-1.9-10.1,1.9-14.1c7.7-8.1,7.2-20.4,2.3-28.2
		c-2.6-4-5.5-8-4.9-13.3c0.2-2.5,0.7-4.6,3.2-5.6c2.6-1.1,3.9-3.5,5.5-5.6c2-2.5,2.1-4.7,0.1-7.2c-2.7-3.3-2.9-6.7-1.1-10.7
		c2.7-5.9,2.8-10.9-1.5-17c-5.8-8.3-3.1-18,0.2-26.8c1-2.8,1.7-5.2,1.1-8.1c-1.6-8.6-0.6-17,3.4-24.8c1.6-3,2.3-6.2,2.6-9.6
		c0.2-1.7-0.6-3.1-2.1-3.7c-1.7-0.7-2.1,1.2-2.7,2.3c-2.6,4.1-5,8.3-7.5,12.4c-10,16.6-22.3,31.1-39.4,40.8
		c-12.7,7.1-25.7,8.8-39.5,2.3C169.5,319.1,154.9,308.5,143.5,292.5z"/>
</g>
</svg>
