<?xml version="1.0" encoding="utf-8"?>
<!-- Generator: Adobe Illustrator 24.3.0, SVG Export Plug-In . SVG Version: 6.00 Build 0)  -->
<svg version="1.1" id="shapes" xmlns="http://www.w3.org/2000/svg" xmlns:xlink="http://www.w3.org/1999/xlink" x="0px" y="0px"
	 width="400px" height="457px" viewBox="0 0 400 457" style="enable-background:new 0 0 400 457;" xml:space="preserve">
<style type="text/css">
	.st0{fill:#7CA4AE;}
</style>
<g>
	<path class="st0" d="M210.6,366.5c-9.4-0.8-18.9-1.6-28.3-2.4c-3.3-0.3-5.9-1.7-8.4-4c-18.6-17.5-31.5-38.9-42.3-61.8
		c-2.5-5.4-2.9-11.3-3.6-17c-0.7-5.8-5.8-7.4-9.1-10.5c-1.7-1.6-3.3,0.8-4,2.9c-2.3,7.3-3.3,7.3-10.2,4.8
		c-7.6-2.7-9.9-8.3-10.2-15.4c-0.2-4.1-0.5-7.9-4-10.8c-1.7-1.4-2-3.8-1.9-6c0.2-5.3-0.6-10.6,0.3-16c0.5-2.9-0.5-5.6-1.8-8.2
		c-3.1-6.1-3.4-12.4-2.2-19c1.2-6.1,0.5-12.3,0.3-18.4c-0.1-3.4-2.7-5.1-5.4-6.6c-6.3-3.4-7.3-5.4-5.4-9.8c3.1-7,6.7-8.7,13.3-6.4
		c1.8,0.6,3.8,2.4,5.2-0.3c1.1-2.2,0.2-4.1-1.6-5.8c-5.9-5.7-3.5-16.6,4.3-19.2c9.3-3.1,14.5-9.4,16.1-19c1-6,2.9-11,9.2-13.7
		c4.1-1.7,4.1-4.5,0.9-7.8c-2.3-2.3-4.3-4.7-3.5-8.3c0.3-1.2,0.8-2.2,2.2-2.5c1.5-0.3,2,0.8,2.4,1.9c0.5,1.2,0.8,2.6,1.5,3.7
		c2.8,4.2,8.9,3.7,10.6-1.2c2.3-6.8,6.4-11.5,13-14.2c1-0.4,2.1-1.3,2.6-2.3c3.6-8.3,11.2-8.9,18.4-9.4c6.7-0.5,13.2-0.5,17.4-7.2
		c1.9-3,5.5-3.2,9.1-2.5c5.9,1.2,11.5,3.4,16.5,6.8c6.3,4.2,12.7,3.7,19,0.9c6.7-3.1,13.2-2.6,19.1,1c4.8,2.9,9.7,4.1,14.9,4.9
		c7.1,1,9.6,4.3,9.4,11.6c0,0.2,0,0.3,0,0.5c-0.3,10.6,0.5,11.2,10.9,9.4c3.3-0.6,7.1-1,9.1,2.2c1.8,3.1,2.7,6.7,0.1,10.3
		c-2.2,3.1-0.8,5.4,2.8,5.2c8.2-0.4,13.4,2.8,15.4,10.9c0.1,0.3,0.2,0.7,0.5,0.9c6.2,4.3,6.7,10,4.3,16.7c-0.9,2.4,0,4.7,3.1,5.2
		c7.8,1.2,14.3,4.8,20.2,9.9c5.2,4.4,5.6,7.9,0.8,12.9c-1.9,1.9-4,3.7-2.9,6.8c0.5,1.5,0.6,3.6,2.8,3.6c1.9,0,2.9-1.4,3.5-3.1
		c0.6-1.6,0.8-3.2,0.4-4.9c-0.2-1.2-0.4-2.5,1.2-2.9c1.3-0.3,2.1,0.7,2.8,1.7c0.8,1.3,1,2.8,1,4.3c0,3.5-0.1,7,0.8,10.4
		c0.5,1.8,0.5,3.8-0.5,5.4c-2.9,4.6-5,9-3.6,14.9c0.7,3-2.6,4.5-5.1,5.3c-4.3,1.4-4.7,3.9-3.9,8.1c2.5,13.1,2,25.8-5.9,37.4
		c-4.2,6.2-8.9,11.6-17.4,11.4c-3-0.1-2.6,2.6-2.2,4.5c0.7,3.3,0.6,6.5,0.2,9.9c-0.8,6.9-4.2,11.8-10.5,14.7
		c-2.4,1.1-4.8,2.6-3.5,5.6c1.3,3.1,4.1,3.7,7.1,2.8c0.3-0.1,0.6-0.2,1-0.3c2.1-0.3,4.8-3,6,0.4c1.1,3.1-2,4.6-4.4,5.8
		c-6.6,3.2-18.2-0.4-22.9-7.5c-2.4-3.5-3.3-2.6-4.7,0.4c-7.1,14.2-16.2,27.1-25.6,39.9c-3.1,4.3-7.6,6.9-11.9,9.8
		c-2.2,1.5-4.3,3.1-5.9,5.3C230.9,361.9,222.7,368,210.6,366.5z"/>
</g>
</svg>
