<?xml version="1.0" encoding="utf-8"?>
<!-- Generator: Adobe Illustrator 24.3.0, SVG Export Plug-In . SVG Version: 6.00 Build 0)  -->
<svg version="1.1" id="shapes" xmlns="http://www.w3.org/2000/svg" xmlns:xlink="http://www.w3.org/1999/xlink" x="0px" y="0px"
	 width="400px" height="457px" viewBox="0 0 400 457" style="enable-background:new 0 0 400 457;" xml:space="preserve">
<style type="text/css">
	.st0{fill:#7CA4AE;}
</style>
<g>
	<path class="st0" d="M190.3,9.8c9.3,0.6,20.1,0.7,29,7.9c1.7,1.3,3.4,0.7,5.3,0.4c5.7-1.1,11.3-2.9,17.2-0.5c2.5,1,5.3-0.4,7.8-1
		c8.9-2.2,13.6-0.6,18.9,7c2.3,3.4,4.4,5.5,9.2,4.9c5.7-0.7,10.4,6,9.1,11.7c-1.5,6.7,1.2,14.6,6.9,18.1c4.8,2.9,7.6,6.3,5.8,12.2
		c-0.6,1.9-0.4,4,0.8,5.8c2.1,3.1,2.5,6.1,0.3,9.3c-0.4,0.6-0.8,2-0.5,2.3c4.3,4.3,3.3,10.7,6.3,15.6c3.7,5.9,3,9.1-2.1,13.9
		c-2.6,2.4-4.2,6-8.4,6.6c-1.9,0.3-1.9,2.5-1.6,4.2c0.5,2.7,0.4,5.6-1.6,7.6c-2.8,2.9-2.2,5.7-0.5,8.6c4.2,6.9,4.8,13.9,4.6,22.2
		c-0.4,19.2-5.4,37.9-4.8,56.9c0.2,7.4,0.9,14.8,0.9,22.3c0,11.6,1.7,23.2-2.1,34.6c-1.3,3.8,0,5.9,3.6,8.4
		c7.4,4.9,15.2,18.2,13.2,29.3c-1.1,5.9-2.9,11.4-5.8,16.2c-5.5,9.1-19,10.6-27.1,4.1c-3.1-2.5-6.8-4.4-8.4-8.9
		c-0.9-2.6-2.6,0.4-3.1,1.5c-4.2,8-10.2,14.4-16.9,20.2c-5,4.4-10.2,8.6-15.2,13c-10.3,8.9-22.5,8.2-35,8
		c-15.3-0.2-26.3-8.6-37.2-17.4c-9.6-7.8-17.9-16.9-25.2-27c-2.9-4-4.5-3.9-6.3,0.8c-3.4,8.8-16.4,11.7-23.6,5.9
		c-6.7-5.4-11.1-12.8-10.8-21.5c0.1-5.6,0.5-11.4,2.5-17.1c1.8-5.2,4.8-9,8.6-12.4c1.9-1.7,2.5-3.2,1.6-5.6
		c-3.7-10.2-4.1-20.4-0.5-30.8c1.4-4,1.9-8.6,1.7-12.8c-0.2-7.7,4.8-13.7,5.9-20.9c1.3-8.1,1.7-16.2,2.4-24.3
		c0.1-1.1,0.1-2.6-0.5-3.3c-4.2-4.9-3.6-11.3-5.7-16.9c-1.6-4.3,0.9-9.2,1.8-13.5c1.2-6.2,1.8-13.6,6.3-18.1
		c6-5.9,8.7-13.6,14.1-19.7c1.9-2.1,2.3-3.7,0.9-6.5c-1.9-3.7-3.5-7.3-6.6-10.3c-0.8-0.8-1.5-2-1.6-3.1c-0.6-8.9-2.5-18.1-1-26.7
		c1.1-6.3,2.9-13,5.2-18.9c2.4-6.4,6.3-13.2,11.1-18.6c3.7-4.2,8-7.8,10.2-13.2c1-2.6,3.4-4,6-4.9C166.4,11.4,177.6,9.8,190.3,9.8z
		 M275.3,291c-1.8,8.8-2.3,16.7-5.2,23.6c-3.6,8.6,3.3,13.2,6.3,18.3c3.9,6.7,17.8,3.5,21.1-3.9c3.1-7,4.7-14,2.9-22
		c-1-4.5-3.8-7-5.8-10.4c-2.3-4.2-4.9-4.2-8.6-2.6C282.4,295.6,278.7,296.7,275.3,291z M126.6,311.8c0-8.2-2.5-16.5-6.1-23
		c-0.7-1.3-1.7-1.2-2.9-1.1c-1.5,0.1-3,0.2-4.5,0.1c-4.1-0.4-9.7,2.5-10.7,6.3c-2.9,11.1-5.2,22,2.5,32.5c5,6.9,13.2,4.9,16.9,0
		C125.6,321.5,127.3,315.8,126.6,311.8z"/>
</g>
</svg>
