<?xml version="1.0" encoding="utf-8"?>
<!-- Generator: Adobe Illustrator 24.3.0, SVG Export Plug-In . SVG Version: 6.00 Build 0)  -->
<svg version="1.1" id="shapes" xmlns="http://www.w3.org/2000/svg" xmlns:xlink="http://www.w3.org/1999/xlink" x="0px" y="0px"
	 width="400px" height="457px" viewBox="0 0 400 457" style="enable-background:new 0 0 400 457;" xml:space="preserve">
<style type="text/css">
	.st0{fill:#7CA4AE;}
</style>
<g>
	<path class="st0" d="M206.3,374.4c-14.9-0.2-28.8-3.1-40.6-13.5c-8.7-7.7-17.2-15.7-26.4-22.9c-4.5-3.5-7-8.8-9.8-13.7
		c-6.7-12.1-9.8-25.4-13.6-38.5c-0.8-2.8-1.3-5.7-4.3-7.5c-2-1.2-1.9-3.7-1.8-5.9c0.3-5.6,0.7-11.3,0.8-17c0.1-5.2-2-10.1-2.9-15
		c-2.5-14.8-12-27-14.6-41.6c-0.7-4-1.2-7.3,3.7-9.4c3.5-1.5,2.5-5.7,2.6-9c0.3-13.1-0.5-26.3,1.1-39.4c0.4-3.5,0.9-6.9,1.4-10.4
		c1.1-7.2,3.6-13.8,8.4-19.4c9.6-11,19.2-22.1,30.4-31.6c13.3-11.2,28.8-17,46.1-18.5c14.2-1.2,28.3,0.3,42.2,3
		c5.4,1.1,9.8,4.9,14.7,7.4c12.5,6.4,24.2,14.2,33.1,25.2c5,6.2,8.1,13.8,11.4,21c6.5,14.5,9.1,30.2,12.8,45.6
		c0.5,2.1,1.1,4.2,1.7,6.2c0.4,1.3,1.2,1.6,2.6,1.5c5.6-0.5,8.4,2.1,8.7,8.3c0.4,8.9-1.9,17.5-3.8,26.1c-2.4,11.1-4.9,22.1-7.9,33
		c-1.2,4.3-0.9,8.7,1.9,12.9c4.5,6.8,3.3,12.2-3.3,17.7c-1.6,1.4-1.9,3-2.1,4.8c-1.6,14.6-5.8,28.3-14.2,40.5
		c-2.4,3.5-5,6.7-7.9,9.7c-8.8,9.2-14.7,20.6-23.5,29.7c-7.8,8.1-16.9,14.1-27.6,17.3C219.6,372.9,213.1,374.7,206.3,374.4z"/>
</g>
</svg>
