<svg id="shapes" xmlns="http://www.w3.org/2000/svg" viewBox="0 0 400 457"><defs><style>.cls-1{fill:#7ca4ae;}</style></defs><path class="cls-1" d="M283.12,179.12c-.53,5.42,1.18,9,2.21,12.6,3.35,11.95,6.76,23.88,10.41,35.74,1.29,4.18-.64,7.45-1.94,11-2.85,7.76-5,15.63-4.25,24a10.37,10.37,0,0,1-3.92,9.28c-4.42,3.69-6.13,8.46-6.45,14-.76,13-7.79,21.71-20.42,25.28-2.25.63-4.17,1.44-4.9,3.7-1.17,3.58-4.14,5.46-6.67,7.85-7.3,6.9-16.59,11.48-22.75,19.68a7,7,0,0,1-2.62,2.28c-9,3.73-17.29,9.2-26.71,11.54-6.85,1.7-14.26,1.6-20.91-1.67-7.56-3.71-15.64-6.33-22.6-11.34-3.21-2.31-6.55.6-6,5.66.49,4.88,1,10,5.34,13.52,4,3.24,5.46,7.8,6.22,12.68.21,1.3.17,3.14,1,3.77,6.19,4.79,6.13,12.29,8.53,18.72.85,2.26,1.34,4.28.12,6.67a16.8,16.8,0,0,0-.4,14.07c4,10.31,3,20.58.2,30.89-.46,1.68-.67,3.94-3.18,3.77a4.68,4.68,0,0,1-4.26-3.66c-2.75-8.87-6.44-18.1-5.72-27,.78-9.72-3.32-18.47-2.51-27.85.21-2.47-1.13-4.43-2.32-6.46-2.66-4.56-6.21-8.73-6.14-14.5a4.11,4.11,0,0,0-1.36-3.11c-5.09-3.18-6.38-9.2-10.29-13.3-4.71-4.94-5.79-11.88-8.41-18-.89-2.08-1.48-3.95-3.8-4.78-2.82-1-3.86-3.48-4.71-6.07-.52-1.58-2.22-3.32-3-1.57-2.28,5-7.29,7.32-10.52,11.48-4.94,6.37-7.26,14.65-14.09,19.6-2.56,1.85-2.25,4.79-1.75,7.38,2.05,10.47-3.69,18.59-8.15,27-1.17,2.2-2.56,4.21-3.16,6.67-2.2,9-5,17.74-1.66,27.33,1.36,3.92-1.58,8.12-5.75,10-6.27,2.9-13.19,3.38-19.91,4.23-4.37.55-6.22-3.06-3.93-7a29.23,29.23,0,0,1,7.78-8.38c6.54-5,7.41-12.83,7.33-19.25-.13-10.6,4-19.16,8.91-27.51,3-5.18,4.53-9.62,2.25-15.36s-.65-10.43,2.55-15.86C74.83,340,81.66,335.38,85,328c.81-1.8,2.92-3.22,4.74-4.3,4.37-2.62,5.82-6.54,6-11.33.16-4.64,0-9.44,4.21-12.8a2.75,2.75,0,0,0,.81-2.24c-1.23-5.68,1.28-10.84,2.24-16.19,1-5.75,2.24-11.18-.8-16.9a13.73,13.73,0,0,1-.62-10.25c.95-3.24-.75-6.24-2-9.12-2.63-6.33-2.34-12.05,3-16.87,2.21-2,2.35-4.15,1.23-6.74-.86-2-1.37-4.11-2.16-6.12-1.38-3.52-.41-6.28,2.78-8.09,3.5-2,5-4.57,3.93-8.64a4.37,4.37,0,0,1,.52-3.37c4.29-5.54,3.77-12.57,6-18.74a17,17,0,0,1,2.49-4.27c3.87-5.41,8.17-10.66,7.73-17.93a.79.79,0,0,1,.09-.49c4.79-6.35,7.1-14.56,14.12-19.19,2.41-1.59,4.76-3,5.87-5.83,1-2.65,3.37-3.76,5.64-5.27,6-4,12.34-4.28,19.09-2.91a21.77,21.77,0,0,0,10.37-.65c16.12-4.62,32-4.87,48,1.32,11.78,4.56,24.05,7.88,36.31,11.07,13.4,3.49,20.31,14.28,27.51,24.75,6.42,9.32,7.8,21.15,15.16,30,1.48,1.78,1.62,4.67,2.43,7,1.74,5,3.61,9.68,8.48,13.05,4.59,3.17,5.59,8.8,5.92,14.29a68.07,68.07,0,0,0,8.51,28.95,33.21,33.21,0,0,1,4,21.19,31,31,0,0,0,.09,11.4,18.49,18.49,0,0,1-1.07,12.2c-4.49,9.69-6,19.7-2.74,30.12,1.7,5.42-1.08,10.73-.3,16.31.45,3.16-4,3-5.75,1.33-4.32-4-9.17-7.86-10.84-13.88-1.2-4.31-1.65-8.78-4-12.79-1.34-2.34-1.2-5.18-.95-7.85,1.14-12.14-.06-24.21-1.34-36.25-.31-2.94-1.48-5.79-2.32-8.66-.46-1.59-1.56-3.17-1.5-4.72.42-11-3.62-21.15-5.07-31.77-1.06-7.74-5.35-14.27-7.39-21.66C291.07,196.63,285.81,189.12,283.12,179.12Z"/></svg>