<?xml version="1.0" encoding="utf-8"?>
<!-- Generator: Adobe Illustrator 24.3.0, SVG Export Plug-In . SVG Version: 6.00 Build 0)  -->
<svg version="1.1" id="shapes" xmlns="http://www.w3.org/2000/svg" xmlns:xlink="http://www.w3.org/1999/xlink" x="0px" y="0px"
	 width="400px" height="457px" viewBox="0 0 400 457" style="enable-background:new 0 0 400 457;" xml:space="preserve">
<style type="text/css">
	.st0{fill:#7CA4AE;}
</style>
<g>
	<path class="st0" d="M373.3,205.5c1,21.6-8.5,39.3-21.4,55.2c-19.3,23.6-42.2,43.4-68.3,59.5c-7.5,4.6-15.5,6.7-24.1,6.9
		c-3.8,0.1-6.1,1.3-8.2,4.4c-4.8,7-10.1,13.5-15.8,19.9c-13.1,14.5-48.3,14.6-60.8-0.1c-8.8-10.3-21.2-16.6-31.1-25.8
		c-2.9-2.7-7.3-2-11-2.7c-12.6-2.4-23.7-8.2-34-15.1c-12.8-8.7-25.3-18-36.2-29c-11-11.1-21.6-22.7-29.4-36.5
		c-5-8.9-4.9-18.6-3.6-28.2c2.2-16.4,5.9-32.5,14.1-47.1c4.1-7.2,8.7-14.1,15.8-19c5.2-3.6,10.6-3.6,16.2-1.4
		c5.3,2.1,10.4,4.6,14.7,8.3c6.3,5.3,13.1,9.7,20.1,14c2.7,1.7,3.9,1,4.2-1.9c3.2-25.7,13.4-49.5,21.4-73.8
		c3.9-11.8,10.1-22.7,17.7-32.3c6.3-8,16.3-10.1,26.1-10.5c9.6-0.4,19.3-0.4,29,0c14,0.6,24.7,8.5,34.8,17.1
		c11.8,10.1,19.3,23,23.8,38c4,13.4,8.1,26.8,8.9,40.9c0.2,3.6,1.6,4.7,5.1,2.9c5.2-2.7,10.8-4.6,15.7-7.6
		c18.7-11.2,39.7-3.5,53.1,9.1C365.9,165.3,372.1,184.4,373.3,205.5z"/>
</g>
</svg>
