<svg id="shapes" xmlns="http://www.w3.org/2000/svg" viewBox="0 0 400 457"><defs><style>.cls-1{fill:#7ca4ae;}</style></defs><path class="cls-1" d="M213.15,53.85C237.46,52.44,256,62.52,272.66,77c21,18.32,29.78,42.62,33.63,69.36,1.69,11.74,1.41,23.59,2.78,35.34.38,3.2.68,5.24,4.68,3.64,3.3-1.32,5.5.44,6.59,3.51,2.36,6.61,4.11,13.24,3.06,20.47-1.71,11.87-2.41,24.09-7.78,34.94-4.12,8.34-9.14,16.45-15.91,23.11-1.42,1.41-2.42,2.82-2.37,4.71.71,24.89-13.39,42.54-29.18,59.23a250.75,250.75,0,0,1-21.33,20.25c-13.72,11.45-29,13.79-45.9,11.25-9.8-1.47-18.58-4.82-26.19-11.34-14.17-12.14-27.7-25-40.82-38.23-7.6-7.67-9.3-17.78-10-28.09-.19-2.82-.37-5.65-.56-8.47-.32-4.8-.2-9.65-6.31-11.56-1.48-.46-2.74-3-3.27-4.82-2.14-7.34-6.36-13.54-10.35-19.87-1.55-2.46-3-5-3-7.85.35-13.12-4.13-26-1.81-39.24,1.19-6.79,2.86-8.64,9.66-7.82,2,.24,3-.13,2.4-2.28-2.57-8.53-.42-16.88,1-25.2a207.21,207.21,0,0,1,16.16-51.88,85.54,85.54,0,0,1,36.09-39C179.56,58.45,196,52,213.15,53.85Z"/></svg>