<svg id="shapes" xmlns="http://www.w3.org/2000/svg" viewBox="0 0 400 457"><defs><style>.cls-1{fill:#7ca4ae;}</style></defs><path class="cls-1" d="M119.79,331.16c2.56,1.43,4.59.58,6.55.76,4.23.38,5.42,2.95,3,6.46-3.79,5.62-9.34,7.29-15.68,6.65-7.53-.75-14.76-2.64-22.67-1.28-5.62,1-10.84-3.47-15.36-7.27-1.57-1.32-2.73-3.82-5.38-2.52-2.46,1.21-2.1,3.49-1.66,5.69.36,1.75.31,3.58-1.74,4.07-2.2.53-2.69-1.43-3.25-3-.33-.92-.53-1.88-.84-3-1.79,1.53-1.18,3.06-.67,4.65.43,1.33,1.55,3-.69,3.73a3.15,3.15,0,0,1-4-2.14,20.88,20.88,0,0,1-.73-12.25c.39-1.81,1.74-3.07-2-4.61s-2.53-7.6-1.77-11.78c.53-2.92,1.76-5.71,2.61-8.58.42-1.42.94-2.89.28-4.38-.52-1.17-.57-2.95-2.11-3.09s-1.91,1.54-2.34,2.78c-.5,1.47-.38,3.92-2.7,3.31-2-.54-2-2.86-1.85-4.71.54-7.87.28-8-7.56-5.24-2.47.89-4.15,2.6-5.87,4.46-3,3.2-5.44,2.78-7.32-1.06A23,23,0,0,1,24,284.23c.95-5.05,3.73-8.89,9.12-10.12,3.4-.78,6.82-1.51,10.27-2.05,3.27-.51,4.06-2.18,2.36-4.81a115.4,115.4,0,0,0-7.21-10.18c-5.09-6.23-4.91-12.85-1.61-19.59,3.82-7.79,3-12.23-4.32-16.83-6.16-3.87-9.89-8.79-8.95-16.39.08-.66-.1-1.54.26-1.94,7.68-8.51,5.32-20.48,10.52-30,4-7.31,8.57-13,16.87-14.86a6,6,0,0,0,4.38-3.65c1.68-3.53,2.45-7.37,6-10.09,2.41-1.85-.29-3.06-2-3.57-2.72-.82-5.56-1.33-7.41-3.76-.9-1.17-2-2.52-.72-4,1.11-1.25,2.46-.54,3.65.11.73.4,1.38.95,2.13,1.29,6.33,2.93,8,2,9.36-4.79a65.93,65.93,0,0,1,7.83-20.4c2.31-4,4.67-7.8,5.94-12.45S86.28,88.89,91.05,88c6.29-1.19,12.14-2.67,17-7.41,2.86-2.76,7.51-2.39,11.43-3,3.47-.54,6.48-1.48,8-5,.92-2.08,2.83-2.76,4.91-2.89,6.86-.44,12.73-2.25,15.18-9.67.75-2.25,3-2.39,5.07-2.42,11.64-.16,22.73-3.2,33.72-6.57s19.33-.8,25.5,8.75c1.84,2.84,4.46,3.84,7.15,5.46,9.45,5.72,19.64,5.15,29.94,5.44A17.83,17.83,0,0,1,264.63,80c.83,1.43,1.49,3.06,3.12,3.79,9.61,4.3,16,12.3,22.87,19.75a71.23,71.23,0,0,0,15.73,13c5.13,3.09,6.32,7.61,3.18,12.72a16.41,16.41,0,0,0-2.24,11.45c1,6.94,3.18,9.13,10,10.19a48.24,48.24,0,0,1,10.22,2.26c1.24.48,3.08.67,3.59,1.58,4.5,8.11,14.17,12,17.2,21.29a38.6,38.6,0,0,1-.6,26.34c-2.59,7-5.54,13.48-11.23,18.53a12.4,12.4,0,0,0-3.59,6.45c-1,3.85-.09,6.47,3.95,7.74a15.55,15.55,0,0,1,4.48,2.14c3.72,2.7,3.27,6.6-.86,8.55a8.63,8.63,0,0,1-1.87.7c-8.09,1.62-11.9,8.31-16.54,14a3.62,3.62,0,0,0-.74,2.78c2,7.36-2.84,10.56-8,13.69-4.42,2.68-5.78,6.43-4.36,11,.76,2.46,1.95,3.41,4.36,2,3.68-2.19,4.31-.27,4.18,3-.21,5-3.52,7.68-7.35,9.94q-14.4,8.49-28.84,16.89c-2.26,1.31-4.21,2.72-4.09,5.71.15,3.61-2.22,4.93-5.26,5.49-5.73,1.05-10.84-.75-15.77-3.46-3.63-2-7.08-5.52-11.1-5.28s-5.57,5.3-8.23,8.15c-6.34,6.81-14.23,9.52-23.16,10.09-.83.05-1.68-.07-2.5,0-20.53,2.78-37.15-6-53.1-17.37-8.45-6-14.52-14.08-21-21.89-1.06-1.28-1.77-3.76-4.09-2.88s-4.32,2.52-4.68,5.37a20.25,20.25,0,0,0,.63,7.89c1.37,5.24.68,9.7-4.3,13.14C122.65,326.06,121.53,328.77,119.79,331.16Z"/></svg>