<svg class="pause-icon" height="calc(100% - 0.5rem)" viewBox="0 0 24 24" fill="none" xmlns="http://www.w3.org/2000/svg" style="position: absolute; right: 0.5rem; top: 0.25rem">
<path class="st0" d="M12,0.2C5.6,0.2,0.3,5.4,0.3,11.9c0,6.4,5.2,11.7,11.7,11.7c6.4,0,11.7-5.2,11.7-11.7C23.7,5.4,18.4,0.2,12,0.2
	z M11.3,17.6c0,0.4-0.3,0.7-0.7,0.7H7.7C7.3,18.3,7,18,7,17.6V6.1c0-0.4,0.3-0.7,0.7-0.7h2.9c0.4,0,0.7,0.3,0.7,0.7V17.6z M17,17.6
	c0,0.4-0.3,0.7-0.7,0.7h-2.9c-0.4,0-0.7-0.3-0.7-0.7V6.1c0-0.4,0.3-0.7,0.7-0.7h2.9c0.4,0,0.7,0.3,0.7,0.7V17.6z"/>
</svg>
