<svg id="shapes" xmlns="http://www.w3.org/2000/svg" viewBox="0 0 400 457"><defs><style>.cls-1{fill:#7ca4ae;}</style></defs><path class="cls-1" d="M193.64,26c11.54-.84,23,2.85,34.83,6,18.4,5,32.52,16.17,46.38,28.27C282.48,67,291,72.7,296.34,81.64a5.32,5.32,0,0,0,2.78,2c15.51,5,21.77,17.93,26.34,31.73,5.47,16.54,7.32,33.87,8.19,51.15.44,8.71-1.28,17.56-2.29,26.31-.47,4.11-.45,7.2,4.85,7.74a7.28,7.28,0,0,1,6.75,5.8c.68,2.86,2.46,3.26,5.26,3,9-.9,13.17,2.87,13,11.83-.25,10.73-3.47,20.95-5.93,31.3a2.6,2.6,0,0,1-.67,1.32c-7.63,6.95-8.67,17.29-13.24,25.81-5.08,9.47-18.51,16.66-29.27,14.94a82.07,82.07,0,0,1-14.49-3.76c-2.71-1-4.51-.32-5.59,2.37a24.58,24.58,0,0,1-1.15,2.22c-6.14,11.5-15.56,16.12-28.65,14.09-3.65-.56-5.88,1.94-8.12,4.09-7.19,6.92-14.11,14.09-21.69,20.66-9.91,8.58-29.24,8.15-38.69,2.54-10.5-6.24-19.83-14.05-28.79-22.28-4.43-4.06-8.43-8-15.14-4.31-3,1.67-6.64.71-9.71-.6a13,13,0,0,0-9.68-.54c-9.27,3.05-17.07-.48-24.05-6.1-5-4.05-10.13-6.12-16.81-5.91-10.4.33-20.71-.89-28.46-9.28-3.4-3.68-5.92-8.15-5.87-12.95.1-10.38-2.07-20.52-2.3-30.84-.18-8.25,3.86-15,7.8-21.73,1-1.79,3.09-3.05,5-1.3s.18,3.11-1.11,4.49c-4.53,4.84-6.36,22.82-3,28.19,2.14,3.4,6.8,4.32,10.64,2.06A14.72,14.72,0,0,0,80,242.54a39.06,39.06,0,0,0-1.68-12.82C71.83,209.29,72,189,77.39,168.19c5.22-20.12,8-40.77,13.91-60.83C97.84,85,110.68,67.47,127.57,52.28A140.05,140.05,0,0,1,147,37.47C161.05,28.71,176.4,25.31,193.64,26Zm-135,245.46c-1.74,10.88,10.48,21.62,21,18.95,4-1,5.32-3.16,3.5-6.89a15.4,15.4,0,0,1-1.34-6.76c0-2.56-.87-3.59-3.71-2.61C71.35,276.42,65,275.52,58.59,271.43Z"/></svg>