<svg id="shapes" xmlns="http://www.w3.org/2000/svg" viewBox="0 0 400 457"><defs><style>.cls-1{fill:#7ca4ae;}</style></defs><path class="cls-1" d="M291,157.62a180.39,180.39,0,0,1-1.66,26.18c-.52,4.48.44,7.78,4.74,10.48,7,4.35,5.84,11.73,4.36,18.12-2.8,12-2.76,24.49-6.12,36.42A13.11,13.11,0,0,0,293.51,259c1.57,2.72.45,3.92-2.29,4.48-4.19.85-8.21,2.93-12.69,1.67-2.23-.62-2.87.79-3.33,2.62a124.18,124.18,0,0,1-25,50.1,58.31,58.31,0,0,1-7.91,7.57q-10.59,8.75-21.09,17.57c-15.35,12.92-33.85,9.86-48.42-2-8.91-7.24-17.81-14.61-25.85-22.78-11.22-11.39-17.63-25.73-22.08-40.92-1.3-4.47-1-9.89-3.5-13.39s-8.54-2.4-12.81-4.13c-4.93-2-5.57-3.32-2-6.86,2.72-2.67,3.93-4.35,1.51-8.55-2.13-3.71-1.25-9.05-2.16-13.58-2.26-11.3-2.13-22.77-2.85-34.18a7.76,7.76,0,0,1,6.8-8.46c4.34-.48,4.78-2.68,4.06-6.14-1-4.89-2.35-9.76-2.84-14.71-2.58-25.85,1.22-50.62,17.71-71.29,7.09-8.88,10.18-18.31,12.57-28.65,2.22-9.61,4.85-19.11,10.51-27.37,6.59-9.59,14-17.1,27.23-17.47,9.39-.26,18.74-2.43,28.29-1.44,16.14,1.67,25.66,10.58,29.44,26.15,1.89,7.76,4.14,15.44,6,23.22a8.8,8.8,0,0,0,3.73,5.58c14.37,10.09,25.76,23.23,35.68,37.42A44.1,44.1,0,0,1,290,138C290.14,144.79,291.76,151.54,291,157.62Z"/></svg>