<svg id="shapes" xmlns="http://www.w3.org/2000/svg" viewBox="0 0 400 457"><defs><style>.cls-1{fill:#7ca4ae;}</style></defs><path class="cls-1" d="M144.1,304c0,4.79,0,9.58,0,14.38a65.53,65.53,0,0,1-10.18,35.42,28.65,28.65,0,0,1-11.51,10.8c-1.72.84-4.65,2.56-3.42-2.11.29-1.1-5.23-2.82-6.87-2.07-2,.9-3.85,2-5.82,2.86-1.36.61-3,1.31-4.25.17-1.55-1.4.25-2.67.64-4,.27-.93.65-1.83,1.23-3.45-5.82,1.95-5.9-1.13-4.75-5.21-2.84.49-5.23,1.11-7.65,1.29-2.61.19-3.86-.67-2.16-3.51s5.51-4.89,2.6-9.25c-.61-.91,2.66-2.31,2.55-4.64-1.46-1.48-6.31,3.76-5.52-2.5-.78.22-1.58.37-2.33.66A47.26,47.26,0,0,1,69.6,336.1c-1.76,0-3.63.13-5.38-1.57,7-2.41,13.07-5.48,18.23-10.43A20.69,20.69,0,0,0,88.73,312c.91-5.73,1.41-11.54,2.34-17.27A17.25,17.25,0,0,0,89.89,286c-4.33-12.39-8.61-24.81-10.48-37.89a49.37,49.37,0,0,1,1.8-22.1c2.91-9.33,6.82-17.76,13.42-25.19,9.58-10.78,13-24.44,16.27-38.11,2.54-10.64,5.12-21.3,11-30.8,3.23-5.2,8.19-8.73,12.35-12.94,12.46-12.6,26.14-23.4,43.53-29.1,16.11-5.29,30.16-2.68,42.93,7.91a26.6,26.6,0,0,0,13.37,6.07,37.35,37.35,0,0,1,24.65,14.79,158.36,158.36,0,0,0,16.66,18.52,40.21,40.21,0,0,1,12.69,27.37c.53,8.65,3.67,16.46,7.84,23.95,3.31,6,6.51,12,9.77,18,4.84,8.9,6.3,18.47,5.54,28.46-.28,3.78-2.34,6.9-4,10.13-6.42,12.6-12.85,25.17-15.5,39.27-1.72,9.18.21,17.85,3.64,26.27,1.74,4.29,5.9,6.15,9.62,8.32,2,1.16,4.37,1.76,3.69,5-.71,3.44-3.34,3.27-5.78,3.37a28.1,28.1,0,0,0-11.35,3.3,31.32,31.32,0,0,1-19.88,3.17c-7.14-1.3-10.67-6.92-13.63-12.78a48.59,48.59,0,0,1-2.63-8.05c-1.93-6.58-1.74-6.39-6.78-2.06-8.83,7.6-17.77,15.23-28.57,19.88-20.17,8.7-38.68,4.42-55.91-8.06C156.83,317.34,150.92,310.58,144.1,304Z"/></svg>