<svg id="shapes" xmlns="http://www.w3.org/2000/svg" viewBox="0 0 400 457"><defs><style>.cls-1{fill:#7ca4ae;}</style></defs><path class="cls-1" d="M155,406c4.88,5.21,7.85,11.48,10,18.17,1.18,3.6-.06,5.23-3.9,4-3-.93-6-2.05-9.31-3.23-.1,3.33,2.23,5.55,3.15,8.29-5.64.15-10.27-2.35-12-7.76-3.74-11.65-14.33-15.4-23.21-21.18-1.6-1-2.68-.14-2.58,1.56a13.58,13.58,0,0,0,1.12,4.8c1.23,2.66.56,4.11-2.29,3.39-3.45-.86-3.84,1.1-4.43,3.56-.91,3.75-2.48,7.12-7,9.23a62.31,62.31,0,0,0,.4-21.32c-1.23-7.42-4.86-13.32-9.31-18.91-7.15-8.95-9.33-19.49-9.37-30.43,0-9.79-1-19-5.55-28-4.7-9.32-3.25-19.57-2-29.45C80,287.46,83.5,276.65,87.49,266c6.36-16.95,8.62-34.88,12.37-52.45,3.47-16.29,4.18-33,7.87-49.31,5-21.93,13.88-41.65,30.19-57.52a34.16,34.16,0,0,1,8.68-6.67c15.45-7.37,30.67-15.6,48.41-16.18a11,11,0,0,0,2.93-.58c21-6.48,39.75-1.28,56.54,11.69,16,12.35,26.13,28.69,32.63,47.94a600.74,600.74,0,0,1,25.36,106.8,73.25,73.25,0,0,1-1.89,28.74c-3.19,12.51-1.9,24.86,1,37,2.84,11.87,7,23.28,15.46,32.59,3.28,3.61,7.19,6.43,10.81,9.6,1.3,1.14,3.79,2.23,2.92,4.12-1,2.07-3.67,1.39-5.44.85-8-2.47-16.12-5-19.95-14.29-.42,3.31-.89,6.62-1.27,9.95-.58,5.14-1.22,10.27-3.74,14.92-.53,1-1.05,2.31-2.54,1.81-1.17-.39-1-1.62-1-2.58-.5-8.15-4-15.22-8.22-22.16-5.5,18.32-7.11,36.59.11,54.88-5.29,0-6.32-.49-11.88-5.18-3,8,2.24,13.16,5.77,19.16-9.78-3.34-18.91-7.5-24.41-17-.58-1-.8-2.22-1.41-3.2-1.35-2.12-1-6.28-4.09-6.08s-4.4,3.79-5.6,6.52c-2.4,5.52-1.45,11.33-1.19,17.14-5.49-10.92-7.38-22.39-6.69-34.58.78-13.84,4.13-27.24,5.95-40.89,1.68-12.53.51-25.28,2.75-37.82,1.15-6.47,2.36-13,1.4-19.9-4,5.48-6.94,11.62-11.92,16.26C234,312.2,219.89,323.5,200.19,323.78c-4.05.05-8-.44-11.5-2.68-8.26-5.33-16.65-10.43-25.06-15.51-7.4-4.47-11.67-12.21-16.74-19-1-1.31-1.87-2.7-3.27-4.72-1.15,5-.51,9.05.56,13.2,3,11.53,8.76,21.95,12.8,33,2.71,7.44,4.88,15.08,7.29,22.61-1.56.74-1.88-.49-2.51-1.14-1.12-1.15-1.59-3.74-3.28-3.34-2.17.52-1.89,3.19-2.31,5.08a38.87,38.87,0,0,0,3,25.88c-2.4-.24-2.43-2.46-4.32-2.89-1.29,1.29-.6,2.93-.44,4.45.58,5.7.65,11.13-1.52,16.82-1.07,2.81,1.29,6.94,2.1,10.48-2.16-2.11-2-5.52-4.08-8-4.63,14.23.55,22.62,11.48,25.82C160.42,417.57,155.49,412.66,155,406Z"/></svg>