<svg id="shapes" xmlns="http://www.w3.org/2000/svg" viewBox="0 0 400 457"><defs><style>.cls-1{fill:#7ca4ae;}</style></defs><path class="cls-1" d="M97.85,399a34.68,34.68,0,0,1-19.28,8.43c-1.66.21-3.62.74-4.55-1s1.17-2.43,2.14-3.4A16.12,16.12,0,0,0,81,389.85c-.31-4.39-1.81-5.63-5.73-3.63a36.1,36.1,0,0,0-15.3,13.91c-.64,1.1-.91,3-2.52,2.68-1.89-.36-1.58-2.29-1.54-3.75.23-8.9,3.35-16.15,11.51-20.75,5.94-3.36,11.79-6.94,16.83-11.61,4-3.75,6.65-8.26,6.78-13.95.08-3.32-.55-5-4.11-2.42-2.22,1.63-4.68,3.12-7.54,2.59-.55-1.08-.28-1.68.36-2,9.84-4.69,13.26-13,13.06-23.29-.22-11.32-.7-22.63-1-33.95-.09-3.73-2.6-5.25-5.43-6.39-3.09-1.25-3.82-3.63-5.1-6.55-4.87-11.08.87-20.46,3.75-30.31,3.86-13.16,5.28-26.7,7-40.24,2-16.4,5.89-32.3,13.54-47.25,8-15.67,18.71-29.2,31.12-41.33,11.24-11,25.28-17.71,40.09-22.75,12.7-4.32,25.42-7.8,39.13-5.2,6.24,1.18,12.45.78,17.86-3.94,3.15-2.75,7.49-2.22,11.52-1.3,11.4,2.63,20.41,9.32,29.34,16.46,11.9,9.51,18.26,22.4,22.41,36.37,7.21,24.28,11.83,49.21,17.65,73.84,4.87,20.56,6.9,41.31,8.38,62.22.44,6.15-1,12.19-.57,18.44.69,8.74,3.64,16.89,5.2,25.39,2.92,15.88,6.29,31.68,9.5,47.52a36.39,36.39,0,0,1,.92,9.92c-.1,1.46.12,3.39-1.81,3.61s-2.19-1.7-2.33-3.16c-.29-3.05-1.51-5.66-3.7-8.86,0,3.39-.39,6,.07,8.52a54.38,54.38,0,0,1-.48,20.86c-1,4.89.6,7.91,4.05,10.8a47.33,47.33,0,0,0,7.27,5.26c.86.48,1.9,1,1.68,2.19s-1.38,1.3-2.31,1.62c-5.23,1.77-10.19-.2-15.23-1.09-1.2-.21-2.73-1.48-3.57.17-.73,1.46.86,2.32,1.73,3.25,1.84,2,6.34,3.11,5.31,5.68-1.11,2.77-5.56,2.1-8.63,2.62-7.79,1.34-15.49,1.88-23.14-1.1-4.6-1.79-7.59-4.7-8.61-9.51-1.41-6.63-2.74-13.28-4.23-20.54-2.08,2.09-2,4.25-2.06,6.28s0,4.34-.1,6.5c-.1,1.75.37,4.28-1.87,4.62-2.6.39-2.79-2.3-3.39-4.14-1.23-3.77-.27-8-2.63-11.72-2.35,6.2-3.92,12.54-2.08,19.18.92,3.35,2.55,6.5,3.84,9.76.51,1.31,2,2.88.2,4s-3.39-.1-4.34-1.49A30.34,30.34,0,0,1,266.48,419a181.37,181.37,0,0,1-1.58-28.9c.22-11.1-3.52-21.64-4.48-32.6a97.59,97.59,0,0,1,0-19.41,90.11,90.11,0,0,0-2.68-35.57,25.68,25.68,0,0,0-1.19-2.64c-3.39,4.48-6.52,8.52-9.53,12.64-12,16.42-28.92,22.38-48.47,23.65-16.8,1.09-29.16-7.18-41.24-17.11-10.51-8.63-18.39-19.14-24.76-32a49.34,49.34,0,0,0-1.48,11.32c-.56,18.51,1.2,36.94,2,55.39a17.18,17.18,0,0,0,2.82,7.93c2.7,4.61,3.11,9.79,3.76,14.9.18,1.46,0,3.39-1.86,3.55-1.65.15-1.68-1.76-2.09-2.94-.92-2.68-1.74-5.39-2.66-8.07-.37-1.06-.64-2.46-2.18-2.31s-1.52,1.54-1.77,2.65c-1.61,7.14-3.19,14.29-4.82,21.42a21.12,21.12,0,0,1-1,3.33c-.58,1.4-1.33,3-3,3.1-2,.1-1.87-2-2.38-3.28-.82-2.09-.48-5.6-2.91-5.81s-2.63,3.4-3.77,5.29c-3.17,5.27-5.91,10.8-9,16.14-1,1.69-2.33,3.91-4.6,2.94s-.66-3.24-.34-4.85A31.08,31.08,0,0,0,97.85,399Z"/></svg>