<svg id="shapes" xmlns="http://www.w3.org/2000/svg" viewBox="0 0 400 457"><defs><style>.cls-1{fill:#7ca4ae;}</style></defs><path class="cls-1" d="M278.69,380.17c-7.65-4.85-14.05-10.84-18.17-18.94a61,61,0,0,1-3-7.92c-1.09-3.21-2.82-3.2-5.21-1.33a29.75,29.75,0,0,0-11,18.38c-.25,1.23.15,2.73-1.63,3.83a10,10,0,0,1-2.57-7.56c.56-16.26,5.27-31.33,13.24-45.44,2.93-5.19,6.71-9.89,9.12-15.49-1.83-.93-2.53.64-3.51,1.29-14,9.23-27.5,19.4-43.38,25.51-9.86,3.78-19.17,1.93-27.65-3.46-7.31-4.65-14.53-9.38-22.07-13.66-6.75-3.83-11.59-9.91-16.54-15.73-2.14-2.52-4-5.3-6.48-8.73a79.6,79.6,0,0,0,2.46,16.71,111,111,0,0,1,2.69,41.08,80.44,80.44,0,0,1-11.51,32.18c-5,8.16-8,16.65-7.22,26.39a49,49,0,0,1-2.34,20.16c-1.58,4.57-4.78,7.63-8.49,10.1-4.25,2.82-6.47,1.47-6.29-3.64.32-8.81-2-17.13-4.24-25.47-.46-1.7-.32-4.57-3.1-4.37-2.42.17-3.37,2.41-4,4.57A111.25,111.25,0,0,0,93.14,429c-.67,5.8-6.4,11.31-12.14,11.88-2.11.21-3.65,0-3.36-2.78.91-8.63-4.25-15.4-7.33-23.44-2.93,12.08-9.24,19.66-23.06,19.58,7-11,4.3-21.2.29-31.56s-7.48-20.59-9.13-31.54c-2-13.34,2.54-24,12-33.15S71.17,322,81,313.38a30.59,30.59,0,0,0,8.89-33.69c-5.66-16-4.43-31.2-1.77-47.06a125.1,125.1,0,0,1,10.68-33.06c10-21.21,20.48-42.19,33.34-61.88,8.7-13.32,18.81-25.37,31.74-34.87a43.46,43.46,0,0,1,24.08-8.77c9.3-.31,18.48.13,27.92-.77,10.54-1,21.65,2.52,31.57,7.78,24.71,13.09,42.37,32.81,55.13,57.35,11.28,21.7,22,43.62,30.92,66.42,6.45,16.45,5.89,33.13,3.16,50-.71,4.43-1.62,8.83-2.58,13.21-3.87,17.67-.91,34.7,5.16,51.3,2.21,6.05,7.47,10.08,12.27,14.22,3.75,3.23,7.68,6.27,10.31,10.77-18.75-4.5-37.09-9.61-46.85-29.75-2.86,7.42-1.63,13.35,1.69,18.72,5,8.05,10.46,15.81,15.7,23.71a17.81,17.81,0,0,1,2.48,5.06c-9.43-5.51-20.18-8.08-28.05-16.81a95.62,95.62,0,0,1-17.55-28.68c-1.44-3.53-2.68-4.18-5.93-1.31-6.26,5.53-9.94,12.29-12.12,20.19-1.69,6.14-.36,11.47,3.28,16.43C276.27,374.42,278.13,376.89,278.69,380.17Z"/></svg>