<svg id="shapes" xmlns="http://www.w3.org/2000/svg" viewBox="0 0 400 457"><defs><style>.cls-1{fill:#7ca4ae;}</style></defs><path class="cls-1" d="M282.33,183.3a96.23,96.23,0,0,1-1.13,21.86,7.47,7.47,0,0,0,.34,4.41c5,9.79,3.26,19.54.1,29.3-2.36,7.27-4.88,14.49-7.28,21.75-.52,1.58-.62,3.63-2.27,4.26-10.06,3.84-10.29,12.62-11,21.21a9.06,9.06,0,0,1-.5,3.42c-5.72,10.8-9,22.83-16.61,32.68-2,2.65-3.86,5.31-4.38,8.79-.42,2.79-3,4.2-4.87,6.11-10.37,10.77-24,13.42-37.91,14.76-9.35.89-18.63.23-27.21-4.29-4.74-2.5-8.5-6.38-12.05-10.1a160.81,160.81,0,0,1-15.63-19.78c-7.2-10.39-14.47-20.4-13.54-34.66.43-6.61-1.48-14.19-3.66-21.19-3.06-9.86-1.81-20.44-3.49-30.53-1.89-11.4.69-23-1.82-34.13a82.33,82.33,0,0,1-.64-32.11c2.2-13.14,7.46-25,17.1-34.62,6.11-6.1,11.92-12.51,18.13-18.52a40.37,40.37,0,0,1,16.7-9.72c17.77-5.14,35.8-5.11,52.89,2.13a105.91,105.91,0,0,1,43.11,32.9C277.28,150.88,282,166.34,282.33,183.3Z"/></svg>