<svg id="shapes" xmlns="http://www.w3.org/2000/svg" viewBox="0 0 400 457"><defs><style>.cls-1{fill:#7ca4ae;}</style></defs><path class="cls-1" d="M287.75,199.26c1.62.82,2.66,0,3.75-.2,4.41-.92,7.31,1,7.49,5.46.27,6.64.14,13.17-2.56,19.58-3.86,9.17-8,18.29-9.75,28.22-.57,3.21-2.87,5.22-5.74,6.46-3.05,1.32-4.41,3.46-5,6.76-3.48,18.07-10.59,34.35-22.41,48.83-6.34,7.76-12.11,15.44-22.47,17.71-19.7,4.33-39.74,6.22-58.15-3.26-17-8.76-30-22.34-36.88-40.83-1.27-3.42-2.28-6.95-3.29-10.46-1.42-5-1.87-10.27-8.93-11.36-3.29-.51-6-3.65-6.61-7.47-1.37-9.28-5.7-17.38-10.5-25.14-4.49-7.25-3.89-15-3.34-22.72.27-3.9,3.07-5.82,7-5.28,2.93.4,3.72-.56,2.68-3.25-5.63-14.49-3.9-29.27-2.66-44.27.8-9.58,1.64-18.63,6.8-27.06,1.62-2.64,1.95-6.42,1.92-9.67-.14-14,8.9-22,18.7-29.65a69.85,69.85,0,0,0,6.38-5.45c3.55-3.52,7.67-5.41,13-6.87,10.47-2.9,20.87-3.42,31.44-3.73,6.09-.19,12.2.16,18.3.16,7.34,0,14.7-1,22,.62,1.32.29,2.53.38,3.56,1.37,2.54,2.42,4.45,5.47,9.22,3.09,1.61-.8,5.22,2.18,7.82,3.61,8.09,4.46,13.65,11.53,18.21,19.18,4,6.78,6,14.75,12.64,20,1.65,1.29,2.49,4,3.07,6.17,5.55,21,8,42.29,5.66,64A43.2,43.2,0,0,1,287.75,199.26Z"/></svg>