<svg id="shapes" xmlns="http://www.w3.org/2000/svg" viewBox="0 0 400 457"><defs><style>.cls-1{fill:#7ca4ae;}</style></defs><path class="cls-1" d="M258.9,405.69c-4.24-6.71-8.18-12.79-9.54-19.77-2.57-13.09-1.13-26.19,2.55-38.9,3.09-10.66,6-21.44,11.18-31.41a18.76,18.76,0,0,0,1.65-10.72,6.42,6.42,0,0,0-4.07-5.28c-2.58-1.18-3.5,1.19-4.84,2.47-3.81,3.65-5.35,8.39-5.87,13.43-.56,5.36-3.59,8.12-8.46,9.84A105.53,105.53,0,0,1,194.35,331a13.56,13.56,0,0,1-10.25-6.11,39.11,39.11,0,0,0-14.55-12.57c-7.35-3.62-14.15-8.17-19.44-14.56-2.26-2.74-3.76-3-4.86.73-2,6.86-4.24,13.68-4,21a66,66,0,0,1-1,11.91c-1.69,11.68,2.09,22.26,6.41,32.83,3.48,8.52,5.81,17.33,3.59,26.72-1.82,7.68.08,16.07-4.42,23.25-.35.56-.51,1.24-.86,1.8-1.31,2.07-2.35,5.33-4.93,5s-1.44-3.65-1.77-5.59c-1.57-9.17-2.53-18.4-8.83-26.05-2.67-3.24-4.7-3.28-7.07-.23-4,5.08-6.85,10.44-5.88,17.35a64.73,64.73,0,0,1-.19,21.82c-.22,1.1-.31,2.66-1.69,2.76s-1.65-1.43-2-2.49c-2.24-6.85-5.14-13.36-9.91-18.86-5.66-6.54-7.65-14-7.08-22.62.32-4.81,1.43-10.1-2.75-14.17-1.36-1.33-2.18-3.67-4.67-3.09a5.53,5.53,0,0,0-4.35,4.92c-1.45,9.38-6.71,17.27-10.2,25.86a11.11,11.11,0,0,1-3,4c-1.23-5.45-1-10.74,1.65-15.62,6.8-12.44,5.67-25.19,2-38.13a11.36,11.36,0,0,0-4.75-6.22C58,336.61,55,325.26,56.56,312c.72-6.27,1-12.59-1.06-18.77-1.24-3.74-.78-7.58-.14-11.36a49.71,49.71,0,0,0,.43-11.93c-.36-5.08-2.42-9.17-7.24-11.72a89.37,89.37,0,0,1-11.9-7.32c-15.07-11.37-23.23-26.32-21.58-45.44,1.11-12.82,6.61-24.4,13.37-35.14,11.39-18.12,24.77-34.63,42-47.68,2.61-2,3.42-3.93,2.47-7.19-5.7-19.52-.6-36.49,12-51.95C101.47,43.27,122.51,30.72,147.54,24c17.63-4.76,35.31-7.75,53.24-3.24,11.86,3,22.16,9.14,28.1,20.58,3.45,6.64,6.83,13.31,10.63,19.76,1.7,2.89,3.78,4,7,3.32,11-2.51,22.2-1.69,33.34-1.93,21.91-.48,41.74,7,60.16,17.44,11.29,6.42,15.47,18.75,18.3,31.35,4.17,18.56-3.36,34.4-10.93,50a150.77,150.77,0,0,1-29.72,42.24c-4.5,4.43-4.88,10.88-5.31,16.77a120.38,120.38,0,0,0,.7,25.86c2.55,18,2.54,35.85-5.9,52.64-4.75,9.46-3.09,18.7.24,28,2.19,6.1,4.55,12.15,6.55,18.31,3.65,11.28-.58,22.11-10.7,28.25-1.84,1.11-3.7,1.88-5.61.73-2.32-1.38-.61-3.28-.13-4.86.87-2.88,1.67-5.72,1.29-8.79a4.17,4.17,0,0,0-2.89-3.68,3.58,3.58,0,0,0-4.42,1.25c-4.07,4.73-6.71,10.22-5.5,16.4,2.56,13.06-.08,25.43-3.8,37.77a23.85,23.85,0,0,1-1.33,3.23c-1.16,2.41-2.6,5.75-5.45,4.7-2.44-.9-.57-4.2,0-6.25,1.8-7,2-13.73-1-20.46-1.91-4.22-1.57-8.82-1.46-13.28a27.64,27.64,0,0,0-3.67-13.8c-1.85-3.51-4.16-3.95-7-1.06-5,5.12-5.36,11.57-4.57,18.15.61,5.11,1.6,10.17,2.32,15.27A9.89,9.89,0,0,1,258.9,405.69Z"/></svg>