<svg id="shapes" xmlns="http://www.w3.org/2000/svg" viewBox="0 0 400 457"><defs><style>.cls-1{fill:#7ca4ae;}</style></defs><path class="cls-1" d="M68,344.08c-3.42-8.57-2.55-16.67-.85-24.79a18,18,0,0,1,1.45-3.71c3.94-8.71,4.5-16.63-1-25.65-7.25-12-7.49-25.6-4-39.13,3.35-13,6.84-26,9.52-39.21,3.6-17.73,6.22-35.67,10.18-53.26,5.16-22.92,16.55-43.27,31.75-61.41C124,86.2,133.71,76.19,147,71.23c9.47-3.54,17.93-8.53,26.42-13.72a20.22,20.22,0,0,1,10.48-2.9c14.15-.11,28.2-.28,42.12,3.64,11.6,3.27,21.8,9,31.95,15,15.55,9.2,30.11,19.66,41.1,34.32A69.6,69.6,0,0,1,313,146.36c.13,2.32.29,4.64.55,6.95.77,6.66,3.7,11.85,9.89,15.09,13.73,7.19,18.48,18,13.9,33.14-2.27,7.47-3.68,15.16-7.72,22-2,3.38-2.91,7.12-1.66,11,3.43,10.79,2.52,21.69.78,32.57a18.9,18.9,0,0,0,.86,10.25c2.24,5.73,1.58,11.6.87,17.56-3.11-3.67-3.07-8.81-7.28-13.45.26,12.35-4.88,21.51-11.06,30.28-1.69,2.39-.83,5.14-.5,7.76,1,7.48-1.16,14.22-5,21.92-1.55-5.46-.9-10.09-3.18-14.48-2.75,2.32-2.79,5.7-4.29,8.27a167.57,167.57,0,0,1-22.71,30.86c-1.24,1.31-2.62,4.26-4.53,2.74-2.06-1.64,1.52-3.1,1.7-5-5.91.27-5.91.27-4.64-5.51-3.67,1.3-4.78,2.46-5.82,6.11-.25.9.19,2.2-1.15,2.45a3,3,0,0,1-2.95-1.53,16.13,16.13,0,0,1-2.78-7.93c-1.53-15.85-2.19-31.79-4.19-47.61-.51-4.05,1.71-7.28,4.13-10.38,5.8-7.4,7.69-12.33,7.32-19-2.4,3.65-4.35,7.08-6.75,10.16-10.23,13.16-23,23.5-37.1,32.21-12.11,7.48-24.9,6.2-36.63,0-12.74-6.78-24.82-15-34.66-25.85-2.44-2.69-4.65-5.59-7.8-8.1.91,1.89,1.76,3.8,2.73,5.66,6.07,11.62,5.68,23.27,0,34.86a29.78,29.78,0,0,0-2.12,7.63c-1.46,7.4-5.73,12.87-12.15,16.69-1.39.82-3.34,1.95-4.65.78-1.75-1.57.54-2.89,1.2-4.22,1.83-3.69,3.79-7.31,2.9-12.06-2.38.66-3,2.56-4,3.89-8.56,11-20.36,13.53-33.39,12.86-1.1-.05-2.57-.09-2.74-1.58-.14-1.18,1.22-1.38,2-2a40.48,40.48,0,0,0,3.87-3.14c4.64-4.69,4.59-5.69.8-11.13a118,118,0,0,1-9.14-16c-2.82-5.73-4-5.56-8.78-1.63-6.43,5.32-8.35,12.11-7.76,20C69.4,340.76,70.14,342.12,68,344.08Z"/></svg>